<?xml version="1.0" encoding="utf-8"?>
<!-- Generator: Adobe Illustrator 16.2.0, SVG Export Plug-In . SVG Version: 6.00 Build 0)  -->
<!DOCTYPE svg PUBLIC "-//W3C//DTD SVG 1.1//EN" "http://www.w3.org/Graphics/SVG/1.1/DTD/svg11.dtd">
<svg version="1.1" id="Layer_1" xmlns="http://www.w3.org/2000/svg" xmlns:xlink="http://www.w3.org/1999/xlink" x="0px" y="0px"
	 width="2100px" height="1350px" viewBox="0 0 2100 1350" enable-background="new 0 0 2100 1350" xml:space="preserve">
<rect width="2100" height="1350"/>
<g>
	<path fill="none" d="M1211.807,659.677c0.391,0.016,0.903-0.066,1.542-0.252c0.634-0.186,1.234-0.432,1.796-0.742
		c0.562-0.306,1.046-0.646,1.456-1.023c0.407-0.373,0.619-0.742,0.634-1.104c0.024-0.602-0.316-0.916-1.021-0.945
		c-0.394-0.016-0.871,0.102-1.427,0.35c-0.563,0.248-1.105,0.557-1.63,0.928c-0.526,0.369-0.994,0.758-1.402,1.161
		c-0.41,0.407-0.618,0.729-0.628,0.97C1211.108,659.438,1211.336,659.658,1211.807,659.677z"/>
	<path fill="none" d="M990.101,685.415c0.053,0.145,0.083,0.31,0.089,0.491c0.058,0.191,0.138,0.489,0.236,0.898
		c0.062,0.091,0.104,0.19,0.122,0.293l0.103,0.103v0.168c0.017,0.026,0.031,0.055,0.043,0.084c0.139,0.179,0.231,0.395,0.27,0.633
		c0.014,0.091,0.043,0.154,0.095,0.208c0.157,0.159,0.282,0.332,0.366,0.511l0.055,0.116l0.59,0.611
		c0.077,0.077,0.16,0.143,0.235,0.182l0.216,0.188c0.427,0.281,0.897,0.568,1.337,0.802c0.113,0.015,0.208,0.048,0.284,0.094
		c0.098,0.01,0.202,0.033,0.297,0.085h0.078l0.163,0.059c0.083,0.043,0.175,0.074,0.283,0.096c0.162,0.033,0.312,0.081,0.447,0.143
		c0.079,0.012,0.164,0.033,0.254,0.063c0.218,0.012,0.376,0.058,0.493,0.116l0.956,0.01c0.545,0.111,1.125,0.112,1.73-0.001
		l0.317-0.048l0.109-0.057h0.426c0.541-0.139,0.78-0.177,0.912-0.186c0.686-0.155,1.247-0.331,1.672-0.522l0.131-0.067
		c0.102-0.083,0.205-0.128,0.297-0.15l0.201-0.102c0.075-0.036,0.145-0.063,0.224-0.072c0.026-0.013,0.054-0.026,0.084-0.042
		c0.184-0.167,0.408-0.273,0.667-0.318c0.077-0.014,0.135-0.042,0.184-0.093l0.102-0.079c0.418-0.251,0.798-0.483,1.128-0.699
		l0.204-0.137c0.27-0.181,0.549-0.368,0.838-0.567c3.91-2.8,7.781-5.787,11.496-8.873c0.247-0.205,0.491-0.421,0.737-0.627
		c-8.285,0.568-16.584,0.953-24.843,1.902l-3.311,0.331c-0.231,1.018-0.378,2.013-0.413,2.963c0,0.453,0.028,0.836,0.084,1.117
		L990.101,685.415z"/>
	<path fill="none" d="M965.756,669.544c0.965,0.082,1.811-0.229,2.536-0.936c0.722-0.704,1.464-1.292,2.224-1.762
		c0.344-0.156,0.636-0.392,0.877-0.703c0.242-0.313,0.466-0.666,0.672-1.058c-0.273-0.234-0.533-0.469-0.774-0.704
		c-0.241-0.233-0.468-0.468-0.673-0.705c-0.347-0.389-0.656-0.585-0.93-0.585c-0.141,0-0.413,0.158-0.826,0.47
		c-0.348,0.393-0.725,0.919-1.14,1.582c-0.413,0.666-0.794,1.312-1.139,1.938s-0.604,1.193-0.774,1.701
		C965.634,669.291,965.619,669.544,965.756,669.544z"/>
	<path fill="none" d="M920.979,666.411c0,0.576,0.207,0.863,0.621,0.863h0.307c0.271-0.246,0.85-0.72,1.735-1.418
		c0.886-0.7,1.77-1.461,2.656-2.285c0.885-0.822,1.684-1.624,2.398-2.407c0.714-0.781,1.073-1.379,1.073-1.791
		c0-0.411-0.153-0.656-0.461-0.74c-0.306-0.082-0.596-0.123-0.867-0.123c-0.547,0-1.229,0.289-2.046,0.864
		c-0.818,0.577-1.619,1.299-2.401,2.161c-0.783,0.864-1.481,1.749-2.096,2.655C921.284,665.094,920.979,665.834,920.979,666.411z"/>
	<path fill="none" d="M1232.971,660.54c0.392,0.016,0.903-0.067,1.542-0.254c0.636-0.185,1.232-0.43,1.798-0.74
		c0.56-0.307,1.044-0.647,1.453-1.023c0.408-0.375,0.62-0.743,0.635-1.104c0.024-0.601-0.313-0.915-1.021-0.944
		c-0.394-0.016-0.869,0.1-1.427,0.348c-0.561,0.25-1.104,0.558-1.631,0.928c-0.527,0.371-0.99,0.758-1.398,1.162
		c-0.412,0.408-0.619,0.729-0.629,0.969C1232.274,660.302,1232.501,660.521,1232.971,660.54z"/>
	<path fill="none" d="M1056.703,657.376c-0.268-0.081-0.521-0.123-0.759-0.123c-0.478,0-1.075,0.288-1.79,0.865
		c-0.716,0.577-1.416,1.298-2.1,2.161c-0.686,0.863-1.297,1.749-1.833,2.654c-0.538,0.904-0.804,1.645-0.804,2.221
		s0.18,0.864,0.544,0.864h0.267c0.236-0.246,0.744-0.72,1.518-1.419s1.548-1.462,2.323-2.286c0.773-0.82,1.473-1.623,2.099-2.405
		c0.625-0.781,0.938-1.38,0.938-1.791C1057.105,657.705,1056.972,657.46,1056.703,657.376z"/>
	<path fill="none" d="M1101.971,665.287c1.385-0.081,2.546-0.616,3.482-1.603c0.932-0.988,1.821-2.099,2.668-3.334l0.09-0.493
		c0-0.821-0.136-1.338-0.407-1.544c-0.271-0.204-0.588-0.326-0.949-0.368s-0.694-0.124-0.996-0.248
		c-0.3-0.123-0.482-0.515-0.542-1.172c0-0.083-0.077-0.126-0.226-0.126c-0.151,0-0.288,0-0.407,0
		c-0.665,1.317-1.282,2.531-1.855,3.643c-0.573,1.11-1.129,2.242-1.673,3.395c-0.181,0.495-0.271,0.864-0.271,1.111
		C1100.885,665.042,1101.247,665.287,1101.971,665.287z"/>
	<path fill="none" d="M1071.398,660.479c0.42-0.444,0.781-0.932,1.083-1.461c0.302-0.526,0.453-1.034,0.453-1.521
		c0-0.812-0.272-1.217-0.813-1.217c-0.303,0-0.665,0.182-1.085,0.547c-0.426,0.365-0.831,0.812-1.223,1.339
		c-0.393,0.529-0.74,1.076-1.041,1.644c-0.301,0.569-0.452,1.015-0.452,1.34c0,0.566,0.182,0.851,0.543,0.851
		c0.302,0,0.693-0.14,1.177-0.426C1070.521,661.291,1070.974,660.927,1071.398,660.479z"/>
	<polygon fill="none" points="1096.738,695.952 1095.642,692.954 1095.528,692.381 1095.41,692.381 1095.298,692.954 
		1094.201,695.952 	"/>
	<path fill="none" d="M1217.485,693.19c-0.163,0.42-0.244,0.994-0.244,1.722c0,0.495,0.009,0.939,0.027,1.333
		s0.038,0.663,0.057,0.81l0.028,0.22c0.019,0.015,0.046,0.033,0.081,0.056c0.036,0.022,0.116,0.064,0.242,0.124
		c0.126,0.061,0.259,0.112,0.399,0.157s0.322,0.087,0.546,0.124c0.223,0.038,0.452,0.057,0.688,0.057
		c0.416,0,0.765-0.048,1.046-0.144s0.519-0.255,0.712-0.479c0.193-0.223,0.333-0.519,0.419-0.886s0.13-0.825,0.13-1.372
		c0-0.495-0.01-0.938-0.028-1.331c-0.019-0.392-0.039-0.66-0.063-0.807l-0.027-0.22c-0.02-0.015-0.046-0.033-0.082-0.056
		c-0.035-0.022-0.116-0.064-0.242-0.124c-0.125-0.06-0.258-0.113-0.398-0.16s-0.323-0.089-0.546-0.127
		c-0.224-0.037-0.453-0.056-0.689-0.056c-0.555,0-0.995,0.088-1.321,0.264C1217.894,692.473,1217.648,692.771,1217.485,693.19z"/>
	<path fill="none" d="M1228.756,694.743h1.671c0.959,0,1.439-0.461,1.439-1.384c0-0.24-0.034-0.456-0.102-0.646
		c-0.067-0.191-0.135-0.324-0.202-0.399l-0.102-0.107h-2.705V694.743z"/>
	<path fill="none" d="M1156.038,693.017c0-0.169-0.033-0.321-0.101-0.456s-0.135-0.229-0.203-0.281l-0.101-0.073h-2.649v1.845h1.957
		C1155.673,694.051,1156.038,693.706,1156.038,693.017z"/>
	<path fill="none" d="M1168.701,697.623h1.614c0.465,0,0.837-0.037,1.116-0.112s0.512-0.217,0.697-0.425
		c0.187-0.208,0.313-0.483,0.383-0.824s0.104-0.791,0.104-1.35c0-0.48-0.01-0.911-0.028-1.294s-0.038-0.645-0.057-0.787l-0.028-0.22
		c-0.019-0.012-0.047-0.026-0.084-0.045s-0.123-0.051-0.256-0.096s-0.276-0.085-0.431-0.121c-0.153-0.035-0.358-0.068-0.615-0.099
		c-0.257-0.029-0.524-0.045-0.802-0.045h-1.614V697.623z"/>
	<path fill="none" d="M1117.438,665.287c1.387-0.081,2.547-0.616,3.481-1.603c0.935-0.988,1.823-2.099,2.669-3.334l0.091-0.493
		c0-0.821-0.135-1.338-0.407-1.544c-0.272-0.204-0.588-0.326-0.95-0.368c-0.361-0.042-0.693-0.124-0.995-0.248
		c-0.302-0.123-0.483-0.515-0.543-1.172c0-0.083-0.076-0.126-0.227-0.126c-0.149,0-0.286,0-0.405,0
		c-0.665,1.317-1.281,2.531-1.855,3.643c-0.574,1.11-1.131,2.242-1.673,3.395c-0.183,0.495-0.271,0.864-0.271,1.111
		C1116.352,665.042,1116.713,665.287,1117.438,665.287z"/>
	<path fill="none" d="M1251.518,692.903c-0.028-0.127-0.063-0.231-0.102-0.312c-0.039-0.081-0.078-0.152-0.118-0.214
		c-0.039-0.062-0.072-0.106-0.099-0.132l-0.045-0.04h-2.705v2.419h1.671c0.959,0,1.439-0.44,1.439-1.322
		C1251.56,693.164,1251.546,693.031,1251.518,692.903z"/>
	<path fill="none" d="M1156.126,695.674c-0.04-0.047-0.072-0.079-0.099-0.099l-0.045-0.027h-2.998v2.075h2.188
		c0.401,0,0.703-0.099,0.906-0.295c0.202-0.197,0.304-0.483,0.304-0.858c0-0.127-0.015-0.247-0.042-0.359
		c-0.028-0.113-0.062-0.202-0.099-0.268C1156.203,695.777,1156.165,695.721,1156.126,695.674z"/>
	<polygon fill="#FFFFFF" points="1036.79,692.206 1036.79,690.71 1031.261,690.71 1031.261,699.119 1032.875,699.119 
		1032.875,695.665 1036.328,695.665 1036.328,694.164 1032.875,694.164 1032.875,692.206 	"/>
	<path fill="#FFFFFF" d="M1040.362,690.71v4.725c0,2.573,1.228,3.859,3.684,3.859c1.219,0,2.139-0.321,2.759-0.962
		c0.621-0.642,0.932-1.607,0.932-2.897v-4.725h-1.614v4.725c0,0.852-0.163,1.457-0.489,1.817c-0.327,0.359-0.855,0.54-1.587,0.54
		c-0.288,0-0.559-0.033-0.81-0.099s-0.448-0.139-0.591-0.22c-0.143-0.08-0.271-0.173-0.388-0.278
		c-0.116-0.104-0.188-0.178-0.217-0.219c-0.028-0.042-0.05-0.075-0.064-0.102v-6.165H1040.362z"/>
	<polygon fill="#FFFFFF" points="1051.877,690.71 1051.877,699.119 1056.832,699.119 1056.832,697.623 1053.491,697.623 
		1053.491,690.71 	"/>
	<polygon fill="#FFFFFF" points="1060.399,690.71 1060.399,699.119 1065.354,699.119 1065.354,697.623 1062.014,697.623 
		1062.014,690.71 	"/>
	<rect x="1067.886" y="694.799" fill="#FFFFFF" width="3.111" height="1.553"/>
	<path fill="#FFFFFF" d="M1077.044,697.792c-0.3,0-0.611-0.027-0.934-0.082c-0.323-0.054-0.596-0.114-0.818-0.18
		c-0.224-0.065-0.442-0.142-0.658-0.228c-0.216-0.087-0.358-0.146-0.428-0.181c-0.069-0.033-0.123-0.06-0.16-0.078v1.614
		l0.118,0.067c0.078,0.041,0.204,0.094,0.377,0.157c0.172,0.063,0.371,0.127,0.596,0.188c0.226,0.062,0.509,0.114,0.85,0.157
		s0.693,0.065,1.058,0.065c2.186,0,3.279-0.864,3.279-2.594c0-0.333-0.053-0.633-0.157-0.896c-0.105-0.265-0.247-0.483-0.425-0.655
		c-0.179-0.173-0.383-0.324-0.613-0.456c-0.23-0.131-0.473-0.24-0.726-0.326s-0.508-0.166-0.763-0.239s-0.497-0.146-0.728-0.219
		c-0.231-0.073-0.436-0.152-0.613-0.236c-0.179-0.085-0.32-0.191-0.425-0.321c-0.105-0.129-0.157-0.28-0.157-0.452
		c0-0.578,0.461-0.866,1.383-0.866c0.278,0,0.565,0.019,0.864,0.056c0.298,0.038,0.549,0.08,0.753,0.127
		c0.205,0.047,0.406,0.101,0.605,0.16c0.198,0.06,0.329,0.102,0.394,0.124c0.063,0.022,0.112,0.041,0.146,0.056v-1.502l-0.107-0.056
		c-0.071-0.034-0.185-0.076-0.34-0.127c-0.156-0.051-0.336-0.101-0.54-0.151c-0.205-0.051-0.465-0.094-0.782-0.13
		c-0.316-0.035-0.647-0.053-0.993-0.053c-1.034,0-1.803,0.207-2.303,0.621c-0.501,0.414-0.751,0.995-0.751,1.741
		c0,0.333,0.053,0.633,0.157,0.896c0.105,0.265,0.247,0.483,0.425,0.655c0.178,0.173,0.383,0.325,0.613,0.456
		s0.473,0.24,0.726,0.326s0.507,0.166,0.762,0.239s0.498,0.146,0.729,0.219c0.23,0.073,0.436,0.152,0.613,0.236
		c0.178,0.085,0.319,0.191,0.425,0.321c0.104,0.129,0.157,0.28,0.157,0.452c0,0.364-0.123,0.637-0.368,0.818
		C1078.038,697.701,1077.625,697.792,1077.044,697.792z"/>
	<polygon fill="#FFFFFF" points="1087.063,699.119 1087.063,692.206 1089.481,692.206 1089.481,690.71 1083.029,690.71 
		1083.029,692.206 1085.448,692.206 1085.448,699.119 	"/>
	<path fill="#FFFFFF" d="M1091.321,699.119h1.727l0.636-1.727h3.572l0.63,1.727h1.788l-3.341-8.409h-1.671L1091.321,699.119z
		 M1095.41,692.381h0.118l0.113,0.573l1.097,2.998h-2.537l1.097-2.998L1095.41,692.381z"/>
	<path fill="#FFFFFF" d="M1104.391,692.586c0.171-0.216,0.38-0.362,0.627-0.438c0.248-0.077,0.576-0.115,0.984-0.115
		c0.259,0,0.525,0.019,0.799,0.056c0.273,0.038,0.504,0.08,0.691,0.127s0.373,0.101,0.555,0.16s0.302,0.102,0.359,0.124
		c0.059,0.022,0.103,0.041,0.133,0.056v-1.502l-0.096-0.056c-0.061-0.034-0.161-0.076-0.304-0.127s-0.308-0.101-0.495-0.151
		s-0.428-0.094-0.72-0.13c-0.293-0.035-0.601-0.053-0.923-0.053c-1.233,0-2.165,0.354-2.795,1.063
		c-0.631,0.709-0.945,1.813-0.945,3.313s0.314,2.604,0.945,3.315c0.63,0.711,1.562,1.066,2.795,1.066
		c0.345,0,0.67-0.025,0.974-0.076s0.543-0.106,0.72-0.166c0.176-0.06,0.336-0.13,0.48-0.208c0.145-0.079,0.236-0.134,0.276-0.166
		c0.039-0.032,0.068-0.058,0.087-0.076v-1.496l-0.096,0.067c-0.061,0.049-0.158,0.107-0.296,0.175
		c-0.137,0.067-0.295,0.135-0.475,0.202c-0.181,0.067-0.409,0.125-0.687,0.172s-0.566,0.07-0.866,0.07
		c-0.259,0-0.508-0.022-0.748-0.067c-0.24-0.046-0.433-0.096-0.579-0.152s-0.284-0.12-0.414-0.191
		c-0.129-0.071-0.213-0.121-0.25-0.148c-0.037-0.028-0.065-0.052-0.084-0.07l-0.028-0.214c-0.019-0.146-0.038-0.407-0.057-0.782
		s-0.027-0.793-0.027-1.254c0-0.597,0.033-1.079,0.101-1.448C1104.101,693.094,1104.22,692.802,1104.391,692.586z"/>
	<polygon fill="#FFFFFF" points="1112.394,690.71 1112.394,699.119 1114.008,699.119 1114.008,695.548 1114.874,695.548 
		1117.523,699.119 1119.537,699.119 1116.195,694.687 1119.307,690.71 1117.405,690.71 1114.813,694.051 1114.008,694.051 
		1114.008,690.71 	"/>
	<polygon fill="#FFFFFF" points="1135.253,696.813 1135.141,696.813 1135.078,696.239 1133.352,690.71 1131.912,690.71 
		1130.185,696.239 1130.129,696.813 1130.011,696.813 1129.954,696.239 1128.458,690.71 1126.726,690.71 1126.726,690.822 
		1129.206,699.119 1130.702,699.119 1132.485,693.472 1132.548,692.898 1132.66,692.898 1132.716,693.472 1134.505,699.119 
		1136.001,699.119 1138.476,690.822 1138.476,690.71 1136.806,690.71 1135.31,696.239 	"/>
	<polygon fill="#FFFFFF" points="1147.46,692.206 1147.46,690.71 1141.813,690.71 1141.813,699.119 1147.46,699.119 
		1147.46,697.623 1143.427,697.623 1143.427,695.548 1146.998,695.548 1146.998,694.051 1143.427,694.051 1143.427,692.206 	"/>
	<path fill="#FFFFFF" d="M1156.398,694.727c0.053-0.012,0.12-0.034,0.202-0.068c0.083-0.033,0.173-0.077,0.271-0.132
		c0.098-0.054,0.194-0.13,0.292-0.228s0.188-0.207,0.271-0.329c0.082-0.122,0.148-0.275,0.199-0.461s0.076-0.39,0.076-0.61
		c0-0.656-0.238-1.186-0.714-1.587c-0.477-0.4-1.161-0.602-2.054-0.602h-3.571v8.409h3.802c0.923,0,1.634-0.213,2.132-0.639
		c0.499-0.426,0.748-0.981,0.748-1.668c0-0.235-0.032-0.454-0.098-0.655c-0.066-0.2-0.146-0.367-0.242-0.5s-0.21-0.254-0.343-0.363
		c-0.134-0.108-0.255-0.19-0.363-0.247s-0.222-0.106-0.34-0.149s-0.199-0.069-0.242-0.078c-0.043-0.01-0.076-0.017-0.099-0.021
		v-0.056L1156.398,694.727z M1152.984,692.206h2.649l0.101,0.073c0.068,0.053,0.136,0.146,0.203,0.281s0.101,0.287,0.101,0.456
		c0,0.689-0.365,1.034-1.097,1.034h-1.957V692.206z M1156.34,696.11c0.027,0.112,0.042,0.232,0.042,0.359
		c0,0.375-0.102,0.661-0.304,0.858c-0.203,0.196-0.505,0.295-0.906,0.295h-2.188v-2.075h2.998l0.045,0.027
		c0.026,0.02,0.059,0.052,0.099,0.099c0.039,0.047,0.077,0.104,0.115,0.169C1156.278,695.908,1156.312,695.997,1156.34,696.11z"/>
	<path fill="#FFFFFF" d="M1167.087,690.71v8.409h2.998c1.439,0,2.5-0.341,3.181-1.023s1.021-1.744,1.021-3.184
		c0-1.44-0.34-2.501-1.021-3.181c-0.681-0.681-1.741-1.021-3.181-1.021H1167.087z M1171.117,692.251
		c0.257,0.03,0.462,0.063,0.615,0.099c0.154,0.036,0.298,0.076,0.431,0.121s0.219,0.077,0.256,0.096s0.065,0.033,0.084,0.045
		l0.028,0.22c0.019,0.143,0.038,0.404,0.057,0.787s0.028,0.813,0.028,1.294c0,0.559-0.035,1.009-0.104,1.35
		s-0.196,0.616-0.383,0.824c-0.186,0.208-0.418,0.35-0.697,0.425s-0.651,0.112-1.116,0.112h-1.614v-5.417h1.614
		C1170.593,692.206,1170.86,692.222,1171.117,692.251z"/>
	<polygon fill="#FFFFFF" points="1183.788,692.206 1183.788,690.71 1178.141,690.71 1178.141,699.119 1183.788,699.119 
		1183.788,697.623 1179.755,697.623 1179.755,695.548 1183.326,695.548 1183.326,694.051 1179.755,694.051 1179.755,692.206 	"/>
	<polygon fill="#FFFFFF" points="1190.982,696.7 1190.869,697.274 1190.751,697.274 1190.639,696.7 1188.507,690.71 
		1186.774,690.71 1186.774,690.822 1189.947,699.119 1191.617,699.119 1194.784,690.822 1194.784,690.71 1193.113,690.71 	"/>
	<polygon fill="#FFFFFF" points="1203.769,692.206 1203.769,690.71 1198.121,690.71 1198.121,699.119 1203.769,699.119 
		1203.769,697.623 1199.735,697.623 1199.735,695.548 1203.307,695.548 1203.307,694.051 1199.735,694.051 1199.735,692.206 	"/>
	<polygon fill="#FFFFFF" points="1207.678,690.71 1207.678,699.119 1212.633,699.119 1212.633,697.623 1209.292,697.623 
		1209.292,690.71 	"/>
	<path fill="#FFFFFF" d="M1216.532,691.596c-0.642,0.707-0.962,1.813-0.962,3.316c0,1.507,0.321,2.614,0.965,3.321
		c0.643,0.707,1.607,1.061,2.894,1.061s2.251-0.354,2.894-1.061c0.644-0.707,0.965-1.814,0.965-3.321
		c0-1.504-0.32-2.609-0.962-3.316c-0.641-0.706-1.606-1.06-2.896-1.06S1217.173,690.89,1216.532,691.596z M1220.23,692.088
		c0.223,0.038,0.405,0.08,0.546,0.127s0.273,0.101,0.398,0.16c0.126,0.06,0.207,0.102,0.242,0.124
		c0.036,0.022,0.063,0.041,0.082,0.056l0.027,0.22c0.023,0.146,0.044,0.415,0.063,0.807c0.019,0.393,0.028,0.836,0.028,1.331
		c0,0.547-0.044,1.005-0.13,1.372s-0.226,0.663-0.419,0.886c-0.193,0.224-0.431,0.383-0.712,0.479s-0.63,0.144-1.046,0.144
		c-0.236,0-0.466-0.019-0.688-0.057c-0.224-0.037-0.405-0.079-0.546-0.124s-0.273-0.097-0.399-0.157
		c-0.126-0.06-0.206-0.102-0.242-0.124c-0.035-0.022-0.063-0.041-0.081-0.056l-0.028-0.22c-0.019-0.146-0.038-0.416-0.057-0.81
		s-0.027-0.838-0.027-1.333c0-0.728,0.081-1.302,0.244-1.722s0.408-0.718,0.734-0.895c0.326-0.176,0.767-0.264,1.321-0.264
		C1219.777,692.032,1220.007,692.051,1220.23,692.088z"/>
	<path fill="#FFFFFF" d="M1227.142,690.71v8.409h1.614v-2.88h1.671c1.02,0,1.793-0.242,2.319-0.726
		c0.527-0.483,0.791-1.164,0.791-2.042c0-0.877-0.263-1.557-0.788-2.039c-0.524-0.481-1.299-0.723-2.322-0.723H1227.142z
		 M1231.563,692.313c0.067,0.075,0.135,0.208,0.202,0.399c0.067,0.19,0.102,0.406,0.102,0.646c0,0.923-0.48,1.384-1.439,1.384
		h-1.671v-2.537h2.705L1231.563,692.313z"/>
	<polygon fill="#FFFFFF" points="1242.925,692.206 1242.925,690.71 1237.277,690.71 1237.277,699.119 1242.925,699.119 
		1242.925,697.623 1238.892,697.623 1238.892,695.548 1242.463,695.548 1242.463,694.051 1238.892,694.051 1238.892,692.206 	"/>
	<path fill="#FFFFFF" d="M1251.802,695.82c0.104-0.051,0.221-0.115,0.349-0.194c0.127-0.078,0.254-0.186,0.38-0.32
		c0.125-0.135,0.24-0.286,0.346-0.453c0.104-0.167,0.19-0.376,0.256-0.627s0.099-0.521,0.099-0.81c0-0.852-0.264-1.516-0.791-1.991
		c-0.526-0.477-1.3-0.715-2.319-0.715h-3.285v8.409h1.614v-2.992h1.384l1.67,2.992h1.783l-1.839-3.167l0.102-0.028
		C1251.612,695.905,1251.696,695.871,1251.802,695.82z M1250.12,694.625h-1.671v-2.419h2.705l0.045,0.04
		c0.026,0.025,0.06,0.07,0.099,0.132c0.04,0.062,0.079,0.133,0.118,0.214c0.039,0.08,0.073,0.185,0.102,0.312
		c0.028,0.128,0.042,0.261,0.042,0.399C1251.56,694.185,1251.079,694.625,1250.12,694.625z"/>
	<path fill="#FFFFFF" d="M859.986,675.728c1.295-2.15,2.726-4.464,4.296-6.94c1.568-2.475,3.1-4.81,4.59-7.001
		c1.49-2.19,2.825-4.157,4.002-5.902c1.178-1.746,2.001-2.983,2.472-3.714c1.647-2.435,3.06-4.282,4.237-5.541
		c1.176-1.256,2.156-2.252,2.941-2.982s1.413-1.318,1.884-1.764s0.825-0.993,1.06-1.645c0.313-1.055,0.803-1.987,1.471-2.8
		c0.666-0.811,1.294-1.562,1.883-2.253c0.589-0.688,1.119-1.298,1.589-1.826c0.471-0.526,0.706-1.074,0.706-1.644
		c0-0.405-0.176-0.811-0.529-1.217c-0.354-0.405-0.766-0.609-1.236-0.609c-1.1,0-2.452,0.833-4.06,2.496
		c-1.608,1.665-3.257,3.612-4.942,5.844c-1.689,2.233-3.258,4.464-4.709,6.695c-1.453,2.233-2.57,3.877-3.354,4.932
		c-0.395,0.568-1.178,1.624-2.354,3.165c-1.178,1.543-2.551,3.409-4.121,5.601c-1.57,2.19-3.177,4.565-4.824,7.121
		c-1.648,2.557-3.186,5.094-4.611,7.609c-1.425,2.517-2.602,4.912-3.529,7.184c-0.93,2.273-1.393,4.182-1.393,5.723
		c0,1.217,0.362,2.172,1.09,2.861c0.727,0.688,1.695,1.035,2.908,1.035c0.787,0,1.533-0.205,2.24-0.609
		c0.705-0.406,1.332-0.914,1.883-1.523c0.548-0.607,0.96-1.236,1.236-1.885c0.273-0.65,0.411-1.219,0.411-1.705
		c0-0.65-0.276-0.975-0.823-0.975c-0.551,0-1.257,0.324-2.119,0.975c-1.021,0.813-1.766,1.217-2.236,1.217
		c-0.314,0-0.471-0.201-0.471-0.609c0-0.646,0.411-1.824,1.235-3.529S858.691,677.879,859.986,675.728z"/>
	<path fill="#FFFFFF" d="M816.205,708.659c0.667,0.406,1.452,0.73,2.354,0.975c0.902,0.242,1.823,0.383,2.766,0.426
		c0.941,0.039,1.688,0.061,2.236,0.061c4.002,0,8.374-0.586,13.122-1.762c4.747-1.178,9.652-2.736,14.712-4.682
		c5.062-1.945,10.102-4.176,15.124-6.686c3.687-1.848,7.235-3.716,10.649-5.605c1.324-0.199,2.649-0.402,3.97-0.588
		c4.152-0.533,8.319-1.14,12.463-1.622l12.486-1.43l12.506-1.265c8.336-0.744,16.675-1.51,25.026-2.109
		c8.35-0.674,16.694-1.172,25.055-1.736l12.56-0.756l5.759-0.576c-0.096,0.577-0.177,1.161-0.227,1.757
		c-0.156,1.934,0.118,3.778,0.806,5.462c0.517,1.465,1.351,2.699,2.481,3.669c1.126,0.962,2.439,1.649,3.876,2.037
		c1.223,0.399,2.497,0.603,3.789,0.603c0.184,0,0.368-0.004,0.554-0.012c1.471-0.064,2.953-0.361,4.411-0.884
		c0.681-0.258,1.383-0.548,2.089-0.864c0.719-0.325,1.435-0.721,2.131-1.177c1.062-0.713,2.058-1.437,2.96-2.152
		c0.938-0.744,1.886-1.455,2.835-2.129c2.017-1.582,4-3.161,5.956-4.739c1.805-1.461,3.599-2.964,5.345-4.469
		c2.431-0.112,4.863-0.196,7.295-0.295l12.539-0.482c8.365-0.178,16.729-0.386,25.091-0.496l25.097-0.252
		c8.367-0.062,16.732-0.142,25.102-0.286c4.188-0.073,8.366-0.088,12.548-0.224l12.55-0.372l6.267-0.181l6.276-0.039l12.547-0.039
		l12.551-0.033l12.549-0.25l25.098-0.508c4.186-0.092,8.362-0.189,12.549-0.197c4.183-0.035,8.37-0.018,12.55-0.216l0.078-0.007
		l0.008-3.581l-0.003-0.122h-0.103l-16.148-0.071l-16.147,0.041c-10.77,0.022-21.527,0.06-32.299,0.158l-32.294,0.484l-32.298,0.677
		l-16.144,0.423l-16.148,0.498l-32.288,1.216c-5.378,0.188-10.765,0.443-16.142,0.7l-1.009,0.05l-0.504,0.025l-0.253,0.011
		l-0.199-0.002l-2.02-0.035l-2.666-0.044c2.618-2.281,5.192-4.613,7.68-6.973c3.638-3.449,7.276-7.021,10.815-10.62
		c1.808-1.87,3.582-3.752,5.272-5.594c1.701-1.853,3.469-3.729,5.26-5.584l5.263-5.633c1.745-1.868,3.462-3.836,5.093-5.838
		c1.6-1.846,3.131-3.733,4.551-5.61c1.449-1.915,2.827-3.901,4.09-5.894c0.669-1.007,1.307-2.053,1.898-3.111
		c0.568-1.02,1.113-2.1,1.619-3.208c0.492-1.081,0.959-2.189,1.386-3.294c0.443-1.154,0.7-2.368,0.763-3.609
		c0.064-1.273-0.148-2.48-0.635-3.588c-0.498-1.129-1.285-2.047-2.314-2.711c-0.923-0.678-1.967-1.107-3.105-1.275
		c-1.109-0.162-2.217-0.209-3.254-0.146c-1.371,0.065-2.727,0.193-4.027,0.383c-1.309,0.189-2.635,0.447-3.941,0.769l-0.365,0.091
		c-1.156,0.286-2.302,0.57-3.436,0.855c-1.249,0.316-2.516,0.631-3.811,0.951c-4.936,1.385-9.848,3.047-14.601,4.939
		c-4.771,1.898-9.498,4.072-14.051,6.459c-4.56,2.389-9.068,5.009-13.401,7.786c-4.325,2.771-8.587,5.807-12.696,9.044
		c-0.462,0.419-0.957,0.822-1.469,1.196c-0.52,0.378-1.042,0.804-1.521,1.239c-0.255,0.195-0.49,0.394-0.711,0.589
		c-0.213,0.188-0.408,0.374-0.591,0.562c-0.192,0.136-0.372,0.291-0.533,0.459c-0.119,0.121-0.276,0.232-0.433,0.314
		c-0.46,0.193-0.753,0.548-0.848,1.031c-0.081,0.44,0,0.875,0.209,1.221c0.19,0.49,0.566,0.787,1.054,0.836
		c0.39,0.041,0.773-0.018,1.172-0.183c2.812-1.265,5.604-2.589,8.302-3.938c2.729-1.363,5.389-3.021,7.916-4.934
		c0.713-0.574,0.93-1.348,0.612-2.178l-0.064-0.118c-0.246-0.333-0.571-0.567-0.964-0.692c2.727-1.836,5.542-3.61,8.413-5.303
		c4.229-2.5,8.618-4.818,13.045-6.888c4.416-2.065,9.019-3.938,13.683-5.567c2.304-0.814,4.682-1.576,7.066-2.264
		c2.415-0.695,4.885-1.33,7.354-1.89c1.197-0.308,2.388-0.577,3.539-0.798c1.118-0.213,2.305-0.387,3.525-0.514
		c0.603-0.062,1.189-0.109,1.762-0.141c0.535-0.028,1.088-0.016,1.652,0.04c0.214,0.067,0.418,0.103,0.609,0.103
		c0.073,0,0.215,0.014,0.47,0.078c0.437,0.114,0.79,0.254,1.113,0.449c0.753,0.332,1.288,0.815,1.635,1.478
		c0.351,0.67,0.468,1.409,0.355,2.294c-0.057,0.943-0.29,1.926-0.694,2.916c-0.416,1.014-0.873,2.004-1.362,2.955
		c-0.96,1.987-2.073,3.959-3.31,5.862c-1.234,1.901-2.566,3.786-3.958,5.604c-2.962,3.876-6.139,7.638-9.442,11.181l-10.019,10.742
		c-3.38,3.56-6.827,7.092-10.243,10.5c-3.413,3.404-6.979,6.774-10.601,10.019c-1.886,1.72-3.806,3.423-5.742,5.104
		c-1.497-0.01-2.995-0.013-4.494,0.015c-5.396,0.025-10.799,0.255-16.191,0.688c-3.496,0.266-6.979,0.708-10.452,1.237
		c0.585-1.177,1.228-2.305,1.932-3.354c1.139-1.613,2.457-3.133,3.916-4.517c1.451-1.379,3.058-2.514,4.769-3.369
		c1.796-0.865,3.793-1.553,5.963-2.052c1.062-0.306,2.159-0.524,3.258-0.647l3.403-0.375c1.145-0.063,2.264-0.078,3.344-0.049
		c1.097,0.033,2.223,0.112,3.3,0.229c0.088,0.018,0.177,0.027,0.264,0.027c0.274,0,0.673-0.096,1.016-0.549
		c0.278-0.37,0.42-0.773,0.42-1.2c0-0.509-0.196-1.398-1.546-1.634c-2.446-0.253-4.939-0.301-7.407-0.144
		c-2.459,0.159-4.894,0.563-7.244,1.202c-1.113,0.32-2.216,0.674-3.28,1.05c-1.085,0.387-2.164,0.841-3.219,1.354
		c-0.997,0.516-1.927,1.086-2.765,1.695c-0.831,0.605-1.658,1.268-2.469,1.977c-1.662,1.528-3.165,3.261-4.468,5.151
		c-1.26,1.83-2.294,3.792-3.088,5.834c-0.572,0.098-1.144,0.189-1.715,0.291l-17.87,1.275l-17.906,1.455l-8.941,0.813
		c-2.982,0.29-5.955,0.536-8.947,0.856l-8.933,0.935c-2.97,0.303-5.966,0.623-8.939,0.986l-8.923,1.05
		c-2.994,0.355-5.945,0.777-8.923,1.168c-2.958,0.394-5.958,0.765-8.917,1.233l-5.563,0.836c3.873-2.265,7.462-4.502,10.733-6.705
		c3.726-2.514,6.768-4.783,9.121-6.813c7.531-6.319,13.005-12.236,16.418-17.749c3.413-5.511,5.12-10.537,5.12-15.075
		c0-2.998-0.609-5.612-1.823-7.842c-1.213-2.229-2.821-4.133-4.817-5.713c-1.999-1.581-4.29-2.879-6.876-3.893
		c-2.584-1.013-5.229-1.822-7.934-2.432c-2.703-0.608-5.388-1.032-8.051-1.276c-2.664-0.243-5.095-0.365-7.287-0.365
		c-3.215,0-6.485,0.158-9.815,0.474c-3.331,0.315-6.622,0.806-9.873,1.476c-3.251,0.671-6.405,1.529-9.462,2.572
		c-3.057,1.044-5.836,2.257-8.344,3.635c-4.623,2.6-7.797,5.156-9.52,7.671c-1.725,2.517-2.586,4.869-2.586,7.062
		c0,1.298,0.254,2.516,0.766,3.651c0.51,1.138,1.117,2.112,1.824,2.922c0.705,0.814,1.489,1.442,2.354,1.887
		c0.862,0.448,1.647,0.671,2.354,0.671c0.471,0,0.941-0.142,1.412-0.427c0.471-0.283,0.706-0.71,0.706-1.277
		c0-0.568-0.313-1.096-0.94-1.585c-0.63-0.485-1.315-1.013-2.061-1.581c-0.746-0.567-1.432-1.196-2.06-1.887
		c-0.629-0.689-0.94-1.522-0.94-2.496c0-0.648,0.193-1.358,0.588-2.13c0.391-0.771,1.059-1.684,2-2.741
		c2.119-2.19,4.768-4.158,7.944-5.903c3.179-1.744,6.688-3.204,10.534-4.383c3.844-1.176,7.886-2.069,12.123-2.678
		c4.236-0.61,8.432-0.913,12.593-0.913c4.394,0,8.61,0.346,12.651,1.033c4.039,0.69,7.61,1.767,10.711,3.228
		c3.098,1.461,5.569,3.308,7.414,5.538c1.843,2.235,2.767,4.851,2.767,7.854c0,1.704-0.314,3.511-0.942,5.417
		c-0.629,1.908-1.609,3.917-2.941,6.026c-2.355,3.816-5.338,7.528-8.945,11.14c-3.609,3.612-7.611,7.104-12.005,10.471
		c-4.395,3.37-9.044,6.534-13.946,9.495c-3.164,1.913-6.328,3.693-9.492,5.367l-1.683,0.286c-2.985,0.506-5.908,1.107-8.865,1.658
		c-3.001,0.578-5.896,1.184-8.864,1.818l-8.785,2.068l0.268,1.545l0.008-0.002l0.001,0.008l0.533-0.124l5.623-1.223l3.084-0.673
		l3.09-0.587l3.094-0.584l1.527-0.275l1.551-0.271l3.366-0.58c-4.608,2.226-9.081,4.213-13.409,5.935
		c-4.59,1.826-8.809,3.266-12.652,4.32c-0.078,0-0.823,0.184-2.235,0.551c-1.413,0.363-3.101,0.748-5.062,1.156
		c-1.961,0.404-4.021,0.77-6.178,1.094s-4.021,0.486-5.592,0.486c-1.413,0-2.392-0.162-2.942-0.486
		c-0.391-0.324-0.824-0.486-1.295-0.486c-0.861,0-1.294,0.404-1.294,1.217C815.204,707.685,815.539,708.253,816.205,708.659z
		 M990.42,680.961l3.311-0.331c8.259-0.949,16.558-1.334,24.843-1.902c-0.247,0.206-0.49,0.422-0.737,0.627
		c-3.715,3.086-7.586,6.073-11.496,8.873c-0.289,0.199-0.569,0.387-0.838,0.567l-0.204,0.137c-0.33,0.216-0.71,0.448-1.128,0.699
		l-0.102,0.079c-0.049,0.051-0.107,0.079-0.184,0.093c-0.26,0.045-0.484,0.151-0.667,0.318c-0.03,0.016-0.059,0.029-0.084,0.042
		c-0.08,0.009-0.149,0.036-0.224,0.072l-0.201,0.102c-0.092,0.022-0.195,0.067-0.297,0.15l-0.131,0.067
		c-0.425,0.191-0.986,0.367-1.672,0.522c-0.132,0.009-0.371,0.047-0.912,0.186h-0.426l-0.109,0.057l-0.317,0.048
		c-0.605,0.113-1.186,0.112-1.73,0.001l-0.956-0.01c-0.116-0.059-0.274-0.104-0.493-0.116c-0.091-0.03-0.175-0.052-0.254-0.063
		c-0.136-0.062-0.286-0.109-0.447-0.143c-0.108-0.021-0.2-0.053-0.283-0.096l-0.163-0.059h-0.078
		c-0.095-0.052-0.199-0.075-0.297-0.085c-0.077-0.046-0.171-0.079-0.284-0.094c-0.44-0.233-0.911-0.521-1.337-0.802l-0.216-0.188
		c-0.075-0.039-0.158-0.104-0.235-0.182l-0.59-0.611l-0.055-0.116c-0.084-0.179-0.209-0.352-0.366-0.511
		c-0.052-0.054-0.081-0.117-0.095-0.208c-0.039-0.238-0.131-0.454-0.27-0.633c-0.012-0.029-0.026-0.058-0.043-0.084V687.2
		l-0.103-0.103c-0.019-0.103-0.06-0.202-0.122-0.293c-0.098-0.409-0.178-0.707-0.236-0.898c-0.007-0.182-0.037-0.347-0.089-0.491
		l-0.009-0.374c-0.056-0.281-0.083-0.664-0.084-1.117C990.042,682.974,990.189,681.979,990.42,680.961z"/>
	<path fill="#FFFFFF" d="M921.675,661.936c-0.685,0.772-1.353,1.582-2.004,2.435c-0.649,0.852-1.196,1.766-1.646,2.739
		c-0.443,0.974-0.667,1.908-0.667,2.8c0,0.895,0.242,1.664,0.724,2.313c0.854,0.896,1.545,1.543,2.077,1.949
		c0.532,0.407,1.046,0.609,1.543,0.609c0.339,0,0.711-0.159,1.118-0.475c0.404-0.316,0.828-0.692,1.268-1.129
		c0.439-0.435,0.848-0.871,1.219-1.306c0.373-0.435,0.695-0.811,0.967-1.129c0.27-0.473,0.609-0.711,1.016-0.711
		c0.338,0,0.642,0.271,0.913,0.815c0.745,1.242,1.659,1.862,2.743,1.862c0.677,0,1.666-0.385,2.971-1.156
		c1.303-0.77,2.61-1.704,3.92-2.8c1.196-1.001,2.24-2.036,3.15-3.104c0.042,0.444,0.08,0.86,0.107,1.218
		c0.033,0.486,0.051,0.934,0.051,1.339c0,0.73-0.034,1.441-0.104,2.13c-0.068,0.691-0.102,1.644-0.102,2.861
		c0,0.486,0.117,0.913,0.359,1.278s0.604,0.549,1.088,0.549c0.344,0,0.652-0.184,0.93-0.549c0.275-0.365,0.551-0.749,0.828-1.155
		c0.137-0.162,0.258-0.367,0.361-0.61s0.224-0.444,0.363-0.608c0.963-1.704,1.963-3.366,2.998-4.991
		c1.033-1.622,2.239-3.083,3.621-4.382c0.206-0.244,0.533-0.589,0.981-1.036c0.448-0.444,0.878-0.953,1.292-1.521
		c0.413-0.567,0.776-1.158,1.086-1.767c0.311-0.609,0.467-1.196,0.467-1.766c0-0.647-0.242-1.155-0.725-1.521
		c-0.483-0.365-0.967-0.549-1.448-0.549c-0.621,0-1.207,0.286-1.759,0.853c-0.551,0.569-0.967,1.339-1.241,2.313
		c-0.553,1.948-1.122,3.369-1.705,4.263c-0.589,0.893-1.433,1.989-2.535,3.285c-0.138,0.164-0.274,0.327-0.413,0.488
		c-0.14,0.164-0.38,0.242-0.724,0.242h-0.207c-0.14-0.078-0.208-0.262-0.208-0.548c0-0.283,0-0.547,0-0.79
		c0-0.568-0.051-1.235-0.154-2.009c-0.104-0.771-0.276-1.522-0.518-2.253c-0.24-0.73-0.568-1.359-0.982-1.888
		c-0.412-0.526-0.93-0.791-1.551-0.791c-0.414,0-0.76,0.204-1.033,0.61c-0.277,0.406-0.414,0.852-0.414,1.338
		c0,0.73,0.172,1.604,0.518,2.617c0.015,0.043,0.023,0.083,0.037,0.126c-0.407,0.4-0.951,0.924-1.639,1.578
		c-0.725,0.691-1.5,1.361-2.327,2.009c-0.827,0.65-1.638,1.218-2.431,1.706c-0.792,0.486-1.423,0.73-1.895,0.73
		c-0.271,0-0.459-0.141-0.56-0.427c-0.102-0.284-0.151-0.549-0.151-0.792c0-0.404,0.237-1.074,0.709-2.009
		c0.474-0.932,0.813-1.56,1.018-1.886c0.275-0.567,0.412-1.055,0.412-1.462c0-0.566-0.188-1.095-0.565-1.582
		s-0.839-0.913-1.386-1.279c-0.549-0.364-1.115-0.647-1.697-0.852c-0.582-0.202-1.078-0.305-1.488-0.305
		c-1.783,0-3.357,0.69-4.727,2.07C922.977,660.495,922.36,661.164,921.675,661.936z M926.396,662.374
		c0.817-0.575,1.499-0.864,2.046-0.864c0.271,0,0.562,0.041,0.867,0.123c0.308,0.084,0.461,0.329,0.461,0.74
		c0,0.412-0.359,1.01-1.073,1.791c-0.715,0.783-1.514,1.585-2.398,2.407c-0.887,0.824-1.771,1.585-2.656,2.285
		c-0.886,0.698-1.464,1.172-1.735,1.418H921.6c-0.414,0-0.621-0.287-0.621-0.863c0-0.577,0.306-1.317,0.92-2.221
		c0.614-0.906,1.313-1.791,2.096-2.655C924.776,663.673,925.577,662.951,926.396,662.374z"/>
	<path fill="#FFFFFF" d="M952.551,667.049c-0.432,1.339-0.652,2.333-0.652,2.982c0,1.299,0.385,2.516,1.154,3.651
		c0.768,1.139,1.727,1.705,2.881,1.705c0.895,0,1.81-0.445,2.74-1.338c0.93-0.893,1.861-1.928,2.793-3.104
		c0.345-0.437,0.661-0.872,0.996-1.309c0.038,1.032,0.336,1.858,0.914,2.464l0.208,0.243c0.688,0.813,1.585,1.218,2.688,1.218
		c0.896,0,1.826-0.357,2.793-1.072c0.689-0.636,1.344-1.272,1.965-1.908c0.619-0.637,1.275-1.272,1.965-1.908
		c0.273-0.238,0.519-0.459,0.724-0.655c0.208-0.198,0.448-0.299,0.724-0.299c0.482,0,0.895,0.514,1.242,1.54
		c0.826,1.977,1.861,2.963,3.103,2.963c0.689,0,1.706-0.431,3.052-1.298c1.344-0.867,2.688-1.86,4.033-2.982
		c1.346-1.123,2.516-2.211,3.517-3.267c0.999-1.055,1.498-1.744,1.498-2.07c0-0.648-0.413-0.974-1.239-0.974
		c-0.348,0-0.726,0.083-1.139,0.243c-0.415,0.164-0.932,0.487-1.551,0.974c-0.275,0.164-0.76,0.549-1.449,1.156
		c-0.689,0.61-1.432,1.218-2.223,1.827c-0.795,0.609-1.588,1.156-2.379,1.643c-0.793,0.488-1.431,0.731-1.914,0.731
		c-0.62,0-0.931-0.365-0.931-1.096c0-0.405,0.345-1.136,1.036-2.191c0.687-1.055,1.464-2.149,2.326-3.287
		c0.861-1.136,1.706-2.21,2.533-3.227c0.826-1.013,1.379-1.683,1.654-2.007c1.241-1.381,2.5-2.76,3.776-4.141
		c1.274-1.379,2.534-2.759,3.774-4.14c0.414-0.487,0.62-0.891,0.62-1.217c0-0.404-0.173-0.73-0.518-0.975
		c-0.346-0.244-0.655-0.364-0.931-0.364c-0.207,0-0.759,0.425-1.653,1.277c-0.896,0.853-1.897,1.826-3.001,2.921
		c-1.103,1.096-2.119,2.132-3.05,3.105c-0.932,0.974-1.5,1.583-1.707,1.826c-0.276,0.325-0.812,0.934-1.604,1.825
		c-0.791,0.896-1.637,1.828-2.532,2.802s-1.776,1.825-2.638,2.556c-0.86,0.73-1.465,1.097-1.81,1.097
		c-0.621,0-1.241-0.545-1.862-1.635c-0.967-1.507-1.896-2.263-2.791-2.263c-0.761,0-1.551,0.408-2.379,1.219
		c-0.666,0.653-1.29,1.423-1.887,2.259c-0.367,0.29-0.737,0.629-1.113,1.027l-6.928,6.939c-0.207,0.244-0.484,0.366-0.828,0.366
		c-0.345,0-0.672-0.201-0.983-0.609c-0.309-0.405-0.464-0.852-0.464-1.339c0-0.323,0.155-0.771,0.464-1.339
		c0.312-0.568,0.675-1.136,1.089-1.704c0.413-0.568,0.84-1.115,1.291-1.645c0.447-0.526,0.777-0.912,0.982-1.156
		c0.481-0.73,0.725-1.582,0.725-2.557c0-0.648-0.122-1.237-0.362-1.766c-0.243-0.526-0.604-0.792-1.087-0.792
		c-0.619,0-1.311,0.509-2.066,1.521c-0.758,1.018-1.436,2.192-2.037,3.531C953.5,664.37,952.986,665.71,952.551,667.049z
		 M965.809,668.782c0.17-0.508,0.43-1.075,0.774-1.701s0.726-1.271,1.139-1.938c0.415-0.663,0.792-1.189,1.14-1.582
		c0.413-0.312,0.686-0.47,0.826-0.47c0.273,0,0.583,0.196,0.93,0.585c0.205,0.237,0.432,0.472,0.673,0.705
		c0.241,0.235,0.501,0.47,0.774,0.704c-0.206,0.392-0.43,0.745-0.672,1.058c-0.241,0.312-0.533,0.547-0.877,0.703
		c-0.76,0.47-1.502,1.058-2.224,1.762c-0.726,0.706-1.571,1.018-2.536,0.936C965.619,669.544,965.634,669.291,965.809,668.782z"/>
	<path fill="#FFFFFF" d="M962.344,655.543c0.553,0,1.224-0.255,2.019-0.768c0.791-0.513,1.257-1.004,1.396-1.476
		c0-0.631-0.346-1.083-1.034-1.359c-0.689-0.274-1.276-0.415-1.758-0.415c-0.553,0-1.036,0.217-1.449,0.651
		s-0.618,0.963-0.618,1.595c0,0.395,0.154,0.788,0.465,1.183C961.672,655.348,962,655.543,962.344,655.543z"/>
	<path fill="#FFFFFF" d="M1073.207,665.896c-0.968,0.813-1.809,1.218-2.533,1.218c-0.544,0-0.816-0.203-0.816-0.614
		c0-0.408,0.211-0.858,0.635-1.348c0.24-0.328,0.589-0.697,1.04-1.106c0.452-0.409,0.919-0.818,1.402-1.228
		c0.481-0.408,0.935-0.839,1.357-1.29c0.42-0.447,0.753-0.838,0.992-1.165c0.545-0.819,0.815-1.718,0.815-2.702
		c0-1.144-0.287-2.33-0.857-3.559c-0.576-1.227-1.345-1.842-2.308-1.842c-0.845,0-1.78,0.409-2.805,1.228
		c-1.028,0.817-1.989,1.839-2.896,3.064c-0.461,0.625-0.883,1.277-1.266,1.957c-0.314,0.349-0.674,0.744-1.129,1.238
		c-0.633,0.69-1.312,1.361-2.034,2.009c-0.725,0.65-1.433,1.218-2.126,1.705c-0.691,0.487-1.243,0.73-1.657,0.73
		c-0.237,0-0.402-0.141-0.489-0.426c-0.09-0.284-0.132-0.549-0.132-0.792c0-0.404,0.206-1.075,0.619-2.009
		c0.416-0.932,0.712-1.561,0.89-1.887c0.24-0.567,0.362-1.054,0.362-1.461c0-0.567-0.165-1.096-0.495-1.582
		c-0.33-0.488-0.732-0.914-1.212-1.279c-0.481-0.364-0.977-0.647-1.485-0.853c-0.508-0.201-0.942-0.304-1.302-0.304
		c-1.558,0-2.937,0.689-4.136,2.068c-0.478,0.57-1.017,1.239-1.615,2.01c-0.599,0.773-1.186,1.583-1.754,2.436
		c-0.568,0.852-1.048,1.766-1.438,2.738c-0.388,0.975-0.583,1.909-0.583,2.801c0,0.894,0.211,1.663,0.632,2.313
		c0.747,0.896,1.354,1.543,1.817,1.948c0.465,0.407,0.912,0.608,1.349,0.608c0.296,0,0.62-0.157,0.978-0.473
		c0.355-0.316,0.727-0.693,1.109-1.129c0.383-0.435,0.741-0.871,1.066-1.306c0.326-0.435,0.607-0.812,0.845-1.129
		c0.235-0.473,0.532-0.712,0.889-0.712c0.294,0,0.56,0.272,0.799,0.816c0.652,1.242,1.45,1.861,2.399,1.861
		c0.591,0,1.456-0.384,2.599-1.155c1.108-0.751,2.222-1.658,3.339-2.717c0.009,1.033,0.231,1.915,0.676,2.635
		c0.452,0.736,0.993,1.329,1.628,1.778c0.633,0.449,1.326,0.776,2.081,0.98c0.752,0.205,1.462,0.307,2.123,0.307
		c2.051,0,4.043-0.933,5.972-2.801c0.546-0.541,1.088-1.063,1.628-1.567c-0.236,0.804-0.363,1.532-0.363,2.176
		c0,0.974,0.197,1.685,0.59,2.13c0.393,0.448,0.829,0.67,1.311,0.67c0.486,0,0.877-0.283,1.177-0.852
		c1.628-2.84,3.361-5.011,5.201-6.513c1.839-1.502,3.964-2.901,6.377-4.201c0,0.243-0.061,0.591-0.182,1.035
		c-0.12,0.446-0.181,0.752-0.181,0.913c-0.06,0.326-0.09,0.813-0.09,1.46c0,1.057,0.166,2.235,0.498,3.531
		c0.33,1.299,0.979,1.948,1.945,1.948c0.541,0,1.279-0.488,2.214-1.461c0.544-0.566,1.073-1.193,1.596-1.854
		c-0.003,0.08-0.012,0.165-0.012,0.243c0,1.553,0.438,2.637,1.311,3.249c0.875,0.613,1.796,0.919,2.761,0.919
		c0.963,0,1.839-0.306,2.623-0.919c0.782-0.612,1.566-1.348,2.352-2.207c0.784-0.857,1.658-1.737,2.623-2.636
		c0.965-0.897,2.141-1.634,3.529-2.207c0.46-0.189,0.865-0.357,1.246-0.516c-0.146,0.415-0.306,0.813-0.435,1.249
		c-0.362,1.146-0.543,2.17-0.543,3.067c0,1.553,0.438,2.637,1.313,3.249c0.872,0.613,1.793,0.919,2.759,0.919
		c0.963,0,1.839-0.306,2.622-0.919c0.784-0.612,1.569-1.348,2.354-2.207c0.782-0.857,1.657-1.737,2.622-2.636
		c0.964-0.897,2.141-1.634,3.528-2.207c0.383-0.157,0.731-0.302,1.06-0.438c-0.051,0.121-0.108,0.252-0.156,0.371
		c-0.421,1.056-0.634,1.786-0.634,2.191c0,0.487,0.136,0.895,0.408,1.218c0.272,0.325,0.558,0.487,0.858,0.487
		c0.421,0,0.754-0.162,0.996-0.487c0.18-0.243,0.346-0.487,0.496-0.73c0.151-0.243,0.348-0.487,0.59-0.731
		c1.205-1.135,2.396-2.21,3.571-3.226c1.176-1.014,2.457-1.846,3.846-2.495c0.42-0.244,0.813-0.366,1.175-0.366
		c0.543,0,0.996,0.226,1.357,0.67c0.361,0.447,0.679,1.034,0.948,1.765c0.272,0.73,0.591,1.604,0.952,2.617
		c0.361,1.016,0.813,2.092,1.354,3.228c0.604,1.137,1.358,1.704,2.264,1.704c0.601,0,1.145-0.162,1.628-0.487
		c1.628-1.053,2.817-2.252,3.573-3.591c0.753-1.34,1.552-2.414,2.396-3.227c0.784-0.73,1.176-1.339,1.176-1.826
		c0-0.567-0.332-0.853-0.995-0.853c-0.24,0-0.497,0.042-0.768,0.122c-0.272,0.081-0.559,0.244-0.859,0.487
		c-0.604,0.486-1.282,1.177-2.035,2.069c-0.755,0.895-1.434,1.543-2.037,1.947c-0.601,0.407-1.024,0.609-1.266,0.609
		c-0.543,0-1.056-0.445-1.537-1.34c-0.484-0.891-0.904-1.844-1.267-2.86c-0.361-1.014-0.693-2.009-0.995-2.983
		c-0.482-1.54-1.206-2.313-2.171-2.313c-0.361,0-0.845,0.121-1.447,0.364c-0.603,0.244-1.222,0.548-1.854,0.914
		c-0.634,0.364-1.238,0.712-1.809,1.034c-0.574,0.325-0.983,0.609-1.221,0.854c-0.124,0.163-0.244,0.244-0.362,0.244
		c-0.182,0-0.394-0.123-0.634-0.366c0-0.163,0.044-0.305,0.137-0.427c0.088-0.121,0.193-0.384,0.315-0.792
		c0.059-0.322,0.135-0.648,0.225-0.974c0.093-0.322,0.137-0.648,0.137-0.974c0-0.322-0.091-0.628-0.271-0.913
		c-0.181-0.282-0.423-0.426-0.724-0.426c-0.24,0-0.451,0.121-0.632,0.365c-0.181,0.243-0.362,0.446-0.544,0.608
		c-0.242,0.407-0.634,1.117-1.175,2.13c-0.459,0.857-0.931,1.803-1.409,2.804c-0.076-0.006-0.137-0.025-0.22-0.025
		c-0.361,0-0.753,0.021-1.174,0.062c-0.425,0.043-0.905,0.104-1.449,0.184c-0.603,0-0.919-0.407-0.95-1.225
		c-0.031-0.818-0.196-1.758-0.495-2.82c-0.183-0.654-0.438-1.103-0.77-1.348c-0.334-0.246-0.681-0.369-1.042-0.369
		c-0.302,0-0.754,0.081-1.356,0.243c-0.362,0.164-0.664,0.469-0.903,0.914c-0.241,0.447-0.512,0.75-0.814,0.912
		c-0.361,0.164-0.635-0.08-0.813-0.73c-0.181-0.648-0.635-1.054-1.357-1.217c-0.845,0-1.537,0.532-2.081,1.595
		c-0.621,1.299-1.271,2.576-1.943,3.837c-0.105-0.014-0.198-0.037-0.318-0.037c-0.361,0-0.753,0.021-1.175,0.062
		c-0.422,0.043-0.904,0.104-1.446,0.184c-0.605,0-0.921-0.407-0.949-1.225c-0.033-0.818-0.197-1.758-0.499-2.82
		c-0.178-0.654-0.438-1.103-0.77-1.348c-0.331-0.246-0.678-0.369-1.04-0.369c-0.302,0-0.754,0.081-1.355,0.243
		c-0.362,0.164-0.666,0.469-0.903,0.914c-0.243,0.447-0.516,0.75-0.816,0.912c-0.361,0.164-0.633-0.08-0.813-0.73
		c-0.181-0.648-0.634-1.054-1.356-1.217c-0.846,0-1.538,0.532-2.081,1.595c-0.664,1.39-1.356,2.76-2.081,4.105
		c-0.165,0.308-0.302,0.649-0.454,0.972c-0.141,0.154-0.289,0.32-0.451,0.511c-0.482,0.569-1.009,1.156-1.582,1.765
		c-0.574,0.608-1.117,1.138-1.628,1.583c-0.514,0.447-0.919,0.63-1.221,0.548c-0.243-0.08-0.361-0.364-0.361-0.853
		c0-0.406,0.029-0.688,0.089-0.852c0-0.404,0.029-0.892,0.092-1.461c0.06-0.567,0.091-1.176,0.091-1.826
		c0-1.055-0.153-1.947-0.453-2.678c-0.302-0.73-0.875-1.097-1.718-1.097c-0.906,0-1.63,0.366-2.173,1.097
		c-0.061,0.08-0.361,0.363-0.903,0.852c-0.544,0.487-1.146,1.035-1.809,1.644c-0.665,0.608-1.344,1.198-2.036,1.765
		c-0.693,0.57-1.191,0.975-1.493,1.218c-0.18,0.163-0.196-0.02-0.045-0.548c0.027-0.097,0.072-0.206,0.117-0.314
		c0.15-0.185,0.283-0.364,0.382-0.537c0.159-0.278,0.271-0.524,0.345-0.745c0.117-0.172,0.238-0.346,0.377-0.533
		c2.773-3.976,5.532-7.871,8.276-11.688c2.745-3.813,5.474-7.913,8.187-12.296c0-0.405-0.121-0.688-0.362-0.852
		c-0.239-0.161-0.481-0.244-0.723-0.244c-0.482,0-0.966,0.325-1.448,0.975c-0.784,0.974-1.553,1.947-2.306,2.921
		c-0.755,0.975-1.521,1.99-2.306,3.043c-2.533,4.061-5.264,7.996-8.187,11.811c-1.621,2.114-3.134,4.269-4.56,6.456
		c-1.475,1.377-2.911,2.736-4.305,4.074C1076.566,663.727,1074.954,664.923,1073.207,665.896z M1056.168,659.908
		c-0.626,0.782-1.325,1.585-2.099,2.405c-0.775,0.824-1.55,1.587-2.323,2.286s-1.281,1.173-1.518,1.419h-0.267
		c-0.364,0-0.544-0.288-0.544-0.864s0.266-1.316,0.804-2.221c0.536-0.905,1.147-1.791,1.833-2.654
		c0.684-0.863,1.384-1.584,2.1-2.161c0.715-0.577,1.313-0.865,1.79-0.865c0.237,0,0.491,0.042,0.759,0.123
		c0.269,0.084,0.402,0.329,0.402,0.741C1057.105,658.528,1056.793,659.127,1056.168,659.908z M1068.32,661.149
		c0-0.325,0.151-0.771,0.452-1.34c0.301-0.567,0.648-1.114,1.041-1.644c0.392-0.527,0.797-0.974,1.223-1.339
		c0.42-0.365,0.782-0.547,1.085-0.547c0.541,0,0.813,0.405,0.813,1.217c0,0.486-0.151,0.994-0.453,1.521
		c-0.302,0.529-0.663,1.017-1.083,1.461c-0.425,0.448-0.877,0.813-1.358,1.096c-0.483,0.286-0.875,0.426-1.177,0.426
		C1068.502,662,1068.32,661.716,1068.32,661.149z M1116.623,663.437c0.542-1.152,1.099-2.284,1.673-3.395
		c0.574-1.111,1.19-2.325,1.855-3.643c0.119,0,0.256,0,0.405,0c0.15,0,0.227,0.043,0.227,0.126c0.06,0.657,0.241,1.049,0.543,1.172
		c0.302,0.124,0.634,0.206,0.995,0.248c0.362,0.042,0.678,0.164,0.95,0.368c0.272,0.206,0.407,0.723,0.407,1.544l-0.091,0.493
		c-0.846,1.235-1.734,2.346-2.669,3.334c-0.935,0.986-2.095,1.521-3.481,1.603c-0.725,0-1.086-0.245-1.086-0.739
		C1116.352,664.301,1116.44,663.932,1116.623,663.437z M1101.155,663.437c0.544-1.152,1.1-2.284,1.673-3.395
		c0.573-1.111,1.19-2.325,1.855-3.643c0.119,0,0.256,0,0.407,0c0.148,0,0.226,0.043,0.226,0.126c0.06,0.657,0.242,1.049,0.542,1.172
		c0.302,0.124,0.635,0.206,0.996,0.248s0.679,0.164,0.949,0.368c0.271,0.206,0.407,0.723,0.407,1.544l-0.09,0.493
		c-0.847,1.235-1.736,2.346-2.668,3.334c-0.937,0.986-2.098,1.521-3.482,1.603c-0.724,0-1.086-0.245-1.086-0.739
		C1100.885,664.301,1100.975,663.932,1101.155,663.437z"/>
	<path fill="#FFFFFF" d="M1165.388,667.272c3.863,1.506,7.992,1.932,12.2,1.559c2.402-0.211,4.778-0.615,7.135-1.03
		c7.265-1.279,14.477-2.684,21.479-4.594c0.034,0.037,0.059,0.079,0.096,0.116c0.566,0.569,1.252,1.038,2.062,1.404
		c0.811,0.365,1.702,0.645,2.678,0.836c0.972,0.19,1.892,0.305,2.752,0.34c2.665,0.107,5.282-0.478,7.847-1.76
		c1.522-0.78,3.024-1.503,4.505-2.165c0.192-0.086,0.394-0.182,0.588-0.27c-0.026,0.148-0.06,0.299-0.065,0.444
		c-0.031,0.785,0.233,1.465,0.8,2.032c0.565,0.569,1.253,1.038,2.063,1.404c0.81,0.366,1.699,0.646,2.675,0.837
		c0.974,0.189,1.892,0.303,2.754,0.338c2.665,0.109,5.28-0.477,7.845-1.759c1.524-0.78,3.023-1.503,4.507-2.165
		c1.48-0.662,3.019-1.383,4.624-2.16c1.036-0.439,1.76-0.846,2.169-1.223c0.407-0.374,0.616-0.682,0.626-0.923
		c0.018-0.42-0.443-0.649-1.385-0.688c-0.862-0.035-1.654,0.113-2.374,0.445c-2.083,1-4.106,1.988-6.069,2.961
		c-1.965,0.975-4.097,1.774-6.398,2.404c-1.279,0.551-2.389,0.807-3.33,0.768c-0.706-0.028-1.053-0.193-1.04-0.5
		c0.012-0.3,0.298-0.623,0.865-0.964c0.32-0.23,0.784-0.485,1.385-0.765c0.599-0.279,1.219-0.557,1.858-0.834
		s1.241-0.572,1.803-0.885c0.562-0.311,1.005-0.58,1.33-0.811c0.729-0.578,1.109-1.23,1.139-1.958
		c0.035-0.849-0.303-1.743-1.009-2.683c-0.708-0.94-1.69-1.438-2.943-1.488c-1.099-0.045-2.324,0.209-3.682,0.762
		c-1.358,0.553-2.643,1.258-3.855,2.117c-0.487,0.345-0.935,0.708-1.358,1.079c-2.031,0.979-4.01,1.943-5.929,2.894
		c-1.965,0.975-4.096,1.775-6.398,2.404c-1.28,0.551-2.39,0.807-3.329,0.77c-0.708-0.029-1.055-0.193-1.042-0.5
		c0.012-0.301,0.299-0.625,0.864-0.965c0.323-0.23,0.786-0.485,1.387-0.765c0.601-0.28,1.22-0.558,1.859-0.835
		c0.638-0.276,1.24-0.571,1.803-0.884c0.561-0.311,1.005-0.581,1.327-0.812c0.731-0.578,1.112-1.229,1.142-1.957
		c0.034-0.848-0.304-1.742-1.01-2.682c-0.71-0.941-1.689-1.438-2.943-1.488c-1.1-0.045-2.325,0.209-3.683,0.76
		c-1.36,0.553-2.641,1.258-3.854,2.119c-1.213,0.859-2.234,1.804-3.061,2.83c-0.406,0.505-0.715,0.995-0.931,1.472
		c-6.696,1.539-13.386,3.097-20.089,4.621c-4.228,0.962-8.532,1.601-13.005,1.074c-1.474-0.175-2.956-0.425-4.371-0.793
		c-2.014-0.524-3.244-1.675-3.764-3.257c-0.658-2.01-0.526-3.99,0.575-5.836c0.771-1.293,1.805-2.49,2.78-3.703
		c4.623-5.745,9.972-11.051,16.128-15.871c4.095-3.207,8.158-6.439,12.24-9.657c3.313-2.609,6.788-5.08,10.444-7.411
		c2.323-1.48,4.517-3.085,6.683-4.698c0.973-0.724,1.786-1.582,2.587-2.429c0.907-0.963,0.642-1.894-0.607-2.545
		c-1.609-0.834-3.065-0.522-3.853,0.824c-0.026,0.042-0.053,0.083-0.073,0.125c-0.6,1.121-1.616,1.957-2.899,2.643
		c-0.809,0.43-1.607,0.891-2.303,1.421c-2.515,1.911-5.019,3.832-7.463,5.794c-6.328,5.075-12.65,10.153-18.921,15.271
		c-4.361,3.56-8.501,7.27-12.196,11.265c-2.991,3.237-5.573,6.626-7.085,10.47c-0.614,1.563-1.056,3.133-0.684,4.782
		C1160.553,664.44,1162.523,666.157,1165.388,667.272z M1232.921,658.911c0.408-0.404,0.871-0.791,1.398-1.162
		c0.526-0.37,1.07-0.678,1.631-0.928c0.558-0.248,1.033-0.363,1.427-0.348c0.708,0.029,1.046,0.344,1.021,0.944
		c-0.015,0.361-0.227,0.729-0.635,1.104c-0.409,0.376-0.894,0.717-1.453,1.023c-0.565,0.311-1.162,0.556-1.798,0.74
		c-0.639,0.187-1.15,0.27-1.542,0.254c-0.47-0.02-0.696-0.238-0.679-0.66C1232.302,659.641,1232.509,659.319,1232.921,658.911z
		 M1211.754,658.049c0.408-0.403,0.876-0.792,1.402-1.161c0.524-0.371,1.066-0.68,1.63-0.928c0.556-0.248,1.033-0.365,1.427-0.35
		c0.705,0.029,1.046,0.344,1.021,0.945c-0.015,0.361-0.227,0.73-0.634,1.104c-0.41,0.377-0.895,0.718-1.456,1.023
		c-0.562,0.311-1.162,0.557-1.796,0.742c-0.639,0.186-1.151,0.268-1.542,0.252c-0.471-0.019-0.698-0.238-0.681-0.658
		C1211.136,658.778,1211.344,658.456,1211.754,658.049z"/>
	<path fill="#FFFFFF" d="M1251.722,670.413c-0.305,0.102-0.615,0.225-0.966,0.572c-0.084,0.07-0.177,0.193-0.266,0.361
		c-0.091,0.122-0.163,0.371-0.219,0.608c-0.047,0.225-0.04,0.493-0.033,0.726c0.031,0.189,0.069,0.377,0.111,0.559l0.136,0.365
		c0.044,0.109,0.128,0.258,0.194,0.378c0.145,0.247,0.266,0.398,0.407,0.558c0.272,0.316,0.555,0.525,0.836,0.732
		c0.561,0.396,1.128,0.629,1.684,0.781c0.559,0.135,1.099,0.205,1.626,0.158c0.53-0.043,1.001-0.194,1.446-0.371
		c0.443-0.178,0.848-0.385,1.2-0.612c0.349-0.231,0.656-0.462,0.877-0.788c0.102-0.172,0.191-0.348,0.224-0.549
		c0.047-0.184,0.018-0.365,0.012-0.486c-0.056-0.225-0.087-0.342-0.087-0.342v-0.004h-0.003c0,0-0.043-0.098-0.121-0.279
		c-0.082-0.179-0.239-0.407-0.441-0.646c-0.425-0.457-1.083-0.951-1.919-1.358c-0.417-0.21-0.878-0.382-1.378-0.49
		c-0.5-0.119-1.04-0.14-1.589-0.13C1252.9,670.177,1252.327,670.218,1251.722,670.413z"/>
</g>
</svg>
