<?xml version="1.0" encoding="iso-8859-1"?>
<!-- Generator: Adobe Illustrator 19.0.0, SVG Export Plug-In . SVG Version: 6.00 Build 0)  -->
<svg version="1.1" id="Capa_1" xmlns="http://www.w3.org/2000/svg" xmlns:xlink="http://www.w3.org/1999/xlink" x="0px" y="0px"
	 viewBox="0 0 512 512" style="enable-background:new 0 0 512 512;" xml:space="preserve">
<path style="fill:#EAEAEA;" d="M391.07,427.027h-92.429c-11.185,0-20.252-9.067-20.252-20.252c0-11.185,9.067-20.252,20.252-20.252
	h92.429c21.247,0,38.533-17.286,38.533-38.534c0-21.247-17.286-38.533-38.533-38.533h-60.672c-11.185,0-20.252-9.067-20.252-20.252
	c0-11.185,9.067-20.252,20.252-20.252h60.672c43.581,0,79.037,35.456,79.037,79.037C470.107,391.571,434.651,427.027,391.07,427.027
	z"/>
<path style="opacity:0.12;enable-background:new    ;" d="M391.07,427.027h-92.429c-11.185,0-20.252-9.067-20.252-20.252
	c0-11.185,9.067-20.252,20.252-20.252h92.429c21.247,0,38.533-17.286,38.533-38.534c0-21.247-17.286-38.533-38.533-38.533h-60.672
	c-11.185,0-20.252-9.067-20.252-20.252c0-11.185,9.067-20.252,20.252-20.252h60.672c43.581,0,79.037,35.456,79.037,79.037
	C470.107,391.571,434.651,427.027,391.07,427.027z"/>
<path style="opacity:0.12;enable-background:new    ;" d="M330.398,268.952c-11.185,0-20.252,9.067-20.252,20.252
	c0,11.185,9.067,20.252,20.252,20.252h59.552v-40.504L330.398,268.952L330.398,268.952z M278.389,406.775
	c0,11.185,9.067,20.252,20.252,20.252h52.271c10.318-12.107,18.9-25.735,25.366-40.504h-77.637
	C287.456,386.523,278.389,395.591,278.389,406.775z"/>
<path style="fill:#EAEAEA;" d="M369.086,320.979c0,90.545-73.558,163.909-164.175,163.595
	c-90.416-0.313-163.018-74.954-163.018-165.371V252.13c0-6.426,5.21-11.636,11.636-11.636H357.45c6.426,0,11.636,5.21,11.636,11.636
	L369.086,320.979L369.086,320.979z"/>
<path style="opacity:0.12;enable-background:new    ;" d="M357.449,240.494h-20.143c6.426,0,11.636,5.21,11.636,11.636v68.849
	c0,86.967-67.863,158.071-153.519,163.278c3.14,0.193,6.301,0.306,9.488,0.318c90.617,0.314,164.175-73.051,164.175-163.595v-68.85
	C369.086,245.704,363.876,240.494,357.449,240.494z"/>
<path style="fill:#FFABCA;" d="M332.17,504.5H78.808c-5.844,0-10.582-4.738-10.582-10.582v-8.771
	c0-5.844,4.738-10.582,10.582-10.582H332.17c5.844,0,10.582,4.738,10.582,10.582v8.771C342.753,499.762,338.015,504.5,332.17,504.5z
	"/>
<path style="opacity:0.12;enable-background:new    ;" d="M332.17,474.565h-19.222c5.844,0,10.582,4.738,10.582,10.582v8.771
	c0,5.844-4.738,10.582-10.582,10.582h19.222c5.844,0,10.582-4.738,10.582-10.582v-8.771
	C342.753,479.302,338.015,474.565,332.17,474.565z"/>
<g>
	<path style="fill:#FFABCA;" d="M107.635,356.537h-17.36c-4.142,0-7.5-3.358-7.5-7.5s3.358-7.5,7.5-7.5h17.36
		c4.142,0,7.5,3.358,7.5,7.5S111.777,356.537,107.635,356.537z"/>
	<path style="fill:#FFABCA;" d="M320.704,356.537h-17.36c-4.142,0-7.5-3.358-7.5-7.5s3.358-7.5,7.5-7.5h17.36
		c4.142,0,7.5,3.358,7.5,7.5C328.204,353.179,324.846,356.537,320.704,356.537z"/>
</g>
<path d="M98.955,323.509c4.142,0,7.5-3.358,7.5-7.5v-7.798c0-4.142-3.358-7.5-7.5-7.5s-7.5,3.358-7.5,7.5v7.798
	C91.455,320.151,94.813,323.509,98.955,323.509z M103.377,177.978c0,5.163-2.011,10.016-5.661,13.667
	c-2.929,2.929-2.929,7.678,0,10.607c1.464,1.464,3.384,2.197,5.303,2.197c1.92,0,3.839-0.733,5.303-2.197
	c6.484-6.484,10.055-15.104,10.055-24.273c0-9.169-3.571-17.79-10.055-24.274c-3.65-3.651-5.661-8.504-5.661-13.668
	c0-5.163,2.011-10.016,5.661-13.667c2.929-2.929,2.929-7.678,0-10.606c-2.929-2.929-7.678-2.929-10.607,0
	c-6.484,6.484-10.055,15.104-10.055,24.273c0,9.17,3.571,17.79,10.055,24.274C101.367,167.961,103.377,172.815,103.377,177.978z
	 M322.28,149.213c0,5.163-2.011,10.017-5.661,13.667c-6.484,6.484-10.055,15.105-10.055,24.274s3.571,17.789,10.055,24.273
	c1.464,1.464,3.384,2.197,5.303,2.197s3.839-0.732,5.303-2.197c2.929-2.929,2.929-7.678,0-10.606
	c-3.65-3.651-5.661-8.504-5.661-13.667c0-5.163,2.011-10.017,5.661-13.668c6.484-6.484,10.055-15.104,10.055-24.274
	c0-9.169-3.571-17.79-10.055-24.273c-2.929-2.929-7.678-2.929-10.606,0c-2.929,2.929-2.929,7.678,0,10.606
	C320.27,139.197,322.28,144.05,322.28,149.213z M194.585,167.198c13.14,13.14,22.807,31.575,14.783,43.141
	c-2.361,3.403-1.516,8.076,1.887,10.437c1.304,0.905,2.793,1.338,4.268,1.338c2.376,0,4.712-1.126,6.169-3.226
	c13.846-19.957-0.236-46.032-16.501-62.297l-63.096-63.096c-17.998-17.998-18.233-47.149-0.523-64.983
	c8.632-8.692,20.131-13.491,32.379-13.512h0.081c12.217,0,23.702,4.756,32.343,13.398c2.929,2.929,7.678,2.929,10.606,0
	C225.624,19.756,237.106,15,249.325,15h0.082c12.248,0.022,23.747,4.82,32.379,13.513c17.71,17.833,17.476,46.984-0.523,64.982
	l-50.458,50.458c-2.929,2.929-2.929,7.678,0,10.607s7.678,2.929,10.606,0l50.458-50.458c23.827-23.827,24.079-62.478,0.56-86.159
	C280.966,6.4,265.696,0.028,249.433,0h-0.108c-13.836,0-26.964,4.594-37.646,13.063C200.997,4.593,187.871,0,174.033,0h-0.108
	c-16.264,0.028-31.533,6.4-42.996,17.943c-23.518,23.682-23.267,62.333,0.56,86.159L194.585,167.198z M465.82,304.419
	c-2.092-3.576-6.685-4.778-10.261-2.688c-3.575,2.091-4.779,6.685-2.688,10.261c6.369,10.889,9.736,23.337,9.736,35.998
	c0,39.446-32.091,71.538-71.537,71.538h-45.708c5.735-8.124,10.712-16.652,14.902-25.504h30.806
	c25.383,0,46.033-20.651,46.033-46.034s-20.65-46.034-46.033-46.034h-14.485v-25.504h14.485c15.932,0,31.018,5.147,43.629,14.883
	c1.365,1.054,2.978,1.564,4.578,1.564c2.244,0,4.464-1.003,5.942-2.917c2.531-3.279,1.926-7.989-1.353-10.52
	c-15.26-11.782-33.517-18.01-52.796-18.01h-14.485v-9.323c0-10.551-8.584-19.136-19.136-19.136H53.529
	c-10.552,0-19.136,8.585-19.136,19.136v67.073c0,38.88,12.57,75.661,36.351,106.367c2.536,3.275,7.246,3.873,10.522,1.337
	c3.275-2.536,3.874-7.247,1.337-10.522c-21.726-28.053-33.21-61.658-33.21-97.183V252.13c0-2.28,1.855-4.136,4.136-4.136h303.92
	c2.281,0,4.136,1.855,4.136,4.136v68.849c0,21.644-4.389,42.681-12.843,62.127c-0.128,0.25-0.241,0.509-0.341,0.775
	c-4.214,9.549-9.405,18.713-15.551,27.366c-18.149,25.555-43.137,44.823-72.308,55.818h-109.75
	c-16.66-6.326-32.047-15.446-45.744-27.136c-3.15-2.69-7.885-2.315-10.574,0.836c-2.688,3.15-2.314,7.885,0.837,10.574
	c6.835,5.833,14.056,11.081,21.617,15.726h-38.12c-9.971,0-18.082,8.111-18.082,18.082v8.771c0,9.971,8.111,18.082,18.082,18.082
	H332.17c9.971,0,18.082-8.111,18.082-18.082v-8.771c0-9.971-8.111-18.082-18.082-18.082h-37.558
	c14.468-8.824,27.546-19.76,38.863-32.538h57.595c47.717,0,86.537-38.821,86.537-86.538
	C477.607,332.67,473.531,317.603,465.82,304.419z M376.585,320.979v-4.022h14.485c17.112,0,31.033,13.922,31.033,31.034
	s-13.921,31.034-31.033,31.034h-24.566C373.155,360.582,376.585,341.016,376.585,320.979z M332.17,482.065
	c1.699,0,3.082,1.383,3.082,3.082v8.771c0,1.699-1.383,3.082-3.082,3.082H78.808c-1.699,0-3.082-1.383-3.082-3.082v-8.771
	c0-1.699,1.383-3.082,3.082-3.082h70.554c0.015,0,0.03,0.002,0.045,0.002c0.009,0,0.017-0.002,0.026-0.002h112.49
	c0.009,0,0.017,0.002,0.026,0.002c0.015,0,0.03-0.002,0.045-0.002H332.17z M319.523,316.009v-7.798c0-4.142-3.358-7.5-7.5-7.5
	s-7.5,3.358-7.5,7.5v7.798c0,4.142,3.358,7.5,7.5,7.5S319.523,320.151,319.523,316.009z M205.489,342.378
	c3.99,3.58,9.26,5.76,15.031,5.76c12.424,0,22.531-10.107,22.531-22.531c0-4.142-3.358-7.5-7.5-7.5s-7.5,3.358-7.5,7.5
	c0,4.153-3.378,7.531-7.531,7.531c-4.152,0-7.531-3.378-7.531-7.531c0-4.142-3.358-7.5-7.5-7.5s-7.5,3.358-7.5,7.5
	c0,4.153-3.379,7.531-7.531,7.531c-4.153,0-7.531-3.378-7.531-7.531c0-4.142-3.358-7.5-7.5-7.5s-7.5,3.358-7.5,7.5
	c0,12.424,10.107,22.531,22.531,22.531C196.229,348.139,201.499,345.958,205.489,342.378z"/>
<g>
</g>
<g>
</g>
<g>
</g>
<g>
</g>
<g>
</g>
<g>
</g>
<g>
</g>
<g>
</g>
<g>
</g>
<g>
</g>
<g>
</g>
<g>
</g>
<g>
</g>
<g>
</g>
<g>
</g>
</svg>
