<?xml version="1.0" encoding="iso-8859-1"?>
<!-- Generator: Adobe Illustrator 19.0.0, SVG Export Plug-In . SVG Version: 6.00 Build 0)  -->
<svg version="1.1" id="Capa_1" xmlns="http://www.w3.org/2000/svg" xmlns:xlink="http://www.w3.org/1999/xlink" x="0px" y="0px"
	 viewBox="0 0 512 512" style="enable-background:new 0 0 512 512;" xml:space="preserve">
<path style="fill:#EAEAEA;" d="M478.949,163.076c9.88-3.596,20.805,1.498,24.401,11.378s-1.498,20.805-11.379,24.401l-29.22,10.635
	c9.88-3.596,20.805,1.498,24.401,11.379c3.596,9.88-1.498,20.805-11.379,24.401l-31.313,11.397
	c9.88-3.596,20.805,1.498,24.401,11.379c3.596,9.88-1.498,20.805-11.378,24.401l-51.843,18.869
	c-29.641,10.788-62.416-4.495-73.205-34.136c-10.788-29.641,4.495-62.416,34.137-73.205L478.949,163.076z"/>
<path style="opacity:0.12;enable-background:new    ;" d="M427.533,181.789l-60.961,22.188
	c-29.641,10.788-44.925,43.564-34.137,73.205c10.788,29.641,43.564,44.925,73.205,34.136l13.191-4.801
	C447.258,270.273,450.214,220.433,427.533,181.789z"/>
<path id="SVGCleanerId_0" style="fill:#EAEAEA;" d="M118.323,143.153H71.255c-5.639,0-11.046-2.24-15.033-6.227L8.949,89.653
	c-3.104-3.104-0.906-8.41,3.483-8.41h43.982L118.323,143.153z"/>
<g>
	<path id="SVGCleanerId_0_1_" style="fill:#EAEAEA;" d="M118.323,143.153H71.255c-5.639,0-11.046-2.24-15.033-6.227L8.949,89.653
		c-3.104-3.104-0.906-8.41,3.483-8.41h43.982L118.323,143.153z"/>
</g>
<polygon style="opacity:0.12;enable-background:new    ;" points="100.354,143.153 38.444,81.243 56.413,81.243 118.323,143.153 "/>
<g>
	<path style="fill:#EAEAEA;" d="M118.323,143.153V96.084c0-5.638-2.24-11.046-6.227-15.033L64.824,33.778
		c-3.103-3.103-8.41-0.905-8.41,3.484v43.982L118.323,143.153z"/>
	<path style="fill:#EAEAEA;" d="M118.323,143.153V96.084c0-5.638-2.24-11.046-6.283-15.089L64.768,33.722
		c-3.048-3.047-8.354-0.849-8.354,3.539v43.982L118.323,143.153z"/>
</g>
<polygon style="opacity:0.12;enable-background:new    ;" points="118.323,125.183 56.413,63.273 56.413,81.243 118.323,143.153 "/>
<path style="fill:#947165;" d="M392.676,425.005c-1.919,0-3.839-0.732-5.304-2.196L51.11,86.547c-2.929-2.93-2.929-7.678,0-10.607
	c2.93-2.928,7.678-2.928,10.607,0L397.98,412.202c2.929,2.93,2.929,7.678,0,10.607C396.515,424.272,394.595,425.005,392.676,425.005
	z"/>
<path style="fill:#ED6EA4;" d="M386.503,411.332c0-18.912,15.363-34.236,34.291-34.17c18.885,0.065,34.05,15.655,34.05,34.541
	v57.268c0,5.91-4.791,10.701-10.701,10.701h-57.268c-18.885,0-34.476-15.164-34.541-34.05
	C352.267,426.695,367.591,411.332,386.503,411.332z"/>
<path style="opacity:0.12;enable-background:new    ;" d="M386.874,479.672h57.268c5.491,0,10.014-4.137,10.628-9.463
	c-1.848,1.52-4.214,2.432-6.793,2.432h-57.268c-18.885,0-34.476-15.164-34.541-34.05c-0.016-4.54,0.856-8.874,2.448-12.841
	c-3.979,5.607-6.309,12.467-6.283,19.872C352.398,464.508,367.988,479.672,386.874,479.672z"/>
<path style="fill:#EAEAEA;" d="M50.66,163.076c-9.88-3.596-20.805,1.498-24.401,11.378s1.498,20.805,11.378,24.401l29.22,10.635
	c-9.88-3.596-20.805,1.498-24.401,11.379c-3.596,9.88,1.498,20.805,11.379,24.401l31.313,11.397
	c-9.88-3.596-20.805,1.498-24.401,11.379c-3.596,9.88,1.498,20.805,11.378,24.401l51.843,18.869
	c29.641,10.788,62.416-4.495,73.205-34.136c10.788-29.641-4.495-62.416-34.137-73.205L50.66,163.076z"/>
<path style="opacity:0.12;enable-background:new    ;" d="M163.036,203.978l-60.96-22.187
	c-22.68,38.643-19.725,88.482,8.699,124.727l13.192,4.801c29.641,10.788,62.416-4.495,73.205-34.136
	C207.961,247.541,192.678,214.766,163.036,203.978z"/>
<path style="fill:#ED6EA4;" d="M264.805,170.164c-37.49-37.49-98.323-37.41-135.713,0.24
	c-37.308,37.567-36.463,98.533,0.974,135.969L243.59,419.898c11.716,11.716,30.712,11.716,42.429,0l113.525-113.525
	c37.437-37.437,38.282-98.404,0.974-135.969C363.127,132.753,302.294,132.673,264.805,170.164z"/>
<path style="opacity:0.12;enable-background:new    ;" d="M400.518,170.404c-14.629-14.73-32.847-23.708-51.85-26.937
	c11.021,4.708,21.34,11.571,30.309,20.602c37.308,37.567,36.463,98.533-0.974,135.969L264.478,413.563
	c-5.113,5.113-11.612,7.993-18.287,8.644c11.776,9.342,28.942,8.577,39.828-2.309l113.525-113.525
	C436.98,268.936,437.825,207.97,400.518,170.404z"/>
<g>
	<path style="fill:#FFFFFF;" d="M194.69,269.517h-12.438c-4.143,0-7.5-3.357-7.5-7.5s3.357-7.5,7.5-7.5h12.438
		c4.143,0,7.5,3.357,7.5,7.5C202.19,266.158,198.832,269.517,194.69,269.517z"/>
	<path style="fill:#FFFFFF;" d="M347.359,269.517H334.92c-4.143,0-7.5-3.357-7.5-7.5s3.357-7.5,7.5-7.5h12.439
		c4.143,0,7.5,3.357,7.5,7.5C354.859,266.158,351.501,269.517,347.359,269.517z"/>
</g>
<path d="M187.592,238.35c0-0.484,0.394-0.878,0.878-0.878c0.483,0,0.877,0.394,0.877,0.878c0,4.143,3.357,7.5,7.5,7.5
	c4.143,0,7.5-3.357,7.5-7.5c0-8.755-7.122-15.878-15.877-15.878s-15.878,7.123-15.878,15.878c0,4.143,3.357,7.5,7.5,7.5
	C184.235,245.85,187.592,242.493,187.592,238.35z M341.139,245.85c4.143,0,7.5-3.357,7.5-7.5v-5.588c0-4.143-3.357-7.5-7.5-7.5
	s-7.5,3.357-7.5,7.5v5.588C333.639,242.493,336.996,245.85,341.139,245.85z M264.805,259.977c3.022,2.213,6.746,3.521,10.77,3.521
	c10.074,0,18.271-8.196,18.271-18.271c0-4.143-3.357-7.5-7.5-7.5s-7.5,3.357-7.5,7.5c0,1.804-1.467,3.271-3.271,3.271
	c-1.803,0-3.27-1.467-3.27-3.271c0-4.143-3.357-7.5-7.5-7.5s-7.5,3.357-7.5,7.5c0,1.804-1.467,3.271-3.27,3.271
	c-1.803,0-3.27-1.467-3.27-3.271c0-4.143-3.357-7.5-7.5-7.5s-7.5,3.357-7.5,7.5c0,10.074,8.195,18.271,18.27,18.271
	C258.058,263.498,261.782,262.19,264.805,259.977z M510.398,171.888c-5.005-13.751-20.262-20.865-34.016-15.86l-59.842,21.781
	c-3.172-4.447-6.735-8.696-10.702-12.691c-19.492-19.628-45.46-30.464-73.118-30.511c-0.063,0-0.12-0.001-0.183-0.001
	c-25.159,0-48.942,8.933-67.733,25.303c-18.793-16.372-42.572-25.302-67.732-25.302h-0.184c-21.152,0.037-41.313,6.39-58.348,18.154
	l-12.716-12.716V96.084c0-7.683-2.992-14.904-8.424-20.335l-9.713-9.714c-2.929-2.929-7.678-2.93-10.606-0.001
	c-2.93,2.929-2.93,7.678-0.001,10.606l9.714,9.715c2.599,2.599,4.03,6.054,4.03,9.729v28.961L63.913,78.135V43.474l15.29,15.291
	c2.93,2.928,7.678,2.928,10.607,0c2.929-2.93,2.929-7.678,0-10.607L70.128,28.474c-3.567-3.566-8.882-4.622-13.543-2.693
	c-4.66,1.931-7.671,6.437-7.671,11.48v36.482H12.433c-5.044,0-9.551,3.011-11.48,7.671c-1.931,4.66-0.873,9.976,2.693,13.543
	l47.274,47.273c5.433,5.432,12.655,8.423,20.336,8.423h43.962l11.563,11.563c-1.018,0.947-2.024,1.911-3.009,2.903
	c-3.967,3.995-7.53,8.243-10.701,12.69l-59.842-21.781c-6.66-2.424-13.866-2.108-20.293,0.886
	c-6.424,2.996-11.297,8.314-13.722,14.975c-5.005,13.75,2.109,29.01,15.86,34.017l6.748,2.456c-2.828,2.751-5.022,6.127-6.412,9.944
	c-5.004,13.751,2.111,29.009,15.861,34.015l8.842,3.218c-2.829,2.751-5.022,6.128-6.412,9.944
	c-5.005,13.75,2.109,29.01,15.86,34.017l51.843,18.868c4.325,1.575,8.804,2.677,13.35,3.301l30.154,30.153
	c2.93,2.928,7.678,2.928,10.607,0c2.929-2.93,2.929-7.678-0.001-10.607L135.37,301.07c-34.713-34.712-35.142-90.957-0.956-125.38
	c2.23-2.246,4.566-4.346,6.985-6.318c0.651-0.343,1.262-0.787,1.81-1.335c0.099-0.099,0.186-0.205,0.278-0.308
	c15.274-11.713,33.851-18.088,53.428-18.122h0.157c23.583,0,45.751,9.181,62.43,25.86c2.93,2.928,7.678,2.928,10.607,0
	c16.68-16.681,38.846-25.86,62.43-25.86h0.157c23.641,0.04,45.838,9.303,62.501,26.081c34.186,34.423,33.756,90.668-0.957,125.381
	l-58.999,59l0,0l0,0l-54.524,54.525c-8.774,8.772-23.049,8.772-31.821,0l-51.601-51.601c-2.93-2.928-7.678-2.928-10.607,0
	c-2.929,2.93-2.929,7.678,0,10.607l51.601,51.601c7.312,7.31,16.913,10.966,26.518,10.966c9.602,0,19.207-3.656,26.518-10.966
	l49.221-49.222l30.72,30.72c-5.29,2.076-10.145,5.239-14.278,9.387c-7.876,7.903-12.191,18.401-12.153,29.561
	c0.079,22.896,18.938,41.523,42.042,41.523h57.268c10.036,0,18.201-8.165,18.201-18.201V445c0-4.143-3.357-7.5-7.5-7.5
	s-7.5,3.357-7.5,7.5v23.969c0,1.765-1.437,3.201-3.201,3.201h-57.268c-14.859,0-26.99-11.922-27.041-26.575
	c-0.024-7.143,2.737-13.861,7.778-18.919c5.041-5.059,11.75-7.845,18.892-7.845c0.247,0,0.494-0.013,0.74-0.037
	c0.115-0.011,0.226-0.033,0.339-0.049c0.129-0.019,0.257-0.034,0.385-0.059c0.13-0.026,0.257-0.061,0.385-0.094
	c0.109-0.028,0.218-0.051,0.326-0.084c0.125-0.038,0.247-0.085,0.369-0.129c0.108-0.039,0.217-0.074,0.324-0.118
	c0.115-0.048,0.226-0.103,0.338-0.157c0.109-0.052,0.22-0.1,0.327-0.158c0.107-0.057,0.208-0.122,0.312-0.184
	c0.107-0.064,0.215-0.124,0.319-0.194c0.111-0.074,0.214-0.156,0.321-0.236c0.09-0.067,0.182-0.13,0.27-0.202
	c0.162-0.133,0.316-0.275,0.466-0.421c0.027-0.026,0.056-0.048,0.083-0.075c0.028-0.028,0.052-0.059,0.079-0.088
	c0.144-0.148,0.285-0.3,0.416-0.46c0.077-0.094,0.144-0.192,0.216-0.289c0.074-0.1,0.152-0.197,0.221-0.301
	c0.074-0.111,0.139-0.226,0.207-0.34c0.057-0.096,0.118-0.19,0.171-0.289c0.062-0.115,0.114-0.233,0.169-0.351
	c0.049-0.104,0.101-0.207,0.146-0.314c0.048-0.115,0.086-0.232,0.128-0.349c0.041-0.114,0.085-0.227,0.12-0.343
	c0.036-0.118,0.062-0.238,0.092-0.358c0.029-0.118,0.063-0.234,0.086-0.353c0.028-0.141,0.045-0.283,0.065-0.425
	c0.014-0.1,0.033-0.199,0.043-0.3c0.025-0.248,0.038-0.497,0.038-0.746c0.001-7.14,2.787-13.848,7.845-18.888
	c5.035-5.019,11.717-7.778,18.824-7.778h0.095c14.653,0.051,26.575,12.182,26.575,27.041v4.298c0,4.143,3.357,7.5,7.5,7.5
	s7.5-3.357,7.5-7.5v-4.298c0-23.102-18.627-41.963-41.523-42.042c-11.124-0.059-21.657,4.277-29.561,12.153
	c-4.147,4.133-7.311,8.988-9.387,14.278l-30.72-30.72l43.705-43.706c4.544-0.624,9.024-1.726,13.351-3.301l51.843-18.868
	c13.751-5.006,20.865-20.266,15.86-34.017c-1.39-3.816-3.583-7.193-6.412-9.944l8.842-3.218c6.66-2.424,11.978-7.298,14.975-13.722
	c2.996-6.425,3.311-13.631,0.886-20.291c-1.39-3.818-3.583-7.194-6.412-9.945l6.748-2.456
	C508.286,200.899,515.403,185.639,510.398,171.888z M71.255,135.652c-3.675,0-7.131-1.432-9.729-4.03l-42.88-42.88h34.661
	l46.91,46.91H71.255z M114.635,299.94l-39.945-14.538c-5.979-2.176-9.072-8.81-6.896-14.789c1.054-2.896,3.173-5.208,5.966-6.511
	c2.792-1.304,5.925-1.439,8.821-0.385c3.892,1.413,8.196-0.592,9.613-4.483c1.417-3.893-0.59-8.196-4.482-9.613
	c-0.014-0.005-0.026-0.01-0.04-0.015L56.4,238.223c-5.979-2.176-9.072-8.81-6.896-14.787c1.054-2.896,3.173-5.209,5.967-6.512
	c2.793-1.304,5.925-1.439,8.821-0.385c3.896,1.414,8.196-0.592,9.613-4.482c1.417-3.893-0.59-8.196-4.482-9.613l-29.22-10.635
	c-5.979-2.176-9.072-8.811-6.896-14.789c1.054-2.896,3.173-5.208,5.966-6.511c2.792-1.303,5.926-1.439,8.822-0.385l57.057,20.767
	C87.681,225.391,90.882,267.929,114.635,299.94z M489.406,191.808l-29.22,10.635c-3.893,1.417-5.899,5.721-4.482,9.613
	c1.416,3.891,5.715,5.897,9.613,4.482c2.897-1.055,6.029-0.919,8.822,0.385c2.793,1.303,4.912,3.615,5.966,6.512
	c1.055,2.896,0.918,6.028-0.385,8.821s-3.614,4.912-6.511,5.966l-31.286,11.388c-0.009,0.003-0.018,0.007-0.027,0.01
	c-3.893,1.417-5.899,5.721-4.482,9.613c1.416,3.893,5.72,5.895,9.613,4.483l0.02-0.007c2.89-1.048,6.017-0.909,8.803,0.392
	c2.793,1.303,4.912,3.614,5.966,6.511c2.177,5.979-0.917,12.613-6.896,14.789l-39.946,14.538
	c23.753-32.012,26.955-74.549,9.484-109.05l57.057-20.767c2.896-1.055,6.027-0.919,8.822,0.385c2.793,1.303,4.912,3.615,5.966,6.51
	C498.478,182.998,495.384,189.633,489.406,191.808z"/>
<g>
</g>
<g>
</g>
<g>
</g>
<g>
</g>
<g>
</g>
<g>
</g>
<g>
</g>
<g>
</g>
<g>
</g>
<g>
</g>
<g>
</g>
<g>
</g>
<g>
</g>
<g>
</g>
<g>
</g>
</svg>
