<?xml version="1.0" encoding="utf-8"?>
<!-- Generator: Adobe Illustrator 16.2.0, SVG Export Plug-In . SVG Version: 6.00 Build 0)  -->
<!DOCTYPE svg PUBLIC "-//W3C//DTD SVG 1.1//EN" "http://www.w3.org/Graphics/SVG/1.1/DTD/svg11.dtd">
<svg version="1.1" id="Layer_1" xmlns="http://www.w3.org/2000/svg" xmlns:xlink="http://www.w3.org/1999/xlink" x="0px" y="0px"
	 width="2100px" height="1350px" viewBox="0 0 2100 1350" enable-background="new 0 0 2100 1350" xml:space="preserve">
<rect display="none" width="2100" height="1350"/>
<g>
	<polygon fill="none" points="1095.132,694.768 1095.022,694.768 1094.919,695.297 1093.906,698.064 1096.249,698.064 
		1095.236,695.297 	"/>
	<path fill="none" d="M1110.336,671.792c-1.987,0.787-4.824,4.871-4.761,6.97c0.007,0.227,0.714,0.692,0.944,0.611
		c2.452-0.846,4.453-2.301,5.83-4.556c0.492-0.804,0.193-1.254-0.493-1.733c-0.476-0.331-0.829-0.833-1.231-1.266
		C1110.525,671.804,1110.415,671.76,1110.336,671.792z"/>
	<polygon fill="none" points="1126.93,671.991 1126.933,671.985 1126.928,671.986 	"/>
	<path fill="none" d="M1125.466,672.309c-1.221,1.455-2.405,2.958-3.42,4.56c-0.433,0.68-0.418,1.644-0.675,2.785
		c2.952-0.678,4.9-2.108,6.458-4.094c1.114-1.419,1.007-1.708-0.464-2.718c-0.23-0.158-0.295-0.56-0.436-0.852
		c0,0.001,0,0.001,0,0.001C1126.427,672.085,1125.719,672.007,1125.466,672.309z"/>
	<path fill="none" d="M933.796,675.662c4.287-0.489,7.197-4.225,6.453-8.446C936.854,668.793,933.282,673.518,933.796,675.662z"/>
	<path fill="none" d="M872.282,668.053c-0.345-0.13-0.829-0.128-1.172,0.01c-3.979,1.6-7.21,4.046-8.922,8.133
		c-0.156,0.376-0.146,0.821-0.213,1.235c0.129,0.114,0.258,0.229,0.389,0.342c4.787-1.994,8.902-5.054,13.164-8.292
		C874.185,668.88,873.253,668.416,872.282,668.053z"/>
	<path fill="none" d="M838.639,672.963c-8.156,0.79-16.313,1.574-24.462,2.438c-0.581,0.061-1.256,0.633-1.613,1.155
		c-1.197,1.752-2.249,3.601-3.4,5.385c-0.668,1.035-2.006,1.043-3.645,0.132c-1.186-0.659-0.522-1.442-0.154-2.179
		c0.502-1.009,1.057-1.992,1.588-2.985c-0.107-0.15-0.214-0.301-0.32-0.452c-2.496,0.728-5.063,1.275-7.47,2.227
		c-2.854,1.131-5.387,2.814-6.654,5.846c-1.067,2.554-0.121,4.621,2.622,4.862c2.636,0.231,5.377,0.228,7.973-0.231
		c11.426-2.02,22.052-6.236,31.969-12.239c1.835-1.111,3.61-2.32,5.412-3.484c-0.064-0.161-0.131-0.321-0.197-0.48
		C839.737,672.957,839.183,672.91,838.639,672.963z"/>
	<path fill="none" d="M1039.949,667.096c-0.34-0.126-0.826-0.084-1.171,0.06c-3.839,1.59-7.044,3.91-8.735,7.88
		c-0.195,0.46-0.238,0.986-0.352,1.482c0.126,0.102,0.252,0.203,0.379,0.303c4.827-1.948,8.954-5.01,13.142-8.293
		C1041.93,667.954,1040.959,667.471,1039.949,667.096z"/>
	<path fill="none" d="M1266.899,694.705l-0.094-0.1h-2.497v2.344h1.543c0.885,0,1.328-0.426,1.328-1.278
		c0-0.222-0.031-0.421-0.094-0.597C1267.024,694.897,1266.962,694.775,1266.899,694.705z"/>
	<path fill="none" d="M1192.611,695.184l-0.027-0.203c-0.017-0.012-0.043-0.024-0.077-0.041c-0.034-0.018-0.113-0.047-0.236-0.089
		c-0.122-0.042-0.255-0.079-0.397-0.112c-0.142-0.032-0.331-0.063-0.568-0.091c-0.236-0.026-0.484-0.042-0.74-0.042h-1.49v5.002
		h1.49c0.43,0,0.773-0.033,1.031-0.104c0.258-0.069,0.473-0.2,0.644-0.393c0.173-0.191,0.29-0.445,0.354-0.76
		c0.063-0.315,0.097-0.73,0.097-1.247c0-0.443-0.01-0.841-0.026-1.194S1192.628,695.314,1192.611,695.184z"/>
	<path fill="none" d="M1254.336,695.131l-0.024-0.203c-0.019-0.014-0.043-0.03-0.076-0.051c-0.032-0.021-0.107-0.061-0.224-0.115
		c-0.115-0.055-0.238-0.104-0.368-0.147s-0.298-0.082-0.504-0.117c-0.206-0.034-0.418-0.052-0.637-0.052
		c-0.512,0-0.919,0.082-1.22,0.244s-0.527,0.438-0.678,0.826c-0.15,0.387-0.226,0.918-0.226,1.589c0,0.458,0.008,0.868,0.025,1.231
		c0.017,0.363,0.035,0.611,0.052,0.747l0.026,0.202c0.018,0.014,0.042,0.031,0.075,0.053c0.033,0.02,0.107,0.059,0.224,0.113
		c0.116,0.057,0.238,0.104,0.368,0.146c0.13,0.041,0.298,0.08,0.504,0.113c0.206,0.035,0.418,0.053,0.637,0.053
		c0.384,0,0.705-0.044,0.965-0.133c0.26-0.088,0.479-0.234,0.658-0.441c0.178-0.205,0.307-0.479,0.387-0.818
		c0.079-0.338,0.119-0.762,0.119-1.267c0-0.457-0.009-0.866-0.025-1.229C1254.377,695.514,1254.358,695.266,1254.336,695.131z"/>
	<path fill="none" d="M1291.92,695.25c-0.026-0.117-0.058-0.214-0.094-0.287c-0.036-0.076-0.072-0.141-0.109-0.198
		c-0.035-0.057-0.066-0.099-0.091-0.122l-0.041-0.037h-2.498v2.234h1.543c0.886,0,1.329-0.406,1.329-1.221
		C1291.959,695.49,1291.946,695.368,1291.92,695.25z"/>
	<path fill="none" d="M1175.07,669.246c-2.221,0.776-3.313,3.069-2.762,5.417c0.504,2.149,2.742,3.784,4.895,3.61
		c5.092-0.412,7.885-3.954,10.872-7.814c-1.151-0.441-1.931-0.786-2.739-1.042C1181.936,668.349,1178.492,668.051,1175.07,669.246z"
		/>
	<path fill="none" d="M1170.787,695.354c0-0.155-0.031-0.297-0.094-0.421c-0.062-0.125-0.123-0.211-0.188-0.26l-0.092-0.068h-2.447
		v1.704h1.808C1170.449,696.31,1170.787,695.991,1170.787,695.354z"/>
	<path fill="none" d="M1170.975,697.964c-0.035-0.06-0.07-0.112-0.106-0.155c-0.037-0.044-0.067-0.074-0.091-0.092l-0.042-0.025
		h-2.769v1.916h2.021c0.37,0,0.649-0.091,0.837-0.271c0.187-0.183,0.28-0.447,0.28-0.793c0-0.117-0.014-0.229-0.039-0.332
		C1171.039,698.106,1171.009,698.024,1170.975,697.964z"/>
	<path fill="none" d="M1110.625,671.818c0.003,0,0.006,0.002,0.009,0.002c0.012-0.019,0.026-0.033,0.038-0.052
		c-0.027,0.004-0.055,0.006-0.083,0.009C1110.601,671.792,1110.612,671.805,1110.625,671.818z"/>
	<path fill="none" d="M985.84,682.438c-5.939,2.934-11.863,5.909-17.016,10.148c-1.028,0.846-1.988,1.919-2.61,3.084
		c-0.921,1.722-0.924,3.647,0.138,5.354c1.025,1.648,2.715,1.426,4.367,1.271c5.338-0.496,10.217-2.362,14.85-4.943
		c10.297-5.738,18.637-13.824,26.623-22.323c0.226-0.241,0.372-0.556,0.73-1.104c-0.639,0.046-0.939,0.037-1.229,0.093
		C1002.725,675.744,994.051,678.38,985.84,682.438z"/>
	<path d="M1160.849,670.507c-1.623,0.556-3.19,1.278-4.788,1.911c-0.463,0.183-0.944,0.315-1.774,0.588
		c1.356-2.015,2.511-3.602,3.522-5.276c0.852-1.409,0.516-2.218-0.982-2.846c-1.736-0.728-3.469-0.726-5.113,0.222
		c-2.015,1.162-3.992,2.388-5.979,3.596c-0.877,0.534-1.74,1.094-2.607,1.642c-0.084-0.101-0.166-0.201-0.25-0.301
		c0.342-0.533,0.674-1.07,1.027-1.595c0.394-0.587,0.855-1.134,1.19-1.752c0.191-0.355,0.39-0.92,0.238-1.211
		c-0.665-1.277-3.478-1.419-4.374-0.257c-1.02,1.321-1.92,2.744-3.028,3.983c-0.63,0.706-1.505,1.453-2.38,1.628
		c-2.216,0.441-4.495,0.563-6.747,0.829c-0.627,0.075-1.247,0.209-1.871,0.317c-0.001,0.001-0.001,0.004-0.003,0.005
		c0.141,0.292,0.205,0.694,0.436,0.852c1.471,1.01,1.578,1.298,0.464,2.718c-1.558,1.985-3.506,3.416-6.458,4.094
		c0.257-1.142,0.242-2.105,0.675-2.785c1.015-1.603,2.199-3.105,3.42-4.56c0.253-0.302,0.961-0.224,1.464-0.317c0,0,0,0,0-0.001
		s0-0.003-0.002-0.005c0.002,0,0.004,0,0.005,0c0.179-0.397,0.255-1.011,0.553-1.152c1.265-0.595,2.579-1.098,3.908-1.535
		c0.862-0.282,1.784-0.389,2.997-0.642c-1.32-1.373-2.6-1.688-3.977-1.592c-2.912,0.205-5.637,0.996-8.07,2.697
		c-0.643,0.448-1.415,0.866-2.171,0.965c-3.159,0.415-6.333,0.706-9.501,1.041c-0.012,0.019-0.026,0.033-0.038,0.052
		c-0.003,0-0.006-0.002-0.009-0.002c0.402,0.433,0.756,0.935,1.231,1.266c0.687,0.479,0.985,0.929,0.493,1.733
		c-1.377,2.255-3.378,3.71-5.83,4.556c-0.23,0.081-0.938-0.385-0.944-0.611c-0.063-2.1,2.773-6.183,4.761-6.97
		c0.079-0.032,0.189,0.013,0.289,0.027c-0.013-0.014-0.024-0.027-0.036-0.041c0.028-0.003,0.056-0.005,0.083-0.009
		c1.072-1.646,2.853-2.014,4.572-2.459c0.944-0.246,1.912-0.398,2.984-0.617c-0.963-1.234-2.136-1.735-3.742-1.628
		c-3.037,0.202-5.854,1.055-8.345,2.882c-3.183,2.334-6.392,4.632-9.598,6.935c-0.33,0.238-0.714,0.4-1.073,0.597
		c0.135-0.882,0.505-1.521,0.885-2.153c0.779-1.299,1.631-2.56,2.332-3.899c1.355-2.583,0.717-3.783-2.156-4.36
		c-2.215-0.444-4.063,0.428-5.879,1.5c-0.729,0.431-1.475,0.836-2.212,1.253c0.171-0.876,0.521-1.484,0.935-2.045
		c3.874-5.252,7.776-10.483,11.633-15.749c2.539-3.469,5.031-6.973,7.509-10.486c0.972-1.376,0.768-1.847-0.854-2.35
		c-1.806-0.559-2.324-0.384-3.671,1.457c-6.96,9.514-13.901,19.041-20.866,28.551c-0.376,0.512-0.842,1.029-1.383,1.34
		c-2.453,1.41-4.941,2.758-7.428,4.108c-3.152,1.712-6.235,3.581-9.498,5.047c-2.34,1.05-3.444-0.055-3.203-2.656
		c0.114-1.233,0.923-1.564,1.934-1.757c2.971-0.568,5.609-1.766,7.479-4.244c1.543-2.047,1.072-3.447-1.3-4.442
		c-2.904-1.219-5.394-0.479-7.767,1.37c-2.702,2.107-5.377,4.274-8.245,6.136c-2.832,1.838-5.878,3.352-8.858,4.953
		c-0.515,0.275-1.173,0.283-2.061,0.48c1.34-5.743,5.199-9.521,8.284-13.73c-2.417-1.833-3.505-1.76-5.438,0.255
		c-0.141,0.146-0.295,0.281-0.42,0.439c-0.572,0.731-1.052,0.88-1.814,0.094c-1.326-1.368-3.015-1.943-4.953-1.872
		c-4.094,0.151-7.125,2.294-9.854,5.075c-0.41,0.418-0.924,0.991-1.422,1.023c-1.834,0.123-3.681,0.049-5.916,0.049
		c0.631-0.95,0.97-1.496,1.345-2.016c3.82-5.305,7.225-10.854,9.598-16.967c2.542-6.544,4.399-13.217,2.92-20.347
		c-0.507-2.446-1.503-4.649-3.74-5.979c-2.856-1.697-5.968-2.571-9.3-2.056c-11.965,1.848-23.11,5.881-33.102,12.808
		c-6.534,4.529-12.982,9.189-18.352,15.135c-2.652,2.938-5.075,6.053-6.394,9.86c-1.539,4.443,0.102,7.712,4.555,8.822
		c1.545,0.384,3.22,0.562,4.8,0.422c4.579-0.404,8.852-2.02,13.064-3.762c0.405-0.168,0.682-0.646,1.019-0.982
		c-0.424-0.315-0.854-0.907-1.271-0.896c-1.48,0.038-3.005,0.101-4.424,0.48c-3.749,1.004-7.432,2.254-11.183,3.249
		c-1.531,0.406-2.479-0.35-2.643-1.918c-0.111-1.085-0.072-2.243,0.189-3.297c0.809-3.263,2.664-5.991,4.812-8.501
		c7.501-8.764,16.703-15.442,26.646-21.083c7.946-4.508,16.646-7.032,25.659-8.439c2.197-0.343,3.171,0.164,4.224,2.099
		c0.382,0.704,0.745,1.451,0.929,2.222c1.197,4.992,0.6,9.908-0.697,14.793c-2.539,9.556-7.658,17.746-13.547,25.514
		c-0.457,0.602-1.324,1.087-2.078,1.236c-3.669,0.725-7.387,1.211-11.047,1.975c-9.793,2.044-18.939,5.849-27.6,10.758
		c-4.162,2.359-8.285,4.937-11.95,7.986c-4.273,3.557-3.072,8.983,2.082,11.148c2.974,1.25,6.075,1.365,9.245,1.008
		c6.67-0.756,12.523-3.639,18.043-7.166c9.633-6.156,17.68-14.141,25.282-22.597c0.459-0.51,1.048-1.211,1.62-1.255
		c1.996-0.155,4.013-0.061,6.085-0.061c-0.015,0.343,0.009,0.644-0.049,0.929c-0.522,2.599,0.271,3.847,2.853,4.539
		c2.271,0.609,4.41,0.178,6.491-0.764c1.085-0.492,2.159-1.01,3.375-1.578c0.067,0.466,0.129,0.699,0.13,0.932
		c0.014,2.358,0.406,3.104,2.631,3.797c1.268,0.396,2.752,0.711,3.996,0.431c2.183-0.49,4.305-1.354,6.355-2.274
		c1.73-0.775,3.324-1.853,5.193-2.92c0.363,2.748,1.794,4.409,4.205,5.248c2.74,0.955,5.49,1.035,8.145-0.145
		c2.027-0.9,3.943-2.051,5.904-3.098c0.68-0.362,1.346-0.748,2.019-1.121c0.079,0.094,0.157,0.188,0.235,0.281
		c-1.353,2.098-2.705,4.193-4.039,6.262c1.757,1.766,3.56,2.021,4.656,0.691c3.998-4.85,8.866-8.711,13.959-12.317
		c0.348-0.247,0.738-0.432,1.109-0.646c-0.185,0.976-0.643,1.721-1.086,2.476c-0.918,1.566-1.9,3.101-2.723,4.716
		c-0.729,1.432-0.441,2.073,1.02,2.748c1.935,0.896,3.878,1.094,5.807-0.057c1.584-0.945,3.182-1.868,4.424-2.596
		c1.093,0.887,1.869,1.764,2.84,2.262c4.727,2.421,11.856-0.651,13.485-5.712c0.175-0.545,0.53-1.032,0.804-1.545
		c0.17,0.087,0.34,0.173,0.51,0.26c-0.184,0.494-0.376,0.986-0.551,1.483c-1.273,3.631-0.393,4.883,2.689,5.924
		c4.884,1.648,11.068-1.502,12.576-6.417c0.24-0.781,0.425-1.467,1.577-0.991c-0.206,0.462-0.38,0.867-0.565,1.267
		c-0.686,1.482-0.428,2.088,0.986,2.742c1.748,0.81,3.313,0.57,4.847-0.527c3.046-2.179,6.115-4.326,9.183-6.475
		c0.503-0.352,1.049-0.643,1.573-0.963c-0.617,1.474-1.493,2.647-2.198,3.915c-0.779,1.399-0.471,2.067,0.967,2.742
		c1.937,0.909,3.813,0.698,5.712-0.147c3.092-1.38,6.208-2.707,9.306-4.073c0.332-0.147,0.611-0.414,1.051-0.719
		C1163.998,670.257,1162.484,669.947,1160.849,670.507z M1012.191,675.028c-7.986,8.499-16.326,16.585-26.623,22.323
		c-4.633,2.581-9.512,4.447-14.85,4.943c-1.652,0.154-3.342,0.377-4.367-1.271c-1.062-1.706-1.059-3.632-0.138-5.354
		c0.622-1.165,1.582-2.238,2.61-3.084c5.152-4.239,11.076-7.215,17.016-10.148c8.211-4.058,16.885-6.694,25.854-8.42
		c0.289-0.056,0.59-0.047,1.229-0.093C1012.563,674.472,1012.417,674.788,1012.191,675.028z M1030.07,676.82
		c-0.127-0.1-0.253-0.201-0.379-0.303c0.113-0.496,0.156-1.022,0.352-1.482c1.691-3.97,4.896-6.29,8.735-7.88
		c0.345-0.144,0.831-0.186,1.171-0.06c1.01,0.375,1.98,0.857,3.263,1.431C1039.024,671.81,1034.897,674.873,1030.07,676.82z"/>
	<path d="M972.595,641.929c0.305-0.371,0.519-1.219,0.308-1.54c-0.752-1.143-3.352-1.135-4.296-0.057
		c-7.568,8.641-15.123,17.294-22.687,25.939c-0.28,0.32-0.615,0.592-0.921,0.882c-3.428-3.509-6.901-3.665-10.529-0.489
		c-1.25,1.094-2.322,2.39-3.49,3.581c-1.117,1.141-2.098,2.507-3.41,3.348c-3.738,2.391-7.598,4.594-11.456,6.79
		c-0.576,0.327-1.403,0.21-2.114,0.298c-0.019-0.738-0.062-1.479-0.04-2.218c0.005-0.234,0.157-0.478,0.281-0.694
		c1.004-1.749,1.91-3.566,3.056-5.218c1.467-2.118,3.148-4.086,4.691-6.154c0.381-0.51,1.077-1.094,0.193-1.805
		c-1.309-1.053-3.223-0.923-4.319,0.378c-1.272,1.507-2.433,3.113-3.763,4.565c-0.367,0.401-1.229,0.665-1.758,0.541
		c-1.418-0.335-2.782-0.907-4.162-1.399c-2.393-0.852-4.546-0.585-6.476,1.195c-1.672,1.544-3.417,3.009-5.143,4.496
		c-0.35,0.301-0.749,0.544-1.207,0.874c-0.067-0.333-0.134-0.46-0.097-0.516c0.598-0.875,1.263-1.71,1.79-2.624
		c0.248-0.429,0.462-1.101,0.298-1.5c-0.365-0.881-3.052-1.244-3.872-0.657c-1.306,0.933-2.581,1.919-3.951,2.747
		c-4.063,2.456-8.157,4.864-12.269,7.239c-0.539,0.312-1.252,0.32-2.199,0.543c1.369-5.738,5.162-9.504,8.266-13.701
		c-3.057-2.958-4.924-0.282-6.812,1.517c-2.261-2.274-3.635-2.81-6.579-2.589c-2.456,0.183-4.752,1.071-6.436,2.765
		c-1.998,2.012-4.223,2.482-6.844,2.18c-0.9-0.104-1.82-0.015-2.73-0.046c-0.784-0.028-1.564-0.103-2.813-0.188
		c1.217-1.344,2.117-2.397,3.078-3.392c3.465-3.596,6.482-7.489,8.381-12.168c1.412-3.48,1.842-7.044,0.643-10.626
		c-0.82-2.454-2.577-4.313-4.631-5.877c-4.309-3.283-9.207-5.201-14.457-6.358c-4.947-1.09-9.963-0.939-14.971-0.887
		c-9.514,0.1-18.709,1.911-27.494,5.552c-5.317,2.204-10.313,4.996-13.987,9.62c-1.611,2.027-2.64,4.277-2.331,6.992
		c0.34,2.965,2.834,5.006,5.413,4.247c-0.038-0.228-0.021-0.497-0.13-0.694c-1.732-3.107-1.203-6.075,1.033-8.555
		c6.394-7.086,14.099-12.125,23.579-14.039c8.043-1.622,16.205-1.706,24.353-1.234c5.555,0.321,10.762,2.007,15.133,5.601
		c5.313,4.369,6.039,8.417,3.739,14.388c-2.634,6.835-7.464,12.071-12.979,16.713c-0.539,0.455-1.347,0.757-2.056,0.818
		c-8.822,0.752-17.648,1.449-26.474,2.147c-0.456,0.036-0.922-0.047-1.63-0.089c4.559-6.953,9.977-12.794,15.396-18.627
		c-2.208-1.797-3.602-1.797-5.316-0.171c-0.88,0.835-1.785,1.664-2.548,2.602c-3.993,4.902-8.015,9.783-11.87,14.791
		c-1.349,1.753-2.784,2.787-5.035,3.153c-3.376,0.549-6.732,1.376-9.998,2.402c-3.047,0.959-5.606,2.813-7.349,5.588
		c-1.737,2.768-1.032,5.699,1.873,7.192c1.507,0.774,3.165,1.38,4.825,1.706c5.387,1.061,10.703,0.142,15.931-1.096
		c11.03-2.613,21.221-7.229,30.755-13.324c2.238-1.431,4.334-3.398,6.787-4.093c2.534-0.719,5.422-0.189,8.156-0.203
		c0.723-0.004,1.448-0.001,2.343-0.001c-0.29,0.678-0.439,1.05-0.606,1.414c-1.369,2.964-0.433,4.87,2.732,5.617
		c2.576,0.609,4.898-0.146,7.168-1.256c0.787-0.384,1.588-0.746,2.445-1.148c0.351,3.823,0.898,4.531,4.221,5.154
		c2.533,0.477,4.92-0.131,7.162-1.344c2.076-1.123,4.145-2.264,6.205-3.391c1.513,2.129,3.658,2.994,5.958,2.242
		c1.132-0.371,2.259-0.955,3.197-1.688c2.789-2.177,5.462-4.502,8.228-6.711c0.602-0.479,1.447-1.082,2.09-0.99
		c1.458,0.209,2.859,0.815,4.441,1.309c-0.657,1.067-1.201,1.854-1.643,2.694c-0.469,0.892-0.912,1.808-1.24,2.757
		c-0.938,2.7-0.076,4.434,2.588,5.368c2.499,0.877,5.035,0.84,7.4-0.242c2.703-1.236,5.356-2.635,7.865-4.225
		c1.555-0.986,2.752-1.578,4.63-0.605c1.296,0.671,3.012,0.531,4.812,0.793c-2.066,3.088-4.073,6.084-6.11,9.125
		c2.305,2.175,3.628,2.152,5.185-0.139c9.546-14.049,20.071-27.31,31.716-39.682C969.41,645.733,971.021,643.843,972.595,641.929z
		 M835.071,676.921c-9.917,6.003-20.543,10.22-31.969,12.239c-2.596,0.459-5.337,0.463-7.973,0.231
		c-2.743-0.241-3.689-2.309-2.622-4.862c1.268-3.031,3.8-4.715,6.654-5.846c2.407-0.951,4.974-1.499,7.47-2.227
		c0.106,0.151,0.213,0.302,0.32,0.452c-0.531,0.993-1.086,1.977-1.588,2.985c-0.368,0.736-1.031,1.52,0.154,2.179
		c1.639,0.911,2.977,0.903,3.645-0.132c1.151-1.784,2.203-3.633,3.4-5.385c0.357-0.521,1.032-1.094,1.613-1.155
		c8.148-0.865,16.306-1.648,24.462-2.438c0.544-0.053,1.099-0.007,1.647-0.007c0.066,0.159,0.133,0.32,0.197,0.48
		C838.682,674.601,836.906,675.81,835.071,676.921z M862.364,677.773c-0.131-0.113-0.26-0.228-0.389-0.342
		c0.067-0.414,0.057-0.859,0.213-1.235c1.712-4.087,4.943-6.534,8.922-8.133c0.343-0.138,0.827-0.14,1.172-0.01
		c0.971,0.363,1.902,0.827,3.246,1.429C871.267,672.719,867.151,675.78,862.364,677.773z M933.796,675.662
		c-0.514-2.144,3.059-6.869,6.453-8.446C940.993,671.437,938.083,675.173,933.796,675.662z"/>
	<path d="M1295.076,664.461c-1.973,1.025-3.866,2.205-5.817,3.275c-3.407,1.871-6.753,3.881-10.277,5.504
		c-2.3,1.06-3.354,0.004-3.17-2.563c0.093-1.293,0.891-1.685,1.98-1.883c2.985-0.538,5.603-1.77,7.457-4.26
		c1.501-2.012,1.093-3.372-1.204-4.358c-3.074-1.321-5.99-0.62-8.68,2.069c-0.565,0.566-1.092,1.226-1.769,1.616
		c-3.021,1.737-6.082,3.41-9.146,5.074c-2.707,1.47-5.362,3.073-8.181,4.29c-2.429,1.047-3.575-0.089-3.235-2.739
		c0.172-1.33,1.136-1.491,2.152-1.721c3.311-0.749,6.223-2.087,7.872-5.324c0.572-1.124,0.271-1.995-0.685-2.606
		c-1.96-1.251-4.063-1.806-6.344-0.891c-2.936,1.178-4.813,3.448-6.235,6.148c-0.423,0.801-0.815,1.084-1.763,0.724
		c-2.019-0.77-2.426-0.541-3.185,1.426c-1.707,4.43-4.681,7.604-9.128,9.382c-6.379,2.549-12.909,1.982-19.449,0.971
		c-7.467-1.156-14.374-4.056-21.254-7.016c-0.479-0.207-0.918-0.505-1.472-0.814c0.561-0.849,0.984-1.533,1.448-2.188
		c6.336-8.958,12.653-17.928,19.051-26.84c0.659-0.919,1.713-1.667,2.739-2.19c4.899-2.505,9.958-4.718,14.742-7.423
		c2.272-1.285,4.288-3.235,6.003-5.242c2.021-2.366,1.14-4.924-1.814-5.974c-2.647-0.94-5.418-1.179-7.938,0.29
		c-2.257,1.313-4.661,2.627-6.421,4.488c-3.217,3.404-6.043,7.181-8.951,10.867c-0.965,1.224-1.947,2.252-3.48,2.768
		c-7.234,2.429-14.45,4.913-21.668,7.389c-0.566,0.194-1.104,0.475-1.885,0.816c1.751,1.563,3.43,1.63,5.203,1.08
		c3.041-0.944,6.078-1.903,9.105-2.886c2.428-0.788,4.84-1.623,7.258-2.437c-0.082,0.813-0.365,1.325-0.697,1.799
		c-4.937,7.038-9.873,14.075-14.825,21.102c-2.101,2.982-2.112,2.954-5.678,1.866c-4.305-1.316-8.663-2.086-13.152-1.023
		c-2.321,0.55-4.082,1.766-4.665,4.232c-0.521,2.205,0.38,3.974,1.869,5.478c3.811,3.847,12.695,4.841,16.854,1.162
		c1.659-1.469,3.237-3.049,4.712-4.706c0.743-0.834,1.313-0.971,2.326-0.539c8.617,3.678,17.338,7.035,26.734,8.191
		c5.094,0.628,10.177,0.925,15.234-0.248c5.401-1.253,9.895-3.795,12.56-8.913c0.081-0.156,0.28-0.25,0.191-0.175
		c1.082,1.023,1.951,2.18,3.103,2.861c2.305,1.365,5.005,1.863,7.467,0.922c3.279-1.252,6.35-3.055,9.491-4.657
		c0.954-0.488,1.849-1.096,2.896-1.723c0.123,3.485,1.414,5.194,4.49,6.166c3.038,0.961,6.057,0.8,8.826-0.747
		c4.592-2.564,9.09-5.295,13.616-7.972c0.416-0.246,0.758-0.618,1.23-1.01C1298.07,663.938,1296.665,663.636,1295.076,664.461z
		 M1221.433,631.529c2.871-3.502,6.003-6.72,10.201-8.636c0.712-0.325,1.603-0.26,2.411-0.374c-0.146,0.837-0.18,1.716-0.474,2.497
		c-0.241,0.638-0.725,1.225-1.218,1.716c-3.715,3.694-8.308,5.991-12.94,8.216c-0.116-0.118-0.23-0.235-0.346-0.354
		C1219.854,633.571,1220.615,632.526,1221.433,631.529z M1177.203,678.273c-2.152,0.174-4.391-1.461-4.895-3.61
		c-0.551-2.349,0.541-4.641,2.762-5.417c3.422-1.194,6.865-0.897,10.266,0.172c0.809,0.255,1.588,0.601,2.739,1.042
		C1185.088,674.32,1182.295,677.861,1177.203,678.273z"/>
	<path d="M922.566,659.419c-0.23,0.297-0.279,1.017-0.078,1.314c0.623,0.919,3.155,1.238,3.88,0.418
		c2.055-2.33,3.991-4.764,5.949-7.125c-1.553-1.574-3.646-2.046-4.498-1.063C926.003,655.059,924.269,657.229,922.566,659.419z"/>
	<polygon points="1012.711,700.989 1014.201,700.989 1014.201,697.8 1017.389,697.8 1017.389,696.414 1014.201,696.414 
		1014.201,694.605 1017.815,694.605 1017.815,693.225 1012.711,693.225 	"/>
	<path d="M1029.73,697.587c0,0.786-0.151,1.346-0.452,1.679c-0.302,0.332-0.79,0.498-1.466,0.498c-0.266,0-0.516-0.031-0.747-0.091
		c-0.231-0.061-0.414-0.128-0.546-0.203c-0.131-0.073-0.25-0.159-0.357-0.257c-0.107-0.097-0.174-0.164-0.2-0.202
		s-0.046-0.069-0.06-0.094v-5.692h-1.49v4.362c0,2.376,1.133,3.563,3.4,3.563c1.125,0,1.975-0.297,2.548-0.889
		s0.86-1.483,0.86-2.675v-4.362h-1.49V697.587z"/>
	<polygon points="1039.832,693.225 1038.341,693.225 1038.341,700.989 1042.916,700.989 1042.916,699.607 1039.832,699.607 	"/>
	<polygon points="1050.997,693.225 1049.507,693.225 1049.507,700.989 1054.082,700.989 1054.082,699.607 1050.997,699.607 	"/>
	<rect x="1059.717" y="697" width="2.873" height="1.434"/>
	<path d="M1073.961,697.322c-0.165-0.159-0.354-0.299-0.566-0.42s-0.437-0.223-0.67-0.302s-0.469-0.153-0.704-0.221
		s-0.459-0.136-0.672-0.202c-0.214-0.068-0.402-0.141-0.566-0.219c-0.165-0.078-0.296-0.176-0.392-0.296
		c-0.098-0.119-0.146-0.259-0.146-0.417c0-0.535,0.425-0.801,1.276-0.801c0.258,0,0.522,0.018,0.799,0.052
		c0.274,0.035,0.506,0.073,0.695,0.117c0.188,0.044,0.375,0.093,0.559,0.147c0.183,0.055,0.304,0.094,0.363,0.115
		c0.059,0.021,0.104,0.037,0.135,0.051v-1.387l-0.099-0.051c-0.065-0.032-0.171-0.07-0.313-0.117
		c-0.145-0.047-0.311-0.094-0.499-0.141c-0.189-0.047-0.429-0.086-0.722-0.119s-0.599-0.049-0.918-0.049
		c-0.955,0-1.664,0.191-2.126,0.573s-0.693,0.919-0.693,1.608c0,0.307,0.049,0.584,0.146,0.827c0.098,0.244,0.228,0.446,0.392,0.604
		c0.165,0.16,0.354,0.301,0.566,0.422s0.437,0.222,0.67,0.301c0.233,0.08,0.468,0.153,0.704,0.221
		c0.234,0.068,0.459,0.136,0.672,0.202c0.213,0.067,0.402,0.141,0.566,0.218c0.164,0.079,0.295,0.178,0.393,0.297
		c0.096,0.119,0.145,0.26,0.145,0.418c0,0.336-0.113,0.588-0.34,0.756s-0.608,0.252-1.145,0.252c-0.277,0-0.564-0.025-0.862-0.076
		c-0.299-0.049-0.55-0.105-0.756-0.166c-0.206-0.06-0.408-0.13-0.607-0.209c-0.199-0.08-0.331-0.136-0.396-0.168
		c-0.063-0.029-0.113-0.055-0.147-0.071v1.49l0.108,0.063c0.072,0.038,0.189,0.087,0.349,0.146s0.343,0.117,0.55,0.174
		c0.209,0.057,0.471,0.105,0.785,0.145c0.314,0.04,0.64,0.061,0.977,0.061c2.018,0,3.027-0.798,3.027-2.395
		c0-0.308-0.049-0.584-0.145-0.828C1074.256,697.684,1074.125,697.481,1073.961,697.322z"/>
	<polygon points="1080.295,694.605 1082.527,694.605 1082.527,700.989 1084.019,700.989 1084.019,694.605 1086.252,694.605 
		1086.252,693.225 1080.295,693.225 	"/>
	<path d="M1094.332,693.225l-3.085,7.765h1.595l0.587-1.595h3.298l0.582,1.595h1.65l-3.084-7.765H1094.332z M1093.906,698.064
		l1.013-2.768l0.104-0.529h0.109l0.104,0.529l1.013,2.768H1093.906z"/>
	<path d="M1110.074,693.373c-0.131-0.047-0.283-0.094-0.457-0.141c-0.173-0.047-0.395-0.086-0.664-0.119
		c-0.271-0.033-0.555-0.049-0.852-0.049c-1.14,0-2,0.326-2.581,0.98c-0.583,0.654-0.873,1.675-0.873,3.06
		c0,1.386,0.29,2.405,0.873,3.062c0.581,0.656,1.441,0.984,2.581,0.984c0.317,0,0.618-0.023,0.898-0.07s0.501-0.098,0.664-0.153
		c0.162-0.055,0.311-0.12,0.443-0.192c0.135-0.072,0.219-0.123,0.256-0.152c0.036-0.03,0.063-0.054,0.08-0.07v-1.382l-0.088,0.062
		c-0.057,0.046-0.146,0.1-0.273,0.162s-0.272,0.125-0.438,0.187c-0.167,0.063-0.378,0.116-0.634,0.159s-0.523,0.064-0.8,0.064
		c-0.239,0-0.469-0.021-0.69-0.063c-0.223-0.042-0.399-0.088-0.535-0.141c-0.135-0.052-0.262-0.11-0.382-0.176
		c-0.119-0.066-0.196-0.112-0.231-0.138c-0.034-0.026-0.061-0.048-0.077-0.065l-0.026-0.197c-0.018-0.135-0.035-0.375-0.053-0.723
		c-0.017-0.346-0.024-0.731-0.024-1.157c0-0.551,0.03-0.996,0.093-1.337c0.063-0.342,0.172-0.611,0.33-0.811
		s0.351-0.334,0.578-0.405c0.229-0.071,0.533-0.106,0.91-0.106c0.238,0,0.484,0.018,0.736,0.052
		c0.253,0.035,0.466,0.073,0.639,0.117c0.174,0.044,0.345,0.093,0.513,0.147c0.167,0.055,0.278,0.094,0.331,0.115
		c0.055,0.021,0.096,0.037,0.123,0.051v-1.387l-0.088-0.051C1110.299,693.458,1110.207,693.42,1110.074,693.373z"/>
	<polygon points="1123.682,693.225 1121.927,693.225 1119.533,696.31 1118.789,696.31 1118.789,693.225 1117.299,693.225 
		1117.299,700.989 1118.789,700.989 1118.789,697.691 1119.59,697.691 1122.035,700.989 1123.895,700.989 1120.81,696.896 	"/>
	<polygon points="1145.053,698.33 1145.001,698.859 1144.897,698.859 1144.84,698.33 1143.246,693.225 1141.916,693.225 
		1140.321,698.33 1140.27,698.859 1140.16,698.859 1140.108,698.33 1138.727,693.225 1137.127,693.225 1137.127,693.328 
		1139.418,700.989 1140.799,700.989 1142.445,695.775 1142.504,695.246 1142.607,695.246 1142.658,695.775 1144.311,700.989 
		1145.691,700.989 1147.977,693.328 1147.977,693.225 1146.435,693.225 	"/>
	<polygon points="1154.355,700.989 1159.57,700.989 1159.57,699.607 1155.846,699.607 1155.846,697.691 1159.144,697.691 
		1159.144,696.31 1155.846,696.31 1155.846,694.605 1159.57,694.605 1159.57,693.225 1154.355,693.225 	"/>
	<path d="M1172.332,697.793c-0.088-0.123-0.193-0.234-0.316-0.336c-0.123-0.1-0.234-0.176-0.335-0.229
		c-0.101-0.052-0.205-0.098-0.313-0.137c-0.109-0.041-0.185-0.064-0.225-0.072c-0.039-0.01-0.07-0.016-0.091-0.02v-0.051
		l0.067-0.016c0.049-0.012,0.111-0.031,0.188-0.063c0.076-0.03,0.159-0.071,0.25-0.122c0.09-0.049,0.179-0.119,0.27-0.209
		c0.09-0.091,0.173-0.191,0.249-0.305s0.138-0.254,0.185-0.426c0.047-0.171,0.07-0.359,0.07-0.563c0-0.606-0.221-1.096-0.66-1.466
		s-1.071-0.556-1.896-0.556h-3.298v7.765h3.511c0.853,0,1.509-0.196,1.968-0.59c0.461-0.394,0.691-0.906,0.691-1.54
		c0-0.217-0.03-0.42-0.09-0.605C1172.494,698.069,1172.421,697.916,1172.332,697.793z M1167.967,694.605h2.447l0.092,0.068
		c0.064,0.049,0.126,0.135,0.188,0.26c0.063,0.124,0.094,0.266,0.094,0.421c0,0.637-0.338,0.955-1.013,0.955h-1.808V694.605z
		 M1170.824,699.336c-0.188,0.181-0.467,0.271-0.837,0.271h-2.021v-1.916h2.769l0.042,0.025c0.023,0.018,0.054,0.048,0.091,0.092
		c0.036,0.043,0.071,0.096,0.106,0.155c0.034,0.061,0.064,0.143,0.091,0.247c0.025,0.104,0.039,0.215,0.039,0.332
		C1171.104,698.889,1171.011,699.153,1170.824,699.336z"/>
	<path d="M1190.352,693.225h-2.768v7.765h2.768c1.33,0,2.309-0.315,2.938-0.944c0.629-0.631,0.941-1.611,0.941-2.94
		s-0.313-2.31-0.941-2.937C1192.66,693.539,1191.682,693.225,1190.352,693.225z M1192.593,698.352
		c-0.063,0.314-0.181,0.568-0.354,0.76c-0.171,0.192-0.386,0.323-0.644,0.393c-0.258,0.07-0.602,0.104-1.031,0.104h-1.49v-5.002
		h1.49c0.256,0,0.504,0.016,0.74,0.042c0.237,0.028,0.427,0.059,0.568,0.091c0.143,0.033,0.275,0.07,0.397,0.112
		c0.123,0.042,0.202,0.071,0.236,0.089c0.034,0.017,0.061,0.029,0.077,0.041l0.027,0.203c0.017,0.131,0.035,0.373,0.052,0.727
		s0.026,0.751,0.026,1.194C1192.689,697.621,1192.656,698.036,1192.593,698.352z"/>
	<polygon points="1201.087,700.989 1206.301,700.989 1206.301,699.607 1202.577,699.607 1202.577,697.691 1205.875,697.691 
		1205.875,696.31 1202.577,696.31 1202.577,694.605 1206.301,694.605 1206.301,693.225 1201.087,693.225 	"/>
	<polygon points="1216.241,698.756 1216.137,699.285 1216.027,699.285 1215.924,698.756 1213.955,693.225 1212.355,693.225 
		1212.355,693.328 1215.285,700.989 1216.828,700.989 1219.752,693.328 1219.752,693.225 1218.209,693.225 	"/>
	<polygon points="1226.131,700.989 1231.345,700.989 1231.345,699.607 1227.621,699.607 1227.621,697.691 1230.918,697.691 
		1230.918,696.31 1227.621,696.31 1227.621,694.605 1231.345,694.605 1231.345,693.225 1226.131,693.225 	"/>
	<polygon points="1239.742,693.225 1238.252,693.225 1238.252,700.989 1242.827,700.989 1242.827,699.607 1239.742,699.607 	"/>
	<path d="M1252.399,693.064c-1.19,0-2.083,0.326-2.674,0.979c-0.593,0.652-0.889,1.674-0.889,3.062c0,1.392,0.297,2.414,0.891,3.067
		c0.594,0.652,1.484,0.979,2.672,0.979s2.079-0.326,2.672-0.979c0.595-0.653,0.891-1.676,0.891-3.067
		c0-1.388-0.296-2.409-0.888-3.062S1253.591,693.064,1252.399,693.064z M1254.301,698.371c-0.08,0.34-0.209,0.613-0.387,0.818
		c-0.179,0.207-0.398,0.354-0.658,0.441c-0.26,0.089-0.581,0.133-0.965,0.133c-0.219,0-0.431-0.018-0.637-0.053
		c-0.206-0.033-0.374-0.072-0.504-0.113c-0.13-0.042-0.252-0.09-0.368-0.146c-0.116-0.055-0.19-0.094-0.224-0.113
		c-0.033-0.021-0.058-0.039-0.075-0.053l-0.026-0.202c-0.017-0.136-0.035-0.384-0.052-0.747c-0.018-0.363-0.025-0.773-0.025-1.231
		c0-0.671,0.075-1.202,0.226-1.589c0.15-0.389,0.377-0.664,0.678-0.826s0.708-0.244,1.22-0.244c0.219,0,0.431,0.018,0.637,0.052
		c0.206,0.035,0.374,0.073,0.504,0.117s0.253,0.093,0.368,0.147c0.116,0.055,0.191,0.094,0.224,0.115
		c0.033,0.021,0.058,0.037,0.076,0.051l0.024,0.203c0.022,0.135,0.041,0.383,0.059,0.744c0.017,0.363,0.025,0.772,0.025,1.229
		C1254.42,697.609,1254.38,698.033,1254.301,698.371z"/>
	<path d="M1265.852,693.225h-3.033v7.765h1.49v-2.659h1.543c0.941,0,1.655-0.224,2.141-0.67c0.487-0.446,0.73-1.074,0.73-1.885
		s-0.242-1.438-0.728-1.883C1267.511,693.447,1266.796,693.225,1265.852,693.225z M1265.852,696.949h-1.543v-2.344h2.497l0.094,0.1
		c0.063,0.07,0.125,0.192,0.187,0.369c0.063,0.176,0.094,0.375,0.094,0.597C1267.18,696.523,1266.736,696.949,1265.852,696.949z"/>
	<polygon points="1275.475,700.989 1280.689,700.989 1280.689,699.607 1276.966,699.607 1276.966,697.691 1280.263,697.691 
		1280.263,696.31 1276.966,696.31 1276.966,694.605 1280.689,694.605 1280.689,693.225 1275.475,693.225 	"/>
	<path d="M1291.949,698.039c0.059-0.018,0.136-0.049,0.233-0.096c0.097-0.047,0.204-0.106,0.321-0.18
		c0.117-0.072,0.235-0.172,0.352-0.295c0.115-0.125,0.222-0.266,0.318-0.419c0.097-0.154,0.177-0.347,0.236-0.579
		c0.061-0.231,0.092-0.481,0.092-0.748c0-0.785-0.244-1.398-0.73-1.838s-1.2-0.66-2.142-0.66h-3.033v7.765h1.49v-2.763h1.277
		l1.542,2.763h1.646l-1.697-2.925L1291.949,698.039z M1290.63,696.84h-1.543v-2.234h2.498l0.041,0.037
		c0.024,0.023,0.056,0.065,0.091,0.122c0.037,0.058,0.073,0.122,0.109,0.198c0.036,0.073,0.067,0.17,0.094,0.287
		c0.026,0.118,0.039,0.24,0.039,0.369C1291.959,696.434,1291.516,696.84,1290.63,696.84z"/>
</g>
</svg>
