<?xml version="1.0" encoding="iso-8859-1"?>
<!-- Generator: Adobe Illustrator 19.0.0, SVG Export Plug-In . SVG Version: 6.00 Build 0)  -->
<svg version="1.1" id="Capa_1" xmlns="http://www.w3.org/2000/svg" xmlns:xlink="http://www.w3.org/1999/xlink" x="0px" y="0px"
	 viewBox="0 0 512 512" style="enable-background:new 0 0 512 512;" xml:space="preserve">
<g>
	<path style="fill:#ED6EA4;" d="M260.008,504.5c-66.377,0-128.781-25.849-175.716-72.784
		C37.357,384.78,11.508,322.378,11.508,256.001c0-66.223,25.891-128.586,72.903-175.598C131.424,33.391,193.786,7.5,260.009,7.5
		c48.653,0,95.774,14.062,136.27,40.664c39.455,25.919,70.605,62.279,90.083,105.149c23.753,52.279,17.224,113.972-17.041,161.001
		c-12.297,16.88-33.073,23.61-52.93,17.14c-19.857-6.466-32.687-24.139-32.687-45.022v-73.95c0-7.68,6.225-13.906,13.906-13.906
		c7.68,0,13.906,6.225,13.906,13.906v73.95c0,10.458,6.967,16.454,13.488,18.577c6.519,2.122,15.681,1.379,21.839-7.072
		c28.372-38.942,33.813-89.95,14.198-133.121c-17.3-38.078-44.975-70.378-80.032-93.408c-35.948-23.615-77.789-36.097-121-36.097
		c-58.795,0-114.173,22.998-155.932,64.757C62.317,141.827,39.32,197.206,39.32,256c0,58.947,22.956,114.367,64.638,156.05
		c41.683,41.682,97.103,64.638,156.05,64.638c58.691,0,113.938-22.784,155.565-64.154c5.448-5.415,14.252-5.387,19.666,0.06
		c5.413,5.448,5.386,14.252-0.061,19.665C388.305,478.845,326.095,504.5,260.008,504.5z"/>
	<path style="fill:#ED6EA4;" d="M259.858,148.943c-34.83-34.83-91.348-34.756-126.085,0.223
		c-34.661,34.902-33.876,91.542,0.905,126.324l105.471,105.471c10.885,10.885,28.533,10.885,39.418,0L385.038,275.49
		c34.781-34.781,35.566-91.422,0.905-126.324C351.206,114.187,294.689,114.112,259.858,148.943z"/>
</g>
<path style="opacity:0.12;enable-background:new    ;" d="M385.944,149.166c-13.591-13.685-30.516-22.027-48.172-25.026
	c10.239,4.374,19.827,10.75,28.159,19.14c34.661,34.901,33.876,91.542-0.905,126.324L259.555,375.075
	c-4.75,4.75-10.788,7.426-16.99,8.031c10.941,8.679,26.889,7.968,37.003-2.145L385.039,275.49
	C419.82,240.708,420.605,184.067,385.944,149.166z"/>
<g>
	<path style="fill:#FFFFFF;" d="M194.717,241.779H183.16c-4.142,0-7.5-3.357-7.5-7.5s3.358-7.5,7.5-7.5h11.557
		c4.142,0,7.5,3.357,7.5,7.5C202.217,238.422,198.859,241.779,194.717,241.779z"/>
	<path style="fill:#FFFFFF;" d="M336.556,241.779h-11.557c-4.142,0-7.5-3.357-7.5-7.5s3.358-7.5,7.5-7.5h11.557
		c4.142,0,7.5,3.357,7.5,7.5C344.056,238.422,340.698,241.779,336.556,241.779z"/>
</g>
<path d="M493.19,150.21c-16.147-35.54-40.644-67.413-70.84-92.176c-3.203-2.625-7.929-2.158-10.555,1.044
	c-2.626,3.203-2.159,7.929,1.044,10.556c28.431,23.313,51.493,53.321,66.696,86.781c22.637,49.822,16.401,108.634-16.274,153.482
	c-10.349,14.206-27.836,19.871-44.545,14.424c-16.711-5.441-27.509-20.313-27.509-37.89v-6.546
	c4.927-5.054,9.193-10.511,12.811-16.265v22.811c0,14.49,10.055,22.905,18.667,25.709c8.609,2.8,21.691,1.922,30.222-9.787
	c29.961-41.123,35.695-95.014,14.964-140.64c-17.887-39.37-46.499-72.765-82.742-96.574c-37.175-24.42-80.441-37.328-125.118-37.328
	c-60.798,0-118.059,23.778-161.235,66.953C55.598,137.941,31.82,195.202,31.82,256.001c0,60.951,23.736,118.254,66.835,161.353
	c43.1,43.099,100.403,66.834,161.354,66.834c60.686,0,117.811-23.558,160.852-66.334c1.209-1.202,2.812-1.863,4.516-1.863h0.02
	c1.711,0.006,3.317,0.677,4.523,1.89c2.49,2.506,2.477,6.57-0.027,9.061C384.432,472.119,324.1,497,260.008,497
	c-64.373,0-124.894-25.068-170.413-70.588S19.008,320.373,19.008,256.001c0-64.221,25.111-124.699,70.707-170.294
	C135.31,40.11,195.788,15,260.009,15c47.185,0,92.883,13.636,132.152,39.433c3.461,2.274,8.112,1.311,10.386-2.15
	c2.274-3.462,1.311-8.112-2.151-10.387C358.675,14.487,310.129,0,260.009,0C191.782,0,127.536,26.671,79.108,75.1
	c-48.429,48.429-75.1,112.674-75.1,180.901c0,68.379,26.629,132.665,74.981,181.018C127.341,485.371,191.628,512,260.008,512
	c68.082,0,132.169-26.43,180.457-74.42c8.371-8.319,8.413-21.899,0.094-30.273c-4.031-4.056-9.399-6.299-15.117-6.316h-0.067
	c-5.692,0-11.049,2.209-15.089,6.225c-40.212,39.964-93.582,61.973-150.278,61.973c-56.943,0-110.48-22.176-150.747-62.441
	C68.995,366.481,46.82,312.945,46.82,256.001c0-56.792,22.218-110.286,62.561-150.629s93.837-62.561,150.629-62.561
	c41.743,0,82.16,12.056,116.883,34.865c33.871,22.251,60.608,53.456,77.321,90.242c18.498,40.713,13.352,88.841-13.432,125.602
	c-4.773,6.552-11.506,4.99-13.456,4.357c-1.949-0.635-8.31-3.336-8.31-11.445v-73.591c0-0.077-0.009-0.151-0.011-0.227
	c0.262-24.915-8.965-49.828-27.74-68.733c-18.21-18.337-42.469-28.46-68.308-28.505c-0.058,0-0.114-0.001-0.172-0.001
	c-23.348,0-45.427,8.235-62.928,23.336c-17.501-15.102-39.578-23.336-62.927-23.336c-0.057,0-0.116,0.001-0.172,0.001
	c-25.838,0.044-50.097,10.168-68.308,28.505c-37.362,37.622-36.948,99.04,0.924,136.912l42.7,42.7c2.929,2.927,7.678,2.929,10.607,0
	c2.929-2.93,2.929-7.678,0-10.607l-42.7-42.7c-32.043-32.043-32.441-83.961-0.887-115.734c15.38-15.487,35.868-24.038,57.69-24.075
	h0.146c21.768,0,42.229,8.474,57.625,23.87c2.928,2.927,7.677,2.929,10.606,0c15.397-15.397,35.855-23.87,57.625-23.87h0.146
	c21.822,0.037,42.31,8.588,57.69,24.075c31.554,31.773,31.156,83.691-0.887,115.734L274.264,375.657
	c-7.943,7.944-20.869,7.944-28.812,0l-42.926-42.927c-2.929-2.928-7.678-2.928-10.606,0c-2.929,2.93-2.929,7.678,0,10.607
	l42.926,42.927c6.896,6.896,15.954,10.343,25.012,10.343c9.059,0,18.117-3.447,25.013-10.343l91.89-91.891
	c2.872,20.652,16.873,37.556,37.308,44.21c5.808,1.893,11.681,2.81,17.449,2.81c17.077-0.001,33.217-8.046,43.866-22.664
	C511.237,269.52,518.06,204.946,493.19,150.21z M196.439,212.292v-5.19c0-4.143-3.358-7.5-7.5-7.5s-7.5,3.357-7.5,7.5v5.19
	c0,4.143,3.358,7.5,7.5,7.5S196.439,216.435,196.439,212.292z M259.858,233.04c2.838,1.983,6.289,3.149,10.006,3.149
	c9.653,0,17.506-7.854,17.506-17.507c0-4.143-3.358-7.5-7.5-7.5s-7.5,3.357-7.5,7.5c0,1.382-1.125,2.507-2.506,2.507
	c-1.382,0-2.506-1.125-2.506-2.507c0-4.143-3.358-7.5-7.5-7.5s-7.5,3.357-7.5,7.5c0,1.382-1.124,2.507-2.506,2.507
	s-2.506-1.125-2.506-2.507c0-4.143-3.358-7.5-7.5-7.5s-7.5,3.357-7.5,7.5c0,9.653,7.854,17.507,17.506,17.507
	C253.57,236.189,257.02,235.023,259.858,233.04z M338.277,212.292v-5.19c0-4.143-3.358-7.5-7.5-7.5s-7.5,3.357-7.5,7.5v5.19
	c0,4.143,3.358,7.5,7.5,7.5S338.277,216.435,338.277,212.292z"/>
<g>
</g>
<g>
</g>
<g>
</g>
<g>
</g>
<g>
</g>
<g>
</g>
<g>
</g>
<g>
</g>
<g>
</g>
<g>
</g>
<g>
</g>
<g>
</g>
<g>
</g>
<g>
</g>
<g>
</g>
</svg>
