<?xml version="1.0" encoding="iso-8859-1"?>
<!-- Generator: Adobe Illustrator 19.0.0, SVG Export Plug-In . SVG Version: 6.00 Build 0)  -->
<svg version="1.1" id="Capa_1" xmlns="http://www.w3.org/2000/svg" xmlns:xlink="http://www.w3.org/1999/xlink" x="0px" y="0px"
	 viewBox="0 0 512 512" style="enable-background:new 0 0 512 512;" xml:space="preserve">
<path style="fill:#F4D06D;" d="M468.913,175.255H43.088c-19.655,0-35.588,15.933-35.588,35.587v245.753
	c0,19.654,15.933,35.587,35.588,35.587h425.825c19.654,0,35.588-15.933,35.588-35.587V210.843
	C504.5,191.188,488.567,175.255,468.913,175.255z"/>
<path style="fill:#83CDAB;" d="M39.176,448.434v-229.43c0-6.668,5.405-12.073,12.073-12.073h409.502
	c6.668,0,12.073,5.405,12.073,12.073v229.43c0,6.668-5.405,12.073-12.073,12.073H51.249
	C44.581,460.507,39.176,455.102,39.176,448.434z"/>
<g>
	<path style="fill:#BC90D9;" d="M460.751,206.932h-67.066v70.018l79.139-46.112v-11.834
		C472.824,212.337,467.419,206.932,460.751,206.932z"/>
	<path style="fill:#BC90D9;" d="M39.176,388.053v60.381c0,6.668,5.405,12.073,12.073,12.073h27.404l124.35-72.454H39.176z"/>
	<path style="fill:#BC90D9;" d="M393.685,430.117v30.39h67.066c6.668,0,12.073-5.405,12.073-12.073v-18.317L393.685,430.117
		L393.685,430.117z"/>
</g>
<path style="fill:#FFFFFF;" d="M472.824,270.214v-39.376l-79.139,46.112v-70.018h-34.023v33.519H221.423v-33.519H187.4v33.519
	h-70.746v-33.519H82.632v33.519H39.176v34.023h43.455v79.557H39.176v34.023h163.826l-124.35,72.454h67.58l141.915-82.689v82.689
	h34.023V357.994l37.491-21.844v124.357h34.023v-30.39h79.139v-34.023h-79.139v-79.769L472.824,270.214z M187.4,354.03h-70.746
	v-79.557H187.4V354.03z M359.662,296.773l-98.268,57.257h-39.971v-79.557h138.239V296.773z"/>
<path style="opacity:0.12;enable-background:new    ;" d="M468.912,175.255h-16.5c19.654,0,35.587,15.933,35.587,35.588v245.753
	c0,19.654-15.933,35.587-35.587,35.587h16.5c19.655,0,35.588-15.933,35.588-35.587V210.843
	C504.5,191.188,488.567,175.255,468.912,175.255z"/>
<path style="fill:#ED6EA4;" d="M188.291,19.817c-72.784,0.649-132.19,59.852-132.19,132.789c0,76.25,102.714,192.917,127.06,219.499
	c2.762,3.015,7.498,3.015,10.259,0c24.346-26.582,127.06-143.248,127.06-219.499C320.481,79.669,261.074,20.466,188.291,19.817z"/>
<path style="opacity:0.12;enable-background:new    ;" d="M188.291,19.817c-3.923,0.035-7.803,0.25-11.641,0.618
	c67.37,6.462,120.549,63.165,120.549,132.171c0,70.694-88.279,176.115-120.549,212.29c2.536,2.843,4.737,5.272,6.511,7.209
	c2.762,3.015,7.498,3.015,10.259,0c24.346-26.582,127.06-143.248,127.06-219.499C320.481,79.669,261.074,20.466,188.291,19.817z"/>
<path style="fill:#FFFFFF;" d="M187.686,109.493c-15.546-15.546-40.771-15.513-56.275,0.1c-15.47,15.577-15.12,40.858,0.404,56.382
	l47.075,47.075c4.858,4.858,12.735,4.858,17.594,0l47.075-47.075c15.524-15.524,15.874-40.804,0.404-56.382
	C228.457,93.98,203.232,93.947,187.686,109.493z"/>
<path style="opacity:0.12;enable-background:new    ;" d="M243.962,109.592c-9.191-9.255-21.799-13.034-33.781-11.339
	c8.326,1.146,16.36,4.911,22.744,11.339c15.47,15.577,15.12,40.858-0.404,56.382l-47.075,47.075
	c-0.984,0.984-2.097,1.759-3.279,2.344c4.652,2.304,10.441,1.53,14.315-2.344l47.075-47.075
	C259.081,150.45,259.431,125.17,243.962,109.592z"/>
<path d="M215.773,90.358c-10.253,0-20.004,3.244-28.086,9.25c-8.083-6.006-17.833-9.25-28.086-9.25h-0.085
	C146.871,90.38,135,95.335,126.09,104.307c-18.284,18.41-18.096,48.452,0.421,66.971l47.075,47.074
	c3.767,3.766,8.774,5.84,14.101,5.84c5.326,0,10.334-2.074,14.1-5.84l47.075-47.075c18.516-18.517,18.705-48.56,0.422-66.97
	c-8.911-8.974-20.783-13.928-33.428-13.949C215.856,90.358,215.773,90.358,215.773,90.358z M238.254,160.671l-47.075,47.075
	c-0.933,0.933-2.173,1.446-3.492,1.446s-2.56-0.514-3.493-1.447l-47.075-47.073c-12.688-12.689-12.861-33.232-0.386-45.794
	c6.081-6.124,14.182-9.504,22.81-9.52h0.058c8.607,0,16.696,3.351,22.783,9.438c1.407,1.406,3.314,2.196,5.304,2.196
	c1.989,0,3.896-0.79,5.304-2.197c6.087-6.087,14.176-9.438,22.782-9.438h0.058c8.628,0.015,16.729,3.396,22.811,9.52
	C251.115,127.439,250.942,147.982,238.254,160.671z M468.912,167.755H326.827c0.76-5.262,1.153-10.318,1.153-15.149
	c0-27.908-8.253-54.886-23.868-78.018c-2.316-3.433-6.979-4.338-10.412-2.021c-3.433,2.318-4.338,6.979-2.02,10.413
	c13.935,20.644,21.3,44.719,21.3,69.625c0,6.595-0.838,13.539-2.357,20.725c-0.073,0.274-0.13,0.553-0.171,0.839
	c-2.061,9.444-5.314,19.307-9.442,29.366c-0.193,0.378-0.359,0.771-0.486,1.183c-4.393,10.544-9.74,21.293-15.704,32
	c-0.051,0.089-0.102,0.178-0.149,0.269c-32.139,57.6-81.982,113.86-96.38,129.613c-3.906-4.272-9.166-10.136-15.377-17.332
	c-0.009-0.011-0.019-0.022-0.029-0.033c-3.799-4.403-7.953-9.302-12.374-14.644c-2.641-3.192-7.37-3.636-10.56-0.997
	c-3.191,2.641-3.638,7.368-0.997,10.559c0.665,0.803,1.322,1.593,1.974,2.377h-26.775v-33.742c1.856,2.461,3.731,4.93,5.649,7.416
	c1.478,1.915,3.698,2.918,5.942,2.918c1.601,0,3.213-0.51,4.577-1.563c3.279-2.53,3.886-7.24,1.355-10.52
	c-6.77-8.773-12.971-17.157-18.662-25.175c-0.181-0.29-0.375-0.571-0.593-0.833c-13.819-19.532-24.55-36.853-32.833-52.177
	c-0.213-0.53-0.483-1.031-0.805-1.493c-5.223-9.769-9.438-18.711-12.817-26.888c-0.092-0.265-0.199-0.522-0.319-0.773
	c-9.22-22.525-12.05-39.166-12.05-51.095c0-68.45,55.928-124.642,124.69-125.289c30.984,0.293,60.693,11.964,83.662,32.866
	c3.063,2.786,7.807,2.564,10.595-0.499c2.788-3.064,2.564-7.807-0.499-10.595c-25.716-23.403-58.989-36.463-93.691-36.773h-0.134
	c-76.988,0.688-139.623,63.62-139.623,140.289c0,4.82,0.405,9.88,1.17,15.149h-6.682C19.329,167.755,0,187.084,0,210.843v245.753
	c0,23.759,19.329,43.088,43.088,43.088h425.824c23.759,0,43.088-19.329,43.088-43.088V210.843
	C512,187.084,492.671,167.755,468.912,167.755z M312.661,214.432h39.501v18.519h-48.304
	C307.126,226.597,310.054,220.427,312.661,214.432z M228.923,342.581c13.273-16.112,28.698-35.934,43.35-57.368
	c0.742-1.086,1.465-2.162,2.193-3.24h77.697v10.49L259.37,346.53h-30.446L228.923,342.581L228.923,342.581z M210.243,386.098
	c-0.884-3.272-3.852-5.545-7.24-5.545h-8.723c1.751-0.798,3.349-1.938,4.673-3.383c3.845-4.198,9.573-10.564,16.505-18.607
	c1.37,1.8,3.529,2.968,5.966,2.968h39.972c1.326,0,2.63-0.352,3.775-1.02l98.268-57.257c2.307-1.344,3.725-3.811,3.725-6.48v-22.301
	c0-4.143-3.357-7.5-7.5-7.5H284.27c4.1-6.492,7.915-12.834,11.442-19.022h63.952c4.143,0,7.5-3.357,7.5-7.5v-26.019h19.022v62.518
	c0,2.685,1.435,5.165,3.763,6.503c2.328,1.337,5.193,1.33,7.513-0.022l67.863-39.542v22.016l-75.414,43.942
	c-2.307,1.344-3.725,3.811-3.725,6.48v79.768c0,4.143,3.357,7.5,7.5,7.5h71.639v19.022h-71.639c-4.143,0-7.5,3.357-7.5,7.5v22.89
	h-19.022V336.149c0-2.685-1.436-5.165-3.763-6.503c-2.328-1.338-5.194-1.329-7.513,0.022l-37.491,21.845
	c-2.307,1.344-3.725,3.811-3.725,6.48v95.013H295.65v-75.188c0-2.685-1.436-5.165-3.763-6.503c-2.327-1.338-5.193-1.329-7.513,0.022
	l-140.166,81.669h-37.785l100.356-58.474C209.707,392.827,211.127,389.369,210.243,386.098z M401.185,263.899v-49.468h59.566
	c2.521,0,4.572,2.051,4.572,4.572v7.524L401.185,263.899z M465.323,437.617v10.817c0,2.521-2.051,4.572-4.572,4.572h-59.566v-15.39
	h64.138V437.617z M352.162,349.199v103.808h-22.491v-90.702L352.162,349.199z M280.648,390.868v62.139H174.002L280.648,390.868z
	 M76.627,453.007H51.249c-2.521,0-4.573-2.051-4.573-4.572v-52.882h128.558L76.627,453.007z M80.877,247.95
	c8.013,14.07,17.47,28.864,28.278,44.253v61.827c0,4.143,3.357,7.5,7.5,7.5h47.037c5.61,6.454,10.364,11.737,13.938,15.64
	c1.324,1.445,2.921,2.584,4.671,3.383H46.676V361.53h35.956c4.143,0,7.5-3.357,7.5-7.5v-79.558c0-4.143-3.357-7.5-7.5-7.5H46.676
	V247.95H80.877z M46.676,346.53v-64.558h28.456v64.558L46.676,346.53L46.676,346.53z M63.938,214.432
	c2.605,5.996,5.547,12.173,8.809,18.519H46.676v-13.946c0-2.521,2.052-4.572,4.573-4.572L63.938,214.432L63.938,214.432z
	 M497,456.596c0,15.487-12.601,28.088-28.088,28.088H43.088C27.601,484.684,15,472.083,15,456.596V210.843
	c0-15.487,12.601-28.088,28.088-28.088h9.733c1.382,5.368,3.108,10.93,5.169,16.677h-6.741c-10.793,0-19.573,8.78-19.573,19.572
	v229.431c0,10.792,8.78,19.572,19.573,19.572h409.502c10.792,0,19.572-8.78,19.572-19.572V381.93c0-4.143-3.357-7.5-7.5-7.5
	s-7.5,3.357-7.5,7.5v6.665h-64.139v-67.958l64.139-37.372v67.569c0,4.143,3.357,7.5,7.5,7.5s7.5-3.357,7.5-7.5v-131.83
	c0-10.792-8.78-19.572-19.572-19.572H318.632c2.061-5.748,3.776-11.306,5.157-16.677h145.123c15.487,0,28.088,12.601,28.088,28.088
	V456.596z"/>
<g>
</g>
<g>
</g>
<g>
</g>
<g>
</g>
<g>
</g>
<g>
</g>
<g>
</g>
<g>
</g>
<g>
</g>
<g>
</g>
<g>
</g>
<g>
</g>
<g>
</g>
<g>
</g>
<g>
</g>
</svg>
