<?xml version="1.0" encoding="iso-8859-1"?>
<!-- Generator: Adobe Illustrator 19.0.0, SVG Export Plug-In . SVG Version: 6.00 Build 0)  -->
<svg version="1.1" id="Capa_1" xmlns="http://www.w3.org/2000/svg" xmlns:xlink="http://www.w3.org/1999/xlink" x="0px" y="0px"
	 viewBox="0 0 512 512" style="enable-background:new 0 0 512 512;" xml:space="preserve">
<path style="fill:#394049;" d="M467.464,369.31H44.536V132.861c0-14.28,11.576-25.855,25.855-25.855h371.217
	c14.28,0,25.855,11.576,25.855,25.855L467.464,369.31L467.464,369.31z"/>
<path style="fill:#9EDBF5;" d="M79.101,369.31V152.241c0-5.884,4.787-10.671,10.671-10.671h332.456
	c5.884,0,10.671,4.787,10.671,10.671V369.31H79.101z"/>
<g>
	<path style="fill:#ED6EA4;" d="M339.517,309.398c-4.252,0-8.554-0.313-12.872-0.952c-6.099-0.902-10.312-6.577-9.409-12.676
		c0.902-6.099,6.587-10.317,12.676-9.409c17.991,2.66,35.38-2.156,46.508-12.884c9.688-9.34,13.89-22.58,12.151-38.289
		c-0.678-6.128,3.74-11.646,9.867-12.324c6.121-0.67,11.646,3.739,12.324,9.867c2.492,22.521-4.2,42.7-18.846,56.819
		C378.638,302.351,359.68,309.398,339.517,309.398z"/>
	<path style="fill:#ED6EA4;" d="M237.098,192.792c-30.198-30.198-79.198-30.133-109.316,0.193
		c-30.051,30.259-29.37,79.367,0.785,109.522l91.443,91.443c9.437,9.437,24.738,9.437,34.175,0l91.443-91.443
		c30.155-30.155,30.836-79.263,0.785-109.522C316.296,162.658,267.296,162.594,237.098,192.792z"/>
</g>
<path style="opacity:0.12;enable-background:new    ;" d="M346.413,192.985c-11.783-11.865-26.457-19.097-41.765-21.698
	c8.877,3.792,17.19,9.32,24.414,16.595c30.051,30.259,29.37,79.367-0.785,109.522l-91.443,91.443
	c-4.118,4.118-9.353,6.439-14.73,6.962c9.486,7.525,23.313,6.909,32.081-1.859l91.443-91.443
	C375.784,272.352,376.464,223.244,346.413,192.985z"/>
<g>
	<path style="fill:#FFFFFF;" d="M180.621,274.277h-10.02c-4.142,0-7.5-3.357-7.5-7.5s3.358-7.5,7.5-7.5h10.02
		c4.142,0,7.5,3.357,7.5,7.5S184.763,274.277,180.621,274.277z"/>
	<path style="fill:#FFFFFF;" d="M303.595,274.277h-10.021c-4.143,0-7.5-3.357-7.5-7.5s3.357-7.5,7.5-7.5h10.021
		c4.143,0,7.5,3.357,7.5,7.5S307.737,274.277,303.595,274.277z"/>
</g>
<path style="fill:#EAEAEA;" d="M493.09,369.31H18.91c-6.302,0-11.41,5.109-11.41,11.41v12.865c0,6.302,5.108,11.41,11.41,11.41
	h474.18c6.302,0,11.41-5.109,11.41-11.41V380.72C504.5,374.418,499.391,369.31,493.09,369.31z"/>
<path style="opacity:0.12;enable-background:new    ;" d="M294.295,369.31h-76.591v7.163c0,5.898,4.781,10.68,10.68,10.68h55.231
	c5.898,0,10.68-4.781,10.68-10.68L294.295,369.31L294.295,369.31z"/>
<circle style="fill:#FFFFFF;" cx="256" cy="124.29" r="7.193"/>
<path style="opacity:0.12;enable-background:new    ;" d="M441.609,107.005h-18.902c14.28,0,25.855,11.576,25.855,25.855v215.643
	H44.536v20.806h422.928V132.861C467.464,118.581,455.888,107.005,441.609,107.005z"/>
<path style="opacity:0.12;enable-background:new    ;" d="M493.09,369.31h-25.626c6.302,0,11.41,5.109,11.41,11.41v12.865
	c0,6.302-5.109,11.41-11.41,11.41h25.626c6.302,0,11.41-5.108,11.41-11.41V380.72C504.5,374.418,499.392,369.31,493.09,369.31z"/>
<path d="M161.363,247.716c0,4.143,3.358,7.5,7.5,7.5c2.967,0,5.532-1.723,6.748-4.224c1.216,2.501,3.781,4.224,6.749,4.224
	c4.142,0,7.5-3.357,7.5-7.5c0-7.857-6.392-14.249-14.248-14.249C167.755,233.467,161.363,239.858,161.363,247.716z M493.09,361.81
	h-18.126v-73.848c0-4.143-3.357-7.5-7.5-7.5s-7.5,3.357-7.5,7.5v73.848H440.4V152.241c0-10.02-8.151-18.172-18.171-18.172H89.772
	c-10.02,0-18.171,8.152-18.171,18.172v146.333c0,4.143,3.358,7.5,7.5,7.5s7.5-3.357,7.5-7.5V152.241
	c0-1.749,1.423-3.172,3.171-3.172h332.456c1.748,0,3.171,1.423,3.171,3.172V361.81H296.934l44.965-44.965
	c21.258-0.552,41.275-8.448,55.222-21.895c16.358-15.77,23.85-38.159,21.096-63.044c-1.131-10.216-10.375-17.618-20.603-16.496
	c-10.228,1.133-17.628,10.375-16.496,20.604c1.269,11.461-1.103,21.267-6.86,28.667c5.637-27.016-1.837-56.152-22.521-76.979
	c-4.493-4.525-9.483-8.538-14.832-11.927c-3.498-2.216-8.133-1.177-10.35,2.322c-2.217,3.499-1.177,8.133,2.322,10.35
	c4.402,2.788,8.512,6.094,12.216,9.824c26.972,27.158,26.628,71.539-0.767,98.933L275.72,361.81h-77.242l-64.607-64.606
	c-27.393-27.394-27.737-71.775-0.766-98.933c13.146-13.238,30.659-20.547,49.311-20.579h0.124c18.606,0,36.096,7.244,49.255,20.404
	c1.406,1.406,3.314,2.196,5.303,2.196s3.897-0.79,5.303-2.196c15.938-15.939,38.739-23.2,60.993-19.415
	c4.082,0.694,7.956-2.056,8.65-6.139c0.693-4.083-2.055-7.956-6.139-8.65c-24.653-4.184-49.864,2.778-68.801,18.723
	c-15.25-12.899-34.365-19.923-54.565-19.923h-0.15c-22.669,0.039-43.952,8.921-59.929,25.009
	c-32.779,33.006-32.419,86.888,0.803,120.11l53.999,53.999H86.601v-27.432c0-4.143-3.358-7.5-7.5-7.5s-7.5,3.357-7.5,7.5v27.432
	H52.036V132.86c0-10.121,8.234-18.355,18.355-18.355h371.217c10.121,0,18.355,8.234,18.355,18.355v118.243
	c0,4.143,3.357,7.5,7.5,7.5s7.5-3.357,7.5-7.5V132.86c0-18.393-14.963-33.355-33.355-33.355H70.392
	c-18.392,0-33.355,14.963-33.355,33.355v228.95H18.91C8.483,361.81,0,370.293,0,380.72v12.865c0,10.427,8.483,18.91,18.91,18.91
	h474.18c10.427,0,18.91-8.483,18.91-18.91V380.72C512,370.293,503.517,361.81,493.09,361.81z M364.73,289.755
	c6.486-2.664,12.161-6.314,16.894-10.878c11.426-11.015,16.405-26.407,14.4-44.513c-0.222-2.009,1.231-3.823,3.229-4.045
	c2.01-0.216,3.832,1.231,4.054,3.237c2.23,20.157-3.664,38.126-16.598,50.595c-7.597,7.324-17.521,12.603-28.551,15.416
	C360.597,296.418,362.79,293.14,364.73,289.755z M286.761,376.81c-0.171,1.593-1.508,2.843-3.146,2.843h-55.231
	c-1.638,0-2.975-1.25-3.146-2.843H286.761z M497,393.585c0,2.156-1.754,3.91-3.91,3.91H18.91c-2.156,0-3.91-1.754-3.91-3.91V380.72
	c0-2.156,1.754-3.91,3.91-3.91h191.311c0.182,9.868,8.252,17.843,18.163,17.843h55.231c9.911,0,17.98-7.975,18.163-17.843H493.09
	c2.156,0,3.91,1.754,3.91,3.91V393.585z M246.949,253.255c0,0.648-0.527,1.176-1.176,1.176c-0.648,0-1.175-0.527-1.175-1.176
	c0-4.143-3.358-7.5-7.5-7.5s-7.5,3.357-7.5,7.5c0,0.648-0.527,1.176-1.175,1.176c-0.648,0-1.175-0.527-1.175-1.176
	c0-4.143-3.358-7.5-7.5-7.5s-7.5,3.357-7.5,7.5c0,8.919,7.256,16.176,16.175,16.176c3.189,0,6.167-0.929,8.675-2.528
	c2.508,1.6,5.486,2.528,8.675,2.528c8.92,0,16.175-7.257,16.175-16.176c0-4.143-3.357-7.5-7.5-7.5
	C250.307,245.755,246.949,249.112,246.949,253.255z M298.585,233.467c-7.858,0-14.249,6.392-14.249,14.249
	c0,4.143,3.358,7.5,7.5,7.5c2.968,0,5.532-1.724,6.749-4.224c1.216,2.5,3.78,4.224,6.748,4.224c4.143,0,7.5-3.357,7.5-7.5
	C312.833,239.858,306.441,233.467,298.585,233.467z"/>
<g>
</g>
<g>
</g>
<g>
</g>
<g>
</g>
<g>
</g>
<g>
</g>
<g>
</g>
<g>
</g>
<g>
</g>
<g>
</g>
<g>
</g>
<g>
</g>
<g>
</g>
<g>
</g>
<g>
</g>
</svg>
