<?xml version="1.0" encoding="iso-8859-1"?>
<!-- Generator: Adobe Illustrator 19.0.0, SVG Export Plug-In . SVG Version: 6.00 Build 0)  -->
<svg version="1.1" id="Capa_1" xmlns="http://www.w3.org/2000/svg" xmlns:xlink="http://www.w3.org/1999/xlink" x="0px" y="0px"
	 viewBox="0 0 512.001 512.001" style="enable-background:new 0 0 512.001 512.001;" xml:space="preserve">
<path style="fill:#9EDBF5;" d="M59.161,243.954c5.357,0,10.526,0.805,15.397,2.291c14.143-16.361,35.047-26.715,58.371-26.715
	c28.487,0,53.365,15.447,66.72,38.42c4.703-1.846,9.818-2.87,15.176-2.87c18.716,0,34.544,12.367,39.757,29.376
	c1.862,6.074-2.787,12.2-9.14,12.2H17.037c-6.082,0-10.634-5.631-9.305-11.566C13.004,261.547,34.028,243.954,59.161,243.954z"/>
<path style="opacity:0.12;enable-background:new    ;" d="M254.582,284.456c-5.213-17.008-21.041-29.376-39.757-29.376
	c-5.358,0-10.473,1.024-15.176,2.87c-13.356-22.973-38.233-38.42-66.721-38.42c-23.323,0-44.228,10.354-58.371,26.714
	c-4.871-1.486-10.039-2.291-15.396-2.291c-6.127,0-12.006,1.052-17.476,2.975c-0.013,0.931-0.035,1.86-0.035,2.795
	c0,16.169,1.944,31.882,5.586,46.933h198.206C251.795,296.656,256.444,290.53,254.582,284.456z"/>
<circle style="fill:#EAEAEA;" cx="261.739" cy="249.72" r="198.85"/>
<path style="opacity:0.12;enable-background:new    ;" d="M359.906,76.759c44.912,36.459,73.622,92.102,73.622,154.457
	c0,109.823-89.029,198.853-198.853,198.853c-35.701,0-69.2-9.416-98.162-25.888c34.189,27.754,77.764,44.395,125.231,44.395
	c109.823,0,198.853-89.029,198.853-198.853C460.596,175.601,420.036,110.958,359.906,76.759z"/>
<path style="opacity:0.12;enable-background:new    ;" d="M165.253,326.87c-10.533-10.606-27.669-10.629-38.23-0.068
	c-10.561-10.561-27.697-10.538-38.23,0.068c-2.771,2.791-4.788,6.042-6.073,9.507c11.604,23.93,27.87,45.176,47.61,62.573
	c0.969-0.412,1.879-1.008,2.669-1.798l31.98-31.98C175.525,354.627,175.763,337.452,165.253,326.87z"/>
<path style="opacity:0.12;enable-background:new    ;" d="M318.764,327.774c-10.561-10.561-27.697-10.538-38.23,0.068
	c-10.509,10.583-10.272,27.757,0.275,38.302l31.98,31.98c3.301,3.301,8.652,3.301,11.952,0l31.98-31.98
	c10.546-10.546,10.784-27.72,0.274-38.302C346.461,317.236,329.325,317.213,318.764,327.774z"/>
<path style="opacity:0.12;enable-background:new    ;" d="M455.876,206.524c-8.093-2.132-17.07-0.032-23.414,6.313
	c-9.518-9.518-24.963-9.498-34.455,0.061c-9.472,9.537-9.257,25.016,0.247,34.52l28.822,28.822c2.974,2.974,7.797,2.974,10.772,0
	l22.7-22.7c0.024-1.27,0.048-2.541,0.048-3.817C460.596,234.886,458.958,220.434,455.876,206.524z"/>
<path style="opacity:0.12;enable-background:new    ;" d="M339.426,103.798c-8.563-8.563-22.457-8.545-30.997,0.055
	c-8.521,8.58-8.328,22.505,0.223,31.056l25.929,25.929c2.676,2.676,7.015,2.676,9.691,0l25.929-25.929
	c8.551-8.551,8.744-22.476,0.223-31.056C361.883,95.254,347.988,95.235,339.426,103.798z"/>
<path style="opacity:0.12;enable-background:new    ;" d="M210.316,106.613c-14.182-14.281-37.256-14.311-51.476-0.091
	c-6.463-6.463-14.755-9.971-23.209-10.547c-14.654,12.034-27.554,26.124-38.266,41.827c1.17,7.468,4.637,14.654,10.368,20.385
	l43.06,43.06c4.444,4.444,11.649,4.444,16.093,0l43.06-43.06C224.146,143.987,224.467,120.862,210.316,106.613z"/>
<g>
	<path style="fill:#ED6EA4;" d="M195.766,259.37h-11.705c-4.142,0-7.5-3.357-7.5-7.5c0-4.142,3.358-7.5,7.5-7.5h11.705
		c4.142,0,7.5,3.358,7.5,7.5C203.266,256.013,199.908,259.37,195.766,259.37z"/>
	<path style="fill:#ED6EA4;" d="M339.425,259.37H327.72c-4.142,0-7.5-3.357-7.5-7.5c0-4.142,3.358-7.5,7.5-7.5h11.705
		c4.142,0,7.5,3.358,7.5,7.5C346.925,256.013,343.567,259.37,339.425,259.37z"/>
</g>
<path style="fill:#9EDBF5;" d="M436.916,392.186c-7.008,0-13.77,1.053-20.142,2.997c-18.501-21.404-45.849-34.948-76.362-34.948
	c-37.268,0-69.812,20.208-87.285,50.261c-6.153-2.414-12.845-3.755-19.854-3.755c-24.485,0-45.192,16.179-52.011,38.43
	c-2.435,7.946,3.647,15.96,11.957,15.96h298.803c7.956,0,13.911-7.366,12.173-15.13C497.3,415.202,469.796,392.186,436.916,392.186z
	"/>
<path d="M79.01,306.682c-1.184-3.8-2.239-7.635-3.18-11.499c-0.016-0.079-0.038-0.155-0.056-0.232
	c-3.571-14.737-5.384-29.899-5.384-45.228c0-105.513,85.84-191.354,191.353-191.354c30.802,0,61.411,7.489,88.516,21.658
	c26.243,13.718,49.304,33.686,66.689,57.744c2.426,3.356,7.114,4.111,10.472,1.687c3.357-2.426,4.112-7.114,1.687-10.472
	c-18.742-25.935-43.604-47.462-71.899-62.253c-29.241-15.285-62.252-23.364-95.464-23.364c-109.36,0-199.107,85.517-205.921,193.189
	c-12.584,0.705-24.741,5.36-34.547,13.308c-10.512,8.521-17.921,20.447-20.862,33.584c-1.131,5.05,0.08,10.267,3.32,14.313
	c3.253,4.062,8.102,6.392,13.304,6.392h45.616c0.638,2.339,1.314,4.669,2.036,6.986c1,3.212,3.962,5.271,7.158,5.271
	c0.739,0,1.49-0.11,2.232-0.341C78.035,314.841,80.242,310.637,79.01,306.682z M17.037,289.156c-0.853,0-1.366-0.481-1.596-0.769
	c-0.272-0.339-0.56-0.902-0.391-1.659c4.302-19.211,20.949-33.469,40.357-35.113c0.114,12.665,1.369,25.22,3.754,37.541H17.037z
	 M511.516,444.362c-3.735-16.68-13.143-31.824-26.493-42.645c-13.549-10.983-30.634-17.032-48.106-17.032
	c-5.965,0-11.886,0.691-17.66,2.059c-0.562-0.595-1.132-1.181-1.706-1.762c32.642-37.552,50.545-85.287,50.545-135.259
	c0-33.066-7.587-64.655-22.55-93.891c-1.887-3.688-6.407-5.147-10.093-3.26c-3.688,1.888-5.146,6.406-3.259,10.094
	c13.87,27.1,20.902,56.39,20.902,87.057c0,46.302-16.575,90.532-46.798,125.342c-18.759-14.364-41.853-22.331-65.886-22.331
	c-19.88,0-39.323,5.432-56.227,15.709c-3.539,2.151-4.664,6.765-2.513,10.304c2.151,3.541,6.765,4.665,10.305,2.513
	c14.556-8.849,31.304-13.525,48.435-13.525c27.15,0,52.914,11.792,70.688,32.352c1.94,2.245,5.022,3.135,7.861,2.27
	c5.812-1.773,11.853-2.671,17.955-2.671c14.248,0,27.617,4.732,38.661,13.684c10.736,8.702,18.301,20.873,21.3,34.27
	c0.444,1.984-0.413,3.434-0.963,4.121c-0.953,1.188-2.371,1.871-3.891,1.871H193.22c-1.607,0-3.08-0.745-4.04-2.044
	c-0.539-0.728-1.351-2.244-0.746-4.22c1.033-3.372,2.42-6.55,4.1-9.511c0.151-0.23,0.285-0.473,0.412-0.722
	c8.288-14.028,23.399-22.894,40.329-22.894c5.884,0,11.642,1.089,17.113,3.236c3.446,1.352,7.364-0.012,9.224-3.212
	c3.557-6.118,7.82-11.843,12.672-17.016c2.834-3.021,2.683-7.767-0.338-10.601c-3.021-2.836-7.768-2.684-10.601,0.339
	c-4.226,4.504-8.066,9.37-11.465,14.52c-5.393-1.506-10.956-2.267-16.605-2.267c-20.205,0-38.442,9.577-49.84,25.103
	c-39.417-17.701-71.865-48.35-91.788-86.885c-0.744-1.44-1.471-2.891-2.18-4.352c-1.807-3.727-6.294-5.284-10.021-3.476
	c-3.727,1.807-5.283,6.293-3.476,10.021c0.764,1.575,1.548,3.139,2.352,4.694c21.275,41.151,55.795,73.963,97.747,93.132
	c-0.734,1.787-1.4,3.616-1.976,5.495c-1.851,6.039-0.748,12.43,3.026,17.533c3.818,5.164,9.687,8.126,16.102,8.126h298.804
	c6.099,0,11.785-2.732,15.599-7.495C511.422,456.393,512.84,450.279,511.516,444.362z M182.414,224.344v5.258
	c0,4.143,3.358,7.5,7.5,7.5s7.5-3.357,7.5-7.5v-5.258c0-4.143-3.358-7.5-7.5-7.5S182.414,220.201,182.414,224.344z M274.512,236.073
	c0,1.452-1.182,2.634-2.634,2.634c-1.453,0-2.635-1.182-2.635-2.634c0-4.143-3.358-7.5-7.5-7.5s-7.5,3.357-7.5,7.5
	c0,1.452-1.182,2.634-2.635,2.634s-2.634-1.182-2.634-2.634c0-4.143-3.358-7.5-7.5-7.5s-7.5,3.357-7.5,7.5
	c0,9.724,7.911,17.634,17.634,17.634c3.769,0,7.266-1.188,10.135-3.21c2.869,2.021,6.366,3.21,10.135,3.21
	c9.724,0,17.634-7.91,17.634-17.634c0-4.143-3.358-7.5-7.5-7.5S274.512,231.931,274.512,236.073z M326.073,224.344v5.258
	c0,4.143,3.358,7.5,7.5,7.5s7.5-3.357,7.5-7.5v-5.258c0-4.143-3.358-7.5-7.5-7.5S326.073,220.201,326.073,224.344z"/>
<g>
</g>
<g>
</g>
<g>
</g>
<g>
</g>
<g>
</g>
<g>
</g>
<g>
</g>
<g>
</g>
<g>
</g>
<g>
</g>
<g>
</g>
<g>
</g>
<g>
</g>
<g>
</g>
<g>
</g>
</svg>
