<?xml version="1.0" encoding="iso-8859-1"?>
<!-- Generator: Adobe Illustrator 19.0.0, SVG Export Plug-In . SVG Version: 6.00 Build 0)  -->
<svg version="1.1" id="Capa_1" xmlns="http://www.w3.org/2000/svg" xmlns:xlink="http://www.w3.org/1999/xlink" x="0px" y="0px"
	 viewBox="0 0 512.001 512.001" style="enable-background:new 0 0 512.001 512.001;" xml:space="preserve">
<path style="fill:#ED6EA4;" d="M319.247,169.278c-42.545-42.545-111.58-42.454-154.012,0.272
	c-42.338,42.632-41.379,111.817,1.106,154.302l128.832,128.831c13.296,13.297,34.853,13.297,48.149,0l128.832-128.831
	c42.485-42.485,43.443-111.671,1.106-154.302C430.828,126.824,361.793,126.733,319.247,169.278z"/>
<path style="opacity:0.2;enable-background:new    ;" d="M319.247,169.278c-42.545-42.545-111.58-42.454-154.012,0.272
	c-42.338,42.632-41.379,111.817,1.106,154.302l128.832,128.831c13.296,13.297,34.853,13.297,48.149,0l128.832-128.831
	c42.485-42.485,43.443-111.671,1.106-154.302C430.828,126.824,361.793,126.733,319.247,169.278z"/>
<path style="fill:#FFFFFF;" d="M319.248,441.3c-3.39,0-6.577-1.32-8.974-3.717L181.443,308.752
	c-34.401-34.402-34.874-90.097-1.053-124.153c16.527-16.641,38.541-25.805,61.988-25.805c23.333,0,45.27,9.086,61.768,25.585
	l15.102,15.102l15.102-15.102c16.499-16.499,38.436-25.585,61.769-25.585c23.448,0,45.462,9.164,61.988,25.805
	c33.821,34.056,33.348,89.751-1.054,124.152L328.221,437.583C325.825,439.98,322.638,441.3,319.248,441.3z"/>
<path style="fill:#EAEAEA;" d="M319.248,441.3c-3.39,0-6.577-1.32-8.974-3.717L181.443,308.752
	c-34.401-34.402-34.874-90.097-1.053-124.153c16.527-16.641,38.541-25.805,61.988-25.805c23.333,0,45.27,9.086,61.768,25.585
	l15.102,15.102l15.102-15.102c16.499-16.499,38.436-25.585,61.769-25.585c23.448,0,45.462,9.164,61.988,25.805
	c33.821,34.056,33.348,89.751-1.054,124.152L328.221,437.583C325.825,439.98,322.638,441.3,319.248,441.3z"/>
<g>
	<circle style="fill:#947165;" cx="319.252" cy="378.716" r="28.411"/>
	<circle style="fill:#947165;" cx="319.252" cy="292.212" r="28.411"/>
	<circle style="fill:#947165;" cx="407.926" cy="286.942" r="28.411"/>
	<circle style="fill:#947165;" cx="379.755" cy="209.569" r="28.411"/>
</g>
<path style="opacity:0.2;enable-background:new    ;" d="M394.134,137.459c-27.157,0.493-54.164,11.095-74.887,31.818
	c-42.545-42.545-111.58-42.454-154.012,0.272c-42.338,42.632-41.379,111.817,1.106,154.302l71.013,71.013
	c2.015-1.295,3.926-2.817,5.688-4.58l128.832-128.831C405.32,228.009,413.023,178.018,394.134,137.459z"/>
<path style="fill:#ED6EA4;" d="M199.659,87.568c-42.546-42.545-111.58-42.454-154.012,0.273
	c-42.338,42.631-41.38,111.817,1.106,154.302l128.832,128.832c13.296,13.296,34.853,13.296,48.149,0l128.831-128.832
	c42.485-42.485,43.444-111.671,1.106-154.302C311.238,45.115,242.203,45.024,199.659,87.568z"/>
<g>
	<path style="fill:#FFFFFF;" d="M197.362,333.778c-1.919,0-3.839-0.732-5.304-2.197c-2.929-2.929-2.929-7.678,0-10.606l8.519-8.519
		c2.93-2.929,7.678-2.929,10.607,0c2.929,2.929,2.929,7.678,0,10.607l-8.519,8.518C201.2,333.046,199.281,333.778,197.362,333.778z"
		/>
	<path style="fill:#FFFFFF;" d="M301.914,229.225c-1.919,0-3.839-0.732-5.304-2.197c-2.929-2.929-2.929-7.678,0-10.606l8.519-8.519
		c2.93-2.929,7.678-2.929,10.607,0c2.929,2.929,2.929,7.678,0,10.606l-8.519,8.519C305.753,228.493,303.833,229.225,301.914,229.225
		z"/>
</g>
<path style="opacity:0.12;enable-background:new    ;" d="M353.67,87.84c-23.76-23.925-55.861-34.477-86.982-31.665
	c24.584,2.215,48.558,12.767,67.327,31.665c42.338,42.632,41.379,111.817-1.105,154.302L204.077,370.974
	c-4.119,4.119-9.032,6.959-14.247,8.526c11.615,3.49,24.726,0.65,33.902-8.526l128.831-128.831
	C395.049,199.659,396.007,130.472,353.67,87.84z"/>
<path style="fill:#FFABCA;" d="M122.316,49.346H111.67c-3.05,0-5.523,2.473-5.523,5.523v254.906c0,1.465,0.582,2.87,1.618,3.905
	l10.645,10.645c3.479,3.479,9.429,1.015,9.429-3.905V54.869C127.839,51.819,125.366,49.346,122.316,49.346z"/>
<path style="fill:#F4D06D;" d="M7.5,153.472v10.645c0,3.05,2.473,5.523,5.523,5.523H385.66c3.05,0,5.523-2.473,5.523-5.523v-10.645
	c0-3.05-2.473-5.523-5.523-5.523H13.024C9.973,147.948,7.5,150.421,7.5,153.472z"/>
<path style="opacity:0.12;enable-background:new    ;" d="M385.661,147.948h-19.415c3.05,0,5.523,2.473,5.523,5.523v10.645
	c0,3.05-2.473,5.523-5.523,5.523h19.415c3.05,0,5.523-2.473,5.523-5.523v-10.645C391.184,150.421,388.711,147.948,385.661,147.948z"
	/>
<path style="fill:#F4D06D;" d="M101.206,143.006c-13.801-13.801-4.958-37.868,14.539-38.747c0.414-0.019,0.83-0.028,1.249-0.028
	c0.419,0,0.835,0.009,1.249,0.028c19.497,0.878,28.339,24.946,14.539,38.747l-15.788,15.787L101.206,143.006z"/>
<path style="fill:#FFABCA;" d="M101.206,174.581c-13.801,13.801-37.867,4.959-38.747-14.539c-0.019-0.414-0.028-0.83-0.028-1.249
	s0.009-0.835,0.028-1.249c0.878-19.496,24.946-28.338,38.747-14.538l15.787,15.787L101.206,174.581z"/>
<path style="fill:#F4D06D;" d="M132.78,174.581c13.801,13.801,4.958,37.868-14.539,38.747c-0.414,0.019-0.83,0.028-1.249,0.028
	c-0.418,0-0.835-0.009-1.249-0.028c-19.497-0.878-28.339-24.946-14.539-38.747l15.787-15.787L132.78,174.581z"/>
<path style="fill:#FFABCA;" d="M132.78,143.006c13.801-13.801,37.868-4.958,38.747,14.539c0.019,0.414,0.028,0.83,0.028,1.249
	s-0.009,0.835-0.028,1.249c-0.878,19.497-24.946,28.339-38.747,14.539l-15.788-15.787L132.78,143.006z"/>
<path d="M372.015,286.942c0,19.802,16.11,35.912,35.911,35.912c19.802,0,35.911-16.11,35.911-35.912
	c0-19.802-16.11-35.911-35.911-35.911C388.124,251.031,372.015,267.14,372.015,286.942z M428.837,286.942
	c0,11.53-9.38,20.912-20.911,20.912c-11.53,0-20.911-9.38-20.911-20.912c0-11.53,9.38-20.911,20.911-20.911
	C419.456,266.031,428.837,275.412,428.837,286.942z M174.372,294.771c-6.086,6.087-6.086,15.994,0,22.081
	c1.465,1.465,3.384,2.197,5.304,2.197c1.919,0,3.839-0.732,5.303-2.196c2.93-2.929,2.93-7.677,0.001-10.606
	c-0.239-0.24-0.239-0.629-0.001-0.868c0.24-0.239,0.629-0.239,0.869,0c2.93,2.929,7.679,2.929,10.606-0.001
	c2.929-2.929,2.929-7.678-0.001-10.606C190.366,288.684,180.461,288.682,174.372,294.771z M478.582,164.264
	c-24.219-24.387-57.12-36.58-91.136-33.999c-5.403-17.948-15.059-34.22-28.454-47.71c-21.931-22.082-51.145-34.273-82.261-34.327
	c-0.07,0-0.137,0-0.207,0c-28.603,0-55.624,10.261-76.868,29.051c-18.404-16.247-41.388-26.202-65.846-28.519
	c-2.193-4.109-6.52-6.914-11.494-6.914H111.67c-5.692,0-10.53,3.676-12.297,8.774C76.931,55.199,56.61,66.157,40.325,82.556
	c-16.028,16.139-26.708,36.257-31.14,58.47C3.872,142.669,0,147.627,0,153.471v10.645c0,5.202,3.073,9.688,7.492,11.773
	c2.723,27.026,14.648,52.248,33.956,71.557c1.465,1.464,3.384,2.197,5.304,2.197c1.919,0,3.839-0.732,5.304-2.197
	c2.929-2.929,2.929-7.678,0-10.606c-16.195-16.194-26.417-37.158-29.303-59.699h38.333c3.238,4.17,7.62,7.492,12.882,9.534
	c3.693,1.434,7.494,2.133,11.238,2.133c0.612,0,1.222-0.025,1.83-0.063c-0.266,4.331,0.408,8.775,2.076,13.075
	c2.041,5.261,5.363,9.643,9.533,12.881v68.73l-24.798-24.799c-2.93-2.929-7.678-2.93-10.607,0c-2.929,2.929-2.929,7.678,0,10.606
	l35.406,35.407v5.13c0,3.479,1.355,6.75,3.814,9.208l10.645,10.645c2.498,2.497,5.813,3.821,9.195,3.821
	c1.467,0,2.944-0.265,4.375-0.775l43.604,43.603c7.848,7.847,18.281,12.168,29.378,12.168c5.97,0,11.744-1.262,17.031-3.639
	l73.181,73.18c7.847,7.847,18.28,12.168,29.378,12.168c11.098,0,21.531-4.322,29.378-12.168l106.89-106.889
	c2.929-2.929,2.929-7.678,0-10.607c-2.929-2.929-7.677-2.93-10.607,0L338.018,447.38c-5.013,5.014-11.679,7.775-18.771,7.775
	s-13.758-2.761-18.771-7.775l-71.272-71.272l4.494-4.494l71.272,71.272c3.813,3.813,8.884,5.913,14.278,5.913
	s10.462-2.1,14.276-5.913l128.831-128.832c37.315-37.315,37.797-97.76,1.071-134.74c-17.386-17.507-40.366-27.393-64.936-27.991
	c-0.404-2.418-1.471-4.61-3.016-6.384c27.138-0.231,53.016,10.316,72.463,29.897c39.186,39.458,38.698,103.928-1.088,143.714
	c-2.929,2.929-2.929,7.678,0,10.606c1.465,1.464,3.385,2.197,5.304,2.197c1.92,0,3.839-0.732,5.304-2.197
	C523.071,283.541,523.576,209.572,478.582,164.264z M389.305,190.986c6.781,3.501,11.361,10.585,11.361,18.579
	c0,11.53-9.381,20.912-20.912,20.912c-2.435,0-4.795-0.408-7.017-1.199C380.496,217.603,386.106,204.647,389.305,190.986z
	 M135.338,64.028c22.281,2.769,43.004,12.831,59.016,28.843c1.407,1.407,3.314,2.197,5.304,2.197c1.989,0,3.896-0.79,5.304-2.197
	c19.12-19.121,44.528-29.644,71.563-29.644c0.06,0,0.121,0,0.181,0c27.1,0.047,52.543,10.664,71.644,29.897
	c13.083,13.174,22.07,29.399,26.313,47.322H268.389c-4.143,0-7.5,3.358-7.5,7.5c0,4.142,3.357,7.5,7.5,7.5h115.295v6.691H178.876
	c0.06-0.583,0.116-1.168,0.143-1.761c0.023-0.525,0.036-1.053,0.036-1.585c0-0.531-0.013-1.059-0.036-1.586
	c-0.027-0.592-0.083-1.176-0.142-1.759h61.222c4.143,0,7.5-3.358,7.5-7.5c0-4.142-3.357-7.5-7.5-7.5h-67.199
	c-3.238-4.17-7.62-7.492-12.882-9.534c-4.297-1.668-8.739-2.341-13.068-2.076c0.265-4.329-0.409-8.771-2.077-13.069
	c-2.042-5.261-5.364-9.643-9.534-12.882V64.028H135.338z M138.083,148.311c5.215-5.216,11.946-5.183,16.508-3.412
	c5.645,2.19,9.175,7.044,9.442,12.983c0.014,0.303,0.021,0.606,0.021,0.913c0,0.306-0.007,0.61-0.021,0.912
	c-0.268,5.94-3.798,10.794-9.442,12.985c-4.559,1.77-11.291,1.804-16.508-3.412L127.6,158.795L138.083,148.311z M113.647,56.846
	h6.69V96.91c-0.583-0.06-1.167-0.116-1.76-0.143c-1.052-0.046-2.118-0.047-3.172,0c-0.592,0.027-1.176,0.083-1.759,0.143
	L113.647,56.846L113.647,56.846z M103.097,121.196c2.19-5.645,7.045-9.174,12.983-9.442c0.303-0.014,0.606-0.021,0.913-0.021
	c0.306,0,0.61,0.007,0.911,0.02c5.939,0.268,10.794,3.797,12.985,9.442c1.77,4.561,1.803,11.292-3.413,16.508l-10.482,10.483
	l-10.482-10.483C101.294,132.488,101.327,125.757,103.097,121.196z M54.967,160.38c0.027,0.592,0.083,1.176,0.142,1.759H15.001
	v-6.691h0.571c0.004,0,0.009,0.001,0.013,0.001c0.007,0,0.014-0.001,0.022-0.001H55.11c-0.06,0.583-0.116,1.168-0.143,1.761
	c-0.023,0.525-0.036,1.054-0.036,1.585C54.931,159.325,54.943,159.853,54.967,160.38z M61.086,140.447H24.655
	c4.243-17.923,13.232-34.148,26.313-47.322C64.242,79.76,80.59,70.544,98.647,66.146v36.74c-4.17,3.238-7.492,7.62-9.533,12.882
	c-1.668,4.297-2.342,8.739-2.077,13.069c-4.328-0.265-8.77,0.409-13.068,2.077C68.706,132.956,64.325,136.277,61.086,140.447z
	 M95.902,169.277c-5.216,5.215-11.947,5.182-16.508,3.412c-5.645-2.19-9.175-7.044-9.442-12.983
	c-0.014-0.303-0.021-0.607-0.021-0.913s0.007-0.61,0.021-0.911c0.268-5.939,3.798-10.794,9.442-12.985
	c1.69-0.656,3.679-1.074,5.778-1.074c3.563,0,7.446,1.204,10.729,4.486l10.483,10.483L95.902,169.277z M120.338,315.647l-6.69-6.69
	v-88.278c0.583,0.06,1.168,0.116,1.761,0.143c0.525,0.023,1.054,0.035,1.585,0.035c0.53,0,1.06-0.012,1.587-0.036
	c0.592-0.027,1.175-0.083,1.758-0.142L120.338,315.647L120.338,315.647z M130.889,196.392c-2.19,5.645-7.045,9.175-12.983,9.442
	c-0.606,0.027-1.224,0.027-1.824,0.001c-5.939-0.268-10.794-3.797-12.985-9.442c-1.77-4.561-1.803-11.292,3.413-16.508
	l10.482-10.483l10.482,10.483C132.691,185.1,132.658,191.831,130.889,196.392z M218.429,365.671
	c-1.361,1.362-2.848,2.551-4.429,3.57c-0.039,0.025-0.079,0.049-0.118,0.075c-4.213,2.685-9.105,4.13-14.223,4.13
	c-7.09,0-13.757-2.761-18.771-7.775l-45.55-45.549V214.701c4.17-3.238,7.493-7.62,9.534-12.882
	c1.669-4.299,2.342-8.743,2.076-13.075c0.608,0.037,1.218,0.063,1.83,0.063c3.743,0,7.545-0.7,11.238-2.133
	c5.261-2.042,9.643-5.364,12.882-9.534h203.663c-2.886,22.542-13.108,43.507-29.302,59.699L218.429,365.671z M340.159,292.209
	c0,11.53-9.38,20.911-20.911,20.911c-7.14,0-13.723-3.694-17.53-9.523l28.916-28.916
	C336.465,278.487,340.159,285.069,340.159,292.209z M398.479,166.351c20.547,0.593,39.755,8.88,54.306,23.533
	c30.917,31.131,30.452,82.076-1.036,113.563L322.917,432.28c-0.994,0.994-2.262,1.52-3.668,1.52c-1.407,0-2.677-0.526-3.671-1.52
	l-71.271-71.272l46.674-46.674c6.701,8.518,17.089,13.787,28.267,13.787c19.802,0,35.911-16.11,35.911-35.911
	c0-11.177-5.268-21.566-13.787-28.267l16.496-16.496c1.916-1.916,3.759-3.891,5.528-5.92c5.035,2.574,10.652,3.952,16.359,3.952
	c19.803,0,35.912-16.11,35.912-35.912c0-15.363-9.84-28.791-23.83-33.804c0.006-0.064,0.015-0.129,0.021-0.193
	C395.292,173.702,397.786,170.331,398.479,166.351z M251.848,238.19c-2.929,2.929-2.929,7.678,0,10.606
	c1.143,1.143,1.143,3.002,0,4.145c-0.746,0.747-1.618,0.858-2.071,0.858c-0.454,0-1.326-0.112-2.072-0.858
	c-2.93-2.929-7.678-2.929-10.607,0c-1.464,1.464-2.196,3.384-2.196,5.303c0,1.919,0.732,3.839,2.196,5.303
	c1.143,1.143,1.143,3.002,0,4.145c-0.747,0.747-1.618,0.858-2.071,0.858c-0.454,0-1.325-0.111-2.072-0.858
	c-2.929-2.928-7.678-2.93-10.607-0.001c-2.93,2.929-2.93,7.678-0.001,10.607c3.387,3.387,7.89,5.252,12.68,5.252
	c4.789,0,9.292-1.865,12.68-5.252c2.746-2.746,4.413-6.168,5.002-9.736c3.676-0.601,7.063-2.33,9.749-5.015
	c6.99-6.991,6.99-18.367,0-25.358C259.526,235.261,254.778,235.261,251.848,238.19z M291.444,192.128
	c-2.93-2.929-7.678-2.929-10.607,0c-2.929,2.929-2.929,7.678,0,10.606l3.826,3.826c1.465,1.464,3.385,2.197,5.304,2.197
	s3.839-0.732,5.304-2.197c2.929-2.929,2.929-7.678,0-10.606L291.444,192.128z M319.247,342.802
	c-19.802,0-35.911,16.11-35.911,35.912c0,19.802,16.11,35.911,35.911,35.911s35.911-16.11,35.911-35.911
	C355.16,358.912,339.049,342.802,319.247,342.802z M319.247,399.625c-11.53,0-20.911-9.38-20.911-20.911s9.38-20.912,20.911-20.912
	s20.911,9.38,20.911,20.912C340.159,390.245,330.779,399.625,319.247,399.625z"/>
<g>
</g>
<g>
</g>
<g>
</g>
<g>
</g>
<g>
</g>
<g>
</g>
<g>
</g>
<g>
</g>
<g>
</g>
<g>
</g>
<g>
</g>
<g>
</g>
<g>
</g>
<g>
</g>
<g>
</g>
</svg>
