<?xml version="1.0" encoding="iso-8859-1"?>
<!-- Generator: Adobe Illustrator 19.0.0, SVG Export Plug-In . SVG Version: 6.00 Build 0)  -->
<svg version="1.1" id="Capa_1" xmlns="http://www.w3.org/2000/svg" xmlns:xlink="http://www.w3.org/1999/xlink" x="0px" y="0px"
	 viewBox="0 0 512.001 512.001" style="enable-background:new 0 0 512.001 512.001;" xml:space="preserve">
<path style="fill:#F4D06D;" d="M472.112,18.249H39.888c-11.951,0-21.64,9.688-21.64,21.64v432.224c0,11.951,9.688,21.64,21.64,21.64
	h432.224c11.951,0,21.639-9.688,21.639-21.64V39.889C493.752,27.938,484.063,18.249,472.112,18.249z"/>
<g>
	<path style="fill:#83CDAB;" d="M358.665,387.666c-42.219,0-76.444,34.225-76.444,76.444c0,10.512,2.124,20.527,5.963,29.643
		h140.963c3.839-9.116,5.963-19.131,5.963-29.643C435.11,421.891,400.884,387.666,358.665,387.666z"/>
	<path style="fill:#83CDAB;" d="M18.248,274.684c42.219,0,76.444,34.225,76.444,76.444s-34.225,76.444-76.444,76.444
		C18.248,427.572,18.248,274.684,18.248,274.684z"/>
	<path style="fill:#83CDAB;" d="M442.203,18.249c0,42.219-34.225,76.444-76.444,76.444s-76.444-34.225-76.444-76.444
		C289.315,18.249,442.203,18.249,442.203,18.249z"/>
</g>
<path style="opacity:0.12;enable-background:new    ;" d="M472.112,18.249h-36.428c11.951,0,21.64,9.688,21.64,21.64v432.224
	c0,11.951-9.688,21.64-21.64,21.64h36.428c11.951,0,21.639-9.688,21.639-21.64V39.889C493.752,27.938,484.063,18.249,472.112,18.249
	z"/>
<g>
	<path style="fill:#ED6EA4;" d="M274.109,350.607h-15.001c-4.142,0-7.5-3.358-7.5-7.5c0-4.142,3.358-7.5,7.5-7.5h15.001
		c4.143,0,7.5,3.358,7.5,7.5C281.609,347.249,278.252,350.607,274.109,350.607z"/>
	<path style="fill:#ED6EA4;" d="M458.223,350.607h-15.001c-4.143,0-7.5-3.358-7.5-7.5c0-4.142,3.357-7.5,7.5-7.5h15.001
		c4.143,0,7.5,3.358,7.5,7.5C465.723,347.249,462.365,350.607,458.223,350.607z"/>
	<path style="fill:#ED6EA4;" d="M196.552,7.501h-22.366c-6.01,0-10.883,4.873-10.883,10.883v475.234
		c0,6.01,4.872,10.883,10.883,10.883h22.366c6.01,0,10.883-4.872,10.883-10.883V18.384C207.435,12.374,202.562,7.501,196.552,7.501z
		"/>
	<path style="fill:#ED6EA4;" d="M504.5,196.552v-22.366c0-6.01-4.873-10.883-10.883-10.883H18.383
		c-6.01,0-10.883,4.872-10.883,10.883v22.366c0,6.01,4.872,10.883,10.883,10.883h475.234
		C499.628,207.435,504.5,202.563,504.5,196.552z"/>
</g>
<path style="opacity:0.12;enable-background:new    ;" d="M493.617,163.304h-32.996c6.01,0,10.883,4.872,10.883,10.883v22.366
	c0,6.01-4.872,10.883-10.883,10.883h32.996c6.011,0,10.883-4.872,10.883-10.883v-22.366
	C504.5,168.176,499.628,163.304,493.617,163.304z"/>
<path id="SVGCleanerId_0" style="fill:#ED6EA4;" d="M158.509,82.944L158.509,82.944c-7.982,10.125-9.593,23.879-4.165,35.574
	l31.025,66.852l31.025-66.852c5.428-11.695,3.817-25.449-4.165-35.574l0,0C198.535,65.574,172.203,65.574,158.509,82.944z"/>
<path id="SVGCleanerId_1" style="fill:#ED6EA4;" d="M185.369,185.37l-66.852-31.025c-11.695-5.428-25.449-3.817-35.574,4.165l0,0
	c-17.37,13.694-17.37,40.025,0,53.72l0,0c10.125,7.982,23.879,9.593,35.574,4.165L185.369,185.37"/>
<path id="SVGCleanerId_2" style="fill:#ED6EA4;" d="M185.369,185.37l-31.025,66.852c-5.428,11.695-3.817,25.449,4.165,35.574l0,0
	c13.694,17.37,40.025,17.37,53.72,0l0,0c7.982-10.125,9.593-23.879,4.165-35.574L185.369,185.37"/>
<path id="SVGCleanerId_3" style="fill:#ED6EA4;" d="M185.369,185.37l66.852,31.025c11.695,5.428,25.449,3.817,35.574-4.165l0,0
	c17.37-13.694,17.37-40.025,0-53.72l0,0c-10.125-7.982-23.879-9.593-35.574-4.165L185.369,185.37"/>
<g>
	<path id="SVGCleanerId_0_1_" style="fill:#ED6EA4;" d="M158.509,82.944L158.509,82.944c-7.982,10.125-9.593,23.879-4.165,35.574
		l31.025,66.852l31.025-66.852c5.428-11.695,3.817-25.449-4.165-35.574l0,0C198.535,65.574,172.203,65.574,158.509,82.944z"/>
</g>
<g>
	<path id="SVGCleanerId_1_1_" style="fill:#ED6EA4;" d="M185.369,185.37l-66.852-31.025c-11.695-5.428-25.449-3.817-35.574,4.165
		l0,0c-17.37,13.694-17.37,40.025,0,53.72l0,0c10.125,7.982,23.879,9.593,35.574,4.165L185.369,185.37"/>
</g>
<g>
	<path id="SVGCleanerId_2_1_" style="fill:#ED6EA4;" d="M185.369,185.37l-31.025,66.852c-5.428,11.695-3.817,25.449,4.165,35.574
		l0,0c13.694,17.37,40.025,17.37,53.72,0l0,0c7.982-10.125,9.593-23.879,4.165-35.574L185.369,185.37"/>
</g>
<g>
	<path id="SVGCleanerId_3_1_" style="fill:#ED6EA4;" d="M185.369,185.37l66.852,31.025c11.695,5.428,25.449,3.817,35.574-4.165l0,0
		c17.37-13.694,17.37-40.025,0-53.72l0,0c-10.125-7.982-23.879-9.593-35.574-4.165L185.369,185.37"/>
</g>
<g style="opacity:0.12;">
	<path id="SVGCleanerId_4" d="M158.509,82.944L158.509,82.944c-7.982,10.125-9.593,23.879-4.165,35.574l31.025,66.852l31.025-66.852
		c5.428-11.695,3.817-25.449-4.165-35.574l0,0C198.535,65.574,172.203,65.574,158.509,82.944z"/>
	<path id="SVGCleanerId_5" d="M185.369,185.37l-66.852-31.025c-11.695-5.428-25.449-3.817-35.574,4.165l0,0
		c-17.37,13.694-17.37,40.025,0,53.72l0,0c10.125,7.982,23.879,9.593,35.574,4.165L185.369,185.37"/>
	<path id="SVGCleanerId_6" d="M185.369,185.37l-31.025,66.852c-5.428,11.695-3.817,25.449,4.165,35.574l0,0
		c13.694,17.37,40.025,17.37,53.72,0l0,0c7.982-10.125,9.593-23.879,4.165-35.574L185.369,185.37"/>
	<path id="SVGCleanerId_7" d="M185.369,185.37l66.852,31.025c11.695,5.428,25.449,3.817,35.574-4.165l0,0
		c17.37-13.694,17.37-40.025,0-53.72l0,0c-10.125-7.982-23.879-9.593-35.574-4.165L185.369,185.37"/>
	<g>
		<path id="SVGCleanerId_4_1_" d="M158.509,82.944L158.509,82.944c-7.982,10.125-9.593,23.879-4.165,35.574l31.025,66.852
			l31.025-66.852c5.428-11.695,3.817-25.449-4.165-35.574l0,0C198.535,65.574,172.203,65.574,158.509,82.944z"/>
	</g>
	<g>
		<path id="SVGCleanerId_5_1_" d="M185.369,185.37l-66.852-31.025c-11.695-5.428-25.449-3.817-35.574,4.165l0,0
			c-17.37,13.694-17.37,40.025,0,53.72l0,0c10.125,7.982,23.879,9.593,35.574,4.165L185.369,185.37"/>
	</g>
	<g>
		<path id="SVGCleanerId_6_1_" d="M185.369,185.37l-31.025,66.852c-5.428,11.695-3.817,25.449,4.165,35.574l0,0
			c13.694,17.37,40.025,17.37,53.72,0l0,0c7.982-10.125,9.593-23.879,4.165-35.574L185.369,185.37"/>
	</g>
	<g>
		<path id="SVGCleanerId_7_1_" d="M185.369,185.37l66.852,31.025c11.695,5.428,25.449,3.817,35.574-4.165l0,0
			c17.37-13.694,17.37-40.025,0-53.72l0,0c-10.125-7.982-23.879-9.593-35.574-4.165L185.369,185.37"/>
	</g>
</g>
<g>
	<path style="fill:#ED6EA4;" d="M101.708,136.471L101.708,136.471c1.386,11.717,9.244,21.659,20.325,25.715l63.336,23.184
		l-23.184-63.336c-4.056-11.08-13.998-18.938-25.715-20.325l0,0C116.368,99.33,99.329,116.369,101.708,136.471z"/>
	<path style="fill:#ED6EA4;" d="M185.369,185.37l-63.336,23.184c-11.08,4.056-18.938,13.998-20.325,25.715l0,0
		c-2.379,20.102,14.66,37.141,34.762,34.762l0,0c11.717-1.387,21.659-9.244,25.715-20.325L185.369,185.37"/>
	<path style="fill:#ED6EA4;" d="M185.369,185.37l23.184,63.336c4.056,11.08,13.998,18.938,25.715,20.325l0,0
		c20.102,2.379,37.141-14.66,34.762-34.762l0,0c-1.387-11.717-9.245-21.659-20.324-25.715L185.369,185.37"/>
	<path style="fill:#ED6EA4;" d="M185.369,185.37l63.336-23.184c11.08-4.056,18.938-13.998,20.324-25.715l0,0
		c2.379-20.102-14.66-37.141-34.762-34.762l0,0c-11.717,1.387-21.659,9.244-25.715,20.325L185.369,185.37"/>
</g>
<path d="M501.252,157.485V39.889c0-16.067-13.072-29.139-29.14-29.139H213.253c-2.906-6.332-9.291-10.749-16.701-10.749h-22.366
	c-7.411,0-13.795,4.417-16.702,10.748H39.888c-16.068,0-29.14,13.072-29.14,29.139v22.156c0,4.142,3.358,7.5,7.5,7.5
	s7.5-3.358,7.5-7.5V39.889c0-7.796,6.343-14.139,14.14-14.139h115.915v48.952c-1.12,1.13-2.183,2.33-3.184,3.599
	c-4.096,5.195-6.837,11.181-8.115,17.511c-2.304-0.724-4.691-1.259-7.154-1.55c-11.879-1.406-23.538,2.639-31.995,11.096
	s-12.502,20.119-11.096,31.996c0.291,2.463,0.826,4.849,1.55,7.153c-6.331,1.278-12.315,4.019-17.51,8.115
	c-1.269,1-2.469,2.063-3.598,3.183H25.748V96.696c0-4.142-3.358-7.5-7.5-7.5s-7.5,3.358-7.5,7.5v60.789
	C4.417,160.391,0,166.776,0,174.187v22.365c0,7.411,4.417,13.795,10.748,16.702v258.859c0,16.067,13.072,29.139,29.14,29.139
	h117.596c2.906,6.332,9.291,10.748,16.702,10.748h22.366c7.411,0,13.795-4.417,16.702-10.748h74.877c0.031,0,0.061,0,0.092,0
	h140.871c0.017,0,0.033,0.002,0.05,0.002c0.011,0,0.022-0.002,0.033-0.002h42.935c16.067,0,29.14-13.072,29.14-29.139v-31.404
	c0-4.142-3.358-7.5-7.5-7.5c-4.143,0-7.5,3.358-7.5,7.5v31.404c0,7.796-6.343,14.139-14.14,14.139h-32.479
	c1.962-7.175,2.976-14.583,2.976-22.143c0-46.287-37.657-83.944-83.943-83.944c-46.287,0-83.944,37.657-83.944,83.944
	c0,7.56,1.014,14.967,2.976,22.143h-62.763V296.038c1.12-1.13,2.183-2.33,3.184-3.598c4.096-5.194,6.837-11.18,8.115-17.51
	c2.304,0.724,4.691,1.259,7.154,1.55c1.551,0.184,3.098,0.274,4.635,0.274c10.232,0,20.008-4.017,27.36-11.369
	c8.457-8.456,12.502-20.119,11.097-31.996c-0.291-2.462-0.826-4.848-1.549-7.15c6.331-1.278,12.315-4.023,17.509-8.118
	c1.269-1,2.469-2.064,3.599-3.184h190.214v195.831c0,4.142,3.357,7.5,7.5,7.5c4.142,0,7.5-3.358,7.5-7.5V213.254
	c6.331-2.906,10.748-9.291,10.748-16.701v-22.365C512,166.776,507.583,160.392,501.252,157.485z M358.666,395.166
	c38.016,0,68.943,30.928,68.943,68.944c0,7.614-1.241,15.038-3.654,22.143h-130.58c-2.413-7.105-3.654-14.529-3.654-22.143
	C289.722,426.094,320.65,395.166,358.666,395.166z M434.288,25.75c-3.751,34.5-33.048,61.444-68.529,61.444
	S300.982,60.25,297.231,25.75H434.288z M170.803,18.511c0.002-0.061,0.006-0.127,0.006-0.179c0-0.002,0-0.005,0-0.007
	c0.033-1.837,1.532-3.323,3.377-3.323h22.366c1.855,0,3.362,1.501,3.38,3.351c0,0.02-0.002,0.04-0.002,0.06
	c0.001,0.04,0.003,0.081,0.005,0.121v46.498c-4.59-1.705-9.504-2.615-14.566-2.615s-9.976,0.91-14.566,2.615L170.803,18.511
	L170.803,18.511z M164.399,87.587c5.096-6.463,12.739-10.17,20.97-10.17s15.874,3.707,20.97,10.171
	c3.693,4.683,5.67,10.372,5.716,16.275c-4.645,4.162-8.302,9.465-10.545,15.593l-16.141,44.096l-16.141-44.096
	c-2.243-6.128-5.9-11.431-10.545-15.593C158.729,97.96,160.707,92.271,164.399,87.587z M215.596,124.612
	c1.577-4.308,4.293-7.952,7.757-10.637c0.304-0.19,0.591-0.405,0.864-0.636c3.171-2.235,6.901-3.704,10.933-4.181
	c0.952-0.113,1.899-0.168,2.842-0.168c6.277,0,12.274,2.464,16.784,6.974c5.188,5.188,7.669,12.341,6.807,19.627
	c-0.477,4.025-1.941,7.75-4.171,10.918c-0.225,0.264-0.43,0.544-0.616,0.837c-2.688,3.483-6.342,6.215-10.667,7.798l-48.16,17.629
	L215.596,124.612z M115.962,115.963c5.187-5.188,12.342-7.672,19.627-6.806c4.032,0.477,7.761,1.946,10.932,4.181
	c0.255,0.216,0.525,0.414,0.807,0.594c3.49,2.689,6.229,6.348,7.814,10.68l17.629,48.16l-48.16-17.629
	c-4.324-1.583-7.978-4.314-10.666-7.796c-0.187-0.295-0.394-0.576-0.619-0.841c-2.229-3.168-3.693-6.891-4.169-10.916
	C108.294,128.304,110.775,121.151,115.962,115.963z M87.586,164.4c4.683-3.693,10.372-5.67,16.275-5.716
	c4.162,4.645,9.465,8.302,15.593,10.545l44.096,16.141l-44.096,16.141c-6.128,2.243-11.431,5.9-15.593,10.545
	c-5.901-0.046-11.593-2.023-16.276-5.716c-6.463-5.096-10.171-12.739-10.171-20.97C77.415,177.139,81.123,169.496,87.586,164.4z
	 M18.503,199.935c-0.06-0.002-0.124-0.005-0.174-0.006c-0.001,0-0.002,0-0.003,0c-1.838-0.031-3.326-1.531-3.326-3.377v-22.365
	c0-1.844,1.484-3.342,3.319-3.377c0.003,0,0.006,0,0.01,0c0.059-0.001,0.118-0.004,0.177-0.006H65.03
	c-1.705,4.59-2.615,9.504-2.615,14.566c0,5.061,0.91,9.975,2.615,14.565H18.503z M25.748,282.599
	c34.5,3.751,61.444,33.048,61.444,68.529c0,35.481-26.944,64.778-61.444,68.529C25.748,419.657,25.748,282.599,25.748,282.599z
	 M155.803,486.253H39.888c-7.797,0-14.14-6.343-14.14-14.139V434.72c42.784-3.809,76.444-39.834,76.444-83.591
	c0-43.758-33.66-79.783-76.444-83.592v-52.601H74.7c1.13,1.12,2.33,2.184,3.599,3.184c5.195,4.096,11.179,6.841,17.51,8.118
	c-0.723,2.303-1.258,4.689-1.549,7.15c-1.405,11.877,2.639,23.539,11.096,31.996c7.352,7.353,17.127,11.369,27.36,11.369
	c1.537,0,3.085-0.091,4.635-0.274c2.462-0.291,4.849-0.826,7.153-1.55c1.278,6.331,4.019,12.316,8.115,17.511
	c1,1.269,2.064,2.469,3.184,3.599L155.803,486.253L155.803,486.253z M155.142,246.128c-1.586,4.333-4.326,7.993-7.819,10.683
	c-0.279,0.179-0.546,0.375-0.799,0.588c-3.172,2.237-6.903,3.706-10.936,4.183c-7.287,0.861-14.438-1.618-19.626-6.806
	c-5.188-5.188-7.669-12.341-6.806-19.627c0.476-4.025,1.94-7.749,4.169-10.917c0.226-0.266,0.432-0.546,0.619-0.841
	c2.688-3.482,6.342-6.213,10.666-7.796l48.16-17.628L155.142,246.128z M199.935,493.468c-0.002,0.041-0.004,0.087-0.005,0.122
	c0,0.02,0.002,0.04,0.002,0.06c-0.017,1.85-1.525,3.351-3.38,3.351h-22.366c-1.845,0-3.344-1.486-3.377-3.323
	c0-0.003,0-0.005,0-0.007c-0.001-0.06-0.004-0.119-0.006-0.178V305.709c4.59,1.705,9.504,2.615,14.566,2.615
	s9.975-0.911,14.565-2.616v187.76H199.935z M206.339,283.153c-5.096,6.464-12.739,10.171-20.97,10.171s-15.874-3.708-20.97-10.171
	c-3.693-4.683-5.67-10.372-5.716-16.275c4.645-4.162,8.302-9.465,10.545-15.593l16.141-44.095l16.141,44.095
	c2.243,6.128,5.9,11.432,10.545,15.594C212.009,272.781,210.031,278.47,206.339,283.153z M254.775,254.777
	c-5.188,5.188-12.341,7.668-19.626,6.805c-4.039-0.478-7.775-1.951-10.95-4.193c-0.245-0.205-0.502-0.395-0.771-0.568
	c-3.499-2.691-6.245-6.354-7.833-10.694l-17.628-48.16l48.16,17.628c4.325,1.583,7.979,4.315,10.667,7.797
	c0.187,0.294,0.393,0.574,0.618,0.839c2.229,3.168,3.694,6.892,4.17,10.917C262.444,242.436,259.963,249.59,254.775,254.777z
	 M283.151,206.34c-4.684,3.692-10.369,5.67-16.275,5.716c-4.162-4.645-9.465-8.302-15.593-10.545l-44.096-16.141l44.096-16.141
	c6.128-2.243,11.431-5.9,15.593-10.544c5.902,0.047,11.592,2.023,16.275,5.715c6.464,5.096,10.171,12.739,10.171,20.97
	C293.322,193.601,289.615,201.244,283.151,206.34z M497,196.552c0,1.846-1.487,3.346-3.326,3.377c0,0-0.002,0-0.003,0
	c-0.06,0.001-0.119,0.004-0.178,0.006H305.708c1.704-4.59,2.615-9.504,2.615-14.565c0-5.062-0.91-9.976-2.615-14.566h62.243
	c4.143,0,7.5-3.358,7.5-7.5s-3.357-7.5-7.5-7.5h-71.913c-1.13-1.12-2.33-2.183-3.598-3.183c-5.195-4.096-11.18-6.838-17.51-8.115
	c0.724-2.304,1.259-4.691,1.55-7.153c1.405-11.877-2.64-23.539-11.097-31.996c-8.457-8.456-20.12-12.497-31.995-11.096
	c-2.463,0.291-4.85,0.826-7.154,1.55c-1.278-6.331-4.019-12.316-8.115-17.51c-1-1.269-2.064-2.469-3.184-3.599V25.75h67.233
	c3.808,42.784,39.834,76.444,83.591,76.444c43.758,0,79.783-33.66,83.592-76.444h22.762c7.797,0,14.14,6.343,14.14,14.139v115.915
	H398.81c-4.142,0-7.5,3.358-7.5,7.5s3.358,7.5,7.5,7.5h94.708c0.047,0.002,0.095,0.004,0.139,0.004
	c1.846,0.022,3.342,1.527,3.342,3.379L497,196.552L497,196.552z M259.108,307.829v6.738c0,4.142,3.357,7.5,7.5,7.5
	s7.5-3.358,7.5-7.5v-6.738c0-4.142-3.357-7.5-7.5-7.5C262.466,300.329,259.108,303.687,259.108,307.829z M443.223,307.829v6.738
	c0,4.142,3.357,7.5,7.5,7.5s7.5-3.358,7.5-7.5v-6.738c0-4.142-3.357-7.5-7.5-7.5S443.223,303.687,443.223,307.829z M377.143,322.861
	c0,3.026-2.462,5.488-5.488,5.488s-5.488-2.462-5.488-5.488c0-4.142-3.357-7.5-7.5-7.5s-7.5,3.358-7.5,7.5
	c0,3.026-2.463,5.488-5.489,5.488s-5.488-2.462-5.488-5.488c0-4.142-3.357-7.5-7.5-7.5s-7.5,3.358-7.5,7.5
	c0,11.297,9.191,20.488,20.488,20.488c4.926,0,9.451-1.748,12.989-4.654c3.537,2.907,8.063,4.654,12.988,4.654
	c11.297,0,20.488-9.191,20.488-20.488c0-4.142-3.357-7.5-7.5-7.5S377.143,318.719,377.143,322.861z"/>
<g>
</g>
<g>
</g>
<g>
</g>
<g>
</g>
<g>
</g>
<g>
</g>
<g>
</g>
<g>
</g>
<g>
</g>
<g>
</g>
<g>
</g>
<g>
</g>
<g>
</g>
<g>
</g>
<g>
</g>
</svg>
