<?xml version="1.0" encoding="iso-8859-1"?>
<!-- Generator: Adobe Illustrator 19.0.0, SVG Export Plug-In . SVG Version: 6.00 Build 0)  -->
<svg version="1.1" id="Capa_1" xmlns="http://www.w3.org/2000/svg" xmlns:xlink="http://www.w3.org/1999/xlink" x="0px" y="0px"
	 viewBox="0 0 512 512" style="enable-background:new 0 0 512 512;" xml:space="preserve">
<path style="fill:#EAEAEA;" d="M473.192,75.083H38.808C21.517,75.083,7.5,89.1,7.5,106.391v348.191
	c0,17.291,14.017,31.308,31.308,31.308h434.384c17.291,0,31.308-14.017,31.308-31.308V106.391
	C504.5,89.1,490.483,75.083,473.192,75.083z"/>
<path style="fill:#9EDBF5;" d="M473.192,465.382H38.808c-5.955,0-10.8-4.845-10.8-10.8V106.391c0-5.955,4.845-10.8,10.8-10.8
	h434.384c5.955,0,10.8,4.845,10.8,10.8v348.191C483.992,460.537,479.147,465.382,473.192,465.382z M43.008,450.382h425.983v-339.79
	H43.008V450.382z"/>
<g>
	<path style="fill:#ED6EA4;" d="M473.192,75.083H38.808C21.517,75.083,7.5,89.1,7.5,106.391v91.3h497v-91.3
		C504.5,89.1,490.483,75.083,473.192,75.083z"/>
	<path style="fill:#ED6EA4;" d="M256,265.388c-22.605-22.605-59.286-22.557-81.831,0.145c-22.495,22.652-21.986,59.412,0.587,81.986
		l68.452,68.452c7.064,7.065,18.518,7.065,25.583,0l68.452-68.452c22.573-22.574,23.083-59.334,0.587-81.986
		C315.286,242.831,278.605,242.782,256,265.388z"/>
</g>
<path style="fill:#FFFFFF;" d="M256,363.169c-4.142,0-7.5-3.358-7.5-7.5v-33.205l-3.289,3.289c-2.929,2.929-7.678,2.929-10.606,0
	c-2.929-2.929-2.929-7.678,0-10.607l16.092-16.092c2.145-2.145,5.371-2.786,8.173-1.626c2.803,1.161,4.63,3.896,4.63,6.929v51.312
	C263.5,359.811,260.142,363.169,256,363.169z"/>
<path style="opacity:0.12;enable-background:new    ;" d="M337.831,265.532c-8.821-8.882-19.805-14.296-31.264-16.242
	c6.645,2.839,12.868,6.977,18.276,12.422c22.495,22.651,21.986,59.412-0.587,81.986l-68.452,68.452
	c-3.083,3.083-7.002,4.82-11.027,5.212c7.101,5.633,17.452,5.172,24.015-1.392l68.452-68.452
	C359.817,324.945,360.327,288.184,337.831,265.532z"/>
<g>
	<path style="fill:#FFFFFF;" d="M169.387,169.855h-15.366c-4.142,0-7.5-3.358-7.5-7.5s3.358-7.5,7.5-7.5h15.366
		c4.142,0,7.5,3.358,7.5,7.5S173.529,169.855,169.387,169.855z"/>
	<path style="fill:#FFFFFF;" d="M357.979,169.855h-15.366c-4.142,0-7.5-3.358-7.5-7.5s3.358-7.5,7.5-7.5h15.366
		c4.142,0,7.5,3.358,7.5,7.5S362.121,169.855,357.979,169.855z"/>
</g>
<path style="opacity:0.12;enable-background:new    ;" d="M473.192,75.083h-36.429c17.291,0,31.308,14.017,31.308,31.308v91.3H7.5
	v29.053h460.57v227.838c0,17.291-14.017,31.308-31.308,31.308h36.429c17.291,0,31.308-14.017,31.308-31.308V106.391
	C504.5,89.1,490.483,75.083,473.192,75.083z"/>
<path style="fill:#F4D06D;" d="M89.931,132.329h-11.29c-9.279,0-16.801-7.522-16.801-16.801V42.913
	c0-9.279,7.522-16.801,16.801-16.801h11.29c9.279,0,16.801,7.522,16.801,16.801v72.615
	C106.732,124.807,99.21,132.329,89.931,132.329z"/>
<path style="opacity:0.12;enable-background:new    ;" d="M89.931,26.111H80.37c9.279,0,16.801,7.522,16.801,16.801v72.615
	c0,9.279-7.522,16.801-16.801,16.801h9.561c9.279,0,16.801-7.522,16.801-16.801V42.913C106.732,33.634,99.21,26.111,89.931,26.111z"
	/>
<path style="fill:#F4D06D;" d="M422.069,132.329h11.29c9.279,0,16.801-7.522,16.801-16.801V42.913
	c0-9.279-7.522-16.801-16.801-16.801h-11.29c-9.279,0-16.801,7.522-16.801,16.801v72.615
	C405.268,124.807,412.79,132.329,422.069,132.329z"/>
<path style="opacity:0.12;enable-background:new    ;" d="M433.359,26.111h-9.561c9.279,0,16.801,7.522,16.801,16.801v72.615
	c0,9.279-7.522,16.801-16.801,16.801h9.561c9.279,0,16.801-7.522,16.801-16.801V42.913C450.16,33.634,442.638,26.111,433.359,26.111
	z"/>
<path d="M473.192,67.583H457.66V42.912c0-13.399-10.901-24.301-24.301-24.301h-11.29c-13.4,0-24.302,10.901-24.302,24.301v24.671
	H114.232V42.912c0-13.399-10.901-24.301-24.301-24.301h-11.29c-13.4,0-24.301,10.901-24.301,24.301v24.671H38.808
	C17.409,67.583,0,84.993,0,106.391v303.525c0,4.142,3.358,7.5,7.5,7.5s7.5-3.358,7.5-7.5V205.191h382.827c4.142,0,7.5-3.358,7.5-7.5
	s-3.358-7.5-7.5-7.5H15v-83.8c0-13.128,10.68-23.808,23.808-23.808H54.34v32.944c0,13.4,10.901,24.301,24.301,24.301h11.29
	c13.4,0,24.301-10.901,24.301-24.301V82.583h283.535v32.944c0,13.4,10.902,24.301,24.302,24.301h11.29
	c13.4,0,24.301-10.901,24.301-24.301V82.583h15.532c13.128,0,23.808,10.68,23.808,23.808v83.8h-62.022c-4.142,0-7.5,3.358-7.5,7.5
	s3.358,7.5,7.5,7.5H497v249.391c0,13.128-10.68,23.808-23.808,23.808H38.808C25.68,478.39,15,467.71,15,454.582v-8.985
	c0-4.142-3.358-7.5-7.5-7.5s-7.5,3.358-7.5,7.5v8.985c0,21.399,17.409,38.808,38.808,38.808h434.384
	c21.399,0,38.808-17.409,38.808-38.808V106.391C512,84.993,494.591,67.583,473.192,67.583z M99.232,115.528
	c0,5.129-4.172,9.301-9.301,9.301h-11.29c-5.129,0-9.301-4.172-9.301-9.301V42.912c0-5.128,4.172-9.301,9.301-9.301h11.29
	c5.129,0,9.301,4.172,9.301,9.301V115.528z M442.66,115.528c0,5.129-4.172,9.301-9.301,9.301h-11.29
	c-5.129,0-9.302-4.172-9.302-9.301V42.912c0-5.128,4.173-9.301,9.302-9.301h11.29c5.129,0,9.301,4.172,9.301,9.301V115.528z
	 M275.109,141.617c0,3.201-2.604,5.804-5.804,5.804c-3.201,0-5.805-2.604-5.805-5.804c0-4.142-3.358-7.5-7.5-7.5s-7.5,3.358-7.5,7.5
	c0,3.201-2.604,5.804-5.805,5.804c-3.2,0-5.804-2.604-5.804-5.804c0-4.142-3.358-7.5-7.5-7.5s-7.5,3.358-7.5,7.5
	c0,11.472,9.333,20.804,20.804,20.804c5.055,0,9.696-1.813,13.305-4.822c3.609,3.009,8.25,4.822,13.305,4.822
	c11.472,0,20.804-9.332,20.804-20.804c0-4.142-3.358-7.5-7.5-7.5S275.109,137.475,275.109,141.617z M154.204,126.219v6.902
	c0,4.142,3.358,7.5,7.5,7.5s7.5-3.358,7.5-7.5v-6.902c0-4.142-3.358-7.5-7.5-7.5S154.204,122.077,154.204,126.219z M342.796,126.219
	v6.902c0,4.142,3.358,7.5,7.5,7.5s7.5-3.358,7.5-7.5v-6.902c0-4.142-3.358-7.5-7.5-7.5S342.796,122.077,342.796,126.219z
	 M162.446,281.503c-3.955-1.238-8.161,0.962-9.399,4.914c-7.358,23.482-1.072,48.927,16.406,66.405l68.452,68.452
	c4.989,4.989,11.541,7.483,18.095,7.483c6.553,0,13.106-2.495,18.095-7.483l68.452-68.452c25.603-25.602,25.874-67.131,0.606-92.574
	c-12.315-12.401-28.721-19.248-46.195-19.278h-0.117c-15.036,0-29.295,5.05-40.842,14.351
	c-23.667-19.055-57.649-19.393-81.775,0.075c-3.224,2.601-3.728,7.323-1.127,10.546c2.602,3.224,7.324,3.728,10.547,1.126
	c20.012-16.148,48.838-14.591,67.052,3.622c2.929,2.929,7.678,2.929,10.606,0c9.496-9.496,22.113-14.721,35.539-14.721h0.09
	c13.458,0.023,26.093,5.296,35.578,14.848c19.46,19.595,19.205,51.623-0.569,71.397l-68.452,68.452c-2,2-4.66,3.102-7.488,3.102
	c-2.829,0-5.488-1.102-7.488-3.102l-68.452-68.452c-13.516-13.516-18.382-33.178-12.699-51.313
	C168.599,286.949,166.399,282.741,162.446,281.503z"/>
<g>
</g>
<g>
</g>
<g>
</g>
<g>
</g>
<g>
</g>
<g>
</g>
<g>
</g>
<g>
</g>
<g>
</g>
<g>
</g>
<g>
</g>
<g>
</g>
<g>
</g>
<g>
</g>
<g>
</g>
</svg>
